<svg xmlns="http://www.w3.org/2000/svg" viewBox="1024 1024 18432 18432" preserveAspectRatio="xMidYMid meet">
    <g id="l3tPQtHExus3ZENnC0nOKao" fill="rgb(253,254,254)" style="transform: none;">
        <g style="transform: none;">
            <path id="pv5q74hYU"
                d="M0 10240 m10917 4180 c442 -36 844 -135 1198 -295 340 -154 558 -281 812 -473 116 -88 147 -114 285 -242 38 -36 77 -69 86 -73 10 -4 25 -22 35 -38 9 -17 26 -33 37 -36 11 -3 20 -11 20 -18 0 -7 37 -56 83 -108 108 -125 154 -182 202 -252 22 -32 52 -72 68 -90 15 -18 27 -37 27 -42 0 -6 9 -18 21 -29 11 -10 27 -33 34 -51 8 -18 19 -33 24 -33 6 0 11 -6 11 -14 0 -8 18 -43 39 -77 47 -77 162 -296 201 -384 9 -22 24 -56 33 -75 9 -19 19 -47 23 -62 3 -16 10 -28 15 -28 5 0 9 -7 9 -15 0 -9 15 -60 34 -113 68 -196 131 -447 176 -697 9 -54 20 -219 12 -195 -21 67 -66 160 -78 160 -9 0 -14 11 -14 29 0 43 -17 82 -38 88 -14 3 -22 20 -30 63 -7 40 -31 95 -78 177 -75 132 -162 263 -175 263 -5 0 -9 9 -9 20 0 16 -7 20 -34 20 -19 0 -37 -6 -39 -12 -4 -10 -8 -9 -16 2 -8 11 -7 16 4 18 16 4 22 82 8 82 -5 0 -16 18 -27 39 -26 56 -263 334 -412 487 -203 206 -378 358 -574 498 -186 133 -367 246 -395 246 -8 0 -26 11 -40 25 -29 26 -88 50 -149 60 -25 4 -40 13 -43 24 -9 36 -288 155 -473 202 -25 6 -52 15 -61 19 -9 5 -42 11 -75 15 -32 4 -61 11 -64 15 -8 12 -257 63 -330 68 -36 2 -67 7 -70 11 -3 5 -53 11 -112 15 -85 5 -108 4 -108 -6 0 -9 -3 -8 -10 2 -8 13 -48 15 -263 14 -144 0 -278 -5 -312 -12 -33 -6 -105 -16 -160 -22 -97 -11 -148 -21 -325 -62 -126 -29 -317 -83 -365 -103 -16 -7 -64 -25 -105 -40 -99 -37 -240 -104 -240 -116 0 -5 -8 -9 -18 -9 -10 0 -37 -9 -60 -20 -22 -11 -46 -20 -52 -20 -5 0 -18 -4 -28 -9 -35 -20 -422 -191 -542 -241 -69 -29 -145 -61 -170 -73 -51 -23 -191 -71 -265 -92 -27 -7 -103 -30 -168 -49 -139 -42 -431 -102 -572 -117 -55 -7 -226 -15 -380 -18 -154 -3 -285 -9 -292 -14 -6 -4 -13 -2 -15 5 -3 8 -32 13 -79 16 -41 2 -83 7 -94 12 -11 5 -67 14 -125 20 -58 7 -109 15 -115 20 -10 8 -61 17 -152 26 -29 3 -53 10 -53 15 0 5 -13 9 -29 9 -34 0 -92 19 -106 35 -5 6 -44 24 -85 40 -41 15 -111 46 -155 67 -44 21 -86 38 -93 38 -7 0 -20 7 -28 15 -9 8 -24 15 -35 15 -10 0 -19 4 -19 9 0 5 -26 24 -57 42 -86 48 -227 144 -320 217 -46 36 -83 66 -83 67 0 1 31 -9 68 -21 110 -37 264 -74 309 -74 23 0 45 -4 48 -10 3 -5 18 -10 33 -10 15 0 59 -7 97 -15 112 -23 382 -37 575 -30 498 18 920 103 1385 277 289 109 444 179 910 413 651 327 873 418 1249 510 254 62 399 85 681 108 98 8 446 6 562 -3z m123 -1087 c105 -34 297 -130 415 -206 l99 -65 -39 -7 c-77 -13 -170 -44 -215 -73 -100 -65 -186 -171 -225 -277 -10 -27 -20 -52 -21 -54 -2 -2 -32 22 -66 54 -161 150 -364 294 -573 407 -120 65 -154 82 -295 144 -41 19 -72 34 -68 34 4 0 69 11 145 24 226 39 438 55 638 48 102 -3 146 -9 205 -29z m1034 -263 c25 -11 61 -20 80 -20 28 0 36 -4 36 -17 0 -10 14 -25 30 -33 62 -31 200 -110 281 -161 79 -50 361 -255 404 -295 11 -11 79 -71 150 -135 173 -155 429 -429 408 -436 -5 -2 -48 4 -94 12 -46 9 -113 20 -149 25 -36 5 -101 14 -145 20 -44 6 -109 14 -145 17 -48 4 -69 10 -82 25 -10 12 -18 25 -18 30 0 9 -108 176 -127 196 -6 6 -16 12 -22 12 -6 0 -11 11 -11 25 0 14 -4 25 -10 25 -5 0 -10 6 -10 14 0 8 -11 23 -25 34 -14 11 -25 23 -25 28 0 4 -10 23 -22 41 -16 23 -31 33 -49 33 -22 0 -27 5 -32 35 -8 47 -75 132 -227 286 -107 108 -131 128 -160 131 -30 3 -35 7 -38 31 -2 19 -20 45 -50 73 -51 48 -45 49 52 4z m-2101 -49 c224 -96 351 -168 573 -325 113 -81 315 -251 313 -265 0 -9 -146 -111 -157 -111 -5 0 -24 16 -43 35 -25 26 -43 35 -66 35 -29 0 -33 3 -34 28 0 21 -20 44 -91 107 -50 44 -116 103 -147 131 -144 132 -212 184 -242 184 -24 0 -29 4 -29 24 0 23 -21 47 -145 159 -22 20 -36 37 -32 37 4 0 49 -18 100 -39z m-208 -266 c447 -390 768 -668 831 -722 102 -87 93 -90 406 143 145 108 272 203 283 210 15 11 21 31 26 93 9 101 36 157 112 227 46 43 72 58 127 75 59 18 77 19 120 10 183 -39 299 -200 285 -396 l-6 -80 207 -220 c336 -358 516 -547 560 -590 23 -22 58 -60 79 -85 21 -25 92 -103 159 -174 238 -255 282 -302 346 -372 l65 -71 100 -5 c120 -5 183 -32 257 -110 121 -128 118 -291 -9 -428 -30 -33 -61 -60 -69 -60 -8 0 -14 -4 -14 -9 0 -10 -89 -41 -119 -41 -12 0 -21 -6 -22 -12 0 -10 -2 -10 -6 0 -2 6 -18 12 -34 12 -16 0 -29 5 -29 10 0 6 -7 10 -15 10 -25 0 -117 63 -152 104 -67 76 -78 109 -76 230 l2 108 -106 114 c-59 63 -113 114 -120 114 -8 0 -18 11 -23 25 -5 14 -67 85 -136 158 -166 172 -203 207 -223 207 -24 0 -41 20 -41 47 0 15 -71 96 -237 270 -301 313 -413 431 -492 515 l-63 67 -92 -1 c-64 -1 -102 4 -128 16 -73 31 -83 27 -260 -116 -90 -72 -250 -201 -356 -286 l-193 -154 -127 103 c-148 120 -655 553 -921 787 -157 138 -190 162 -217 162 -31 0 -216 -78 -299 -125 -22 -13 -59 -29 -82 -36 -24 -7 -43 -16 -43 -20 0 -4 -15 -11 -32 -14 -18 -4 -44 -13 -58 -20 -37 -19 -69 -32 -130 -55 -30 -11 -64 -25 -75 -30 -11 -5 -101 -36 -200 -69 -217 -73 -467 -137 -567 -146 -40 -4 -87 -11 -103 -16 -40 -12 -456 -12 -565 0 -75 9 -135 19 -404 71 -33 6 -69 18 -80 26 -11 8 -42 14 -68 14 -32 0 -48 4 -48 13 0 6 -48 32 -105 57 -58 25 -101 46 -96 48 6 2 41 -1 79 -7 37 -6 166 -16 285 -22 576 -31 1147 64 1717 286 129 50 450 187 775 329 121 53 152 63 164 53 8 -7 123 -106 256 -222z m2555 -410 c10 -12 10 -15 -4 -15 -9 0 -16 7 -16 15 0 8 2 15 4 15 2 0 9 -7 16 -15z m-2866 -110 c69 -35 201 -139 462 -365 105 -91 232 -200 283 -243 51 -43 90 -84 87 -90 -2 -7 -34 -75 -69 -152 -224 -486 -389 -1137 -415 -1635 -27 -522 23 -980 150 -1384 l31 -99 -61 -58 c-98 -92 -238 -196 -362 -269 -161 -94 -269 -150 -291 -150 -11 0 -19 -4 -19 -10 0 -5 -8 -10 -19 -10 -10 0 -56 -13 -102 -30 -46 -16 -89 -30 -95 -30 -7 0 -13 43 -18 118 -4 64 -11 173 -16 242 -18 220 -24 896 -11 1170 34 721 115 1423 261 2235 70 393 96 545 116 678 10 64 21 116 24 115 3 -2 32 -16 64 -33z m-371 -142 c-7 -54 -18 -120 -23 -148 -35 -169 -64 -321 -80 -425 -5 -30 -23 -136 -40 -235 -142 -832 -230 -1806 -230 -2545 0 -293 28 -940 45 -1046 5 -31 4 -32 -42 -39 -77 -12 -293 -7 -399 10 -55 9 -133 21 -174 27 -41 5 -81 14 -89 18 -15 8 -37 66 -127 340 -32 96 -62 177 -66 178 -4 2 -8 16 -8 31 0 15 -8 61 -19 102 -59 234 -103 464 -123 649 -5 52 -14 104 -18 115 -14 34 -32 557 -25 728 7 169 38 518 55 622 67 400 158 753 265 1030 78 202 100 256 126 312 32 70 9 59 234 113 166 39 427 126 608 200 78 33 142 59 143 59 0 1 -6 -43 -13 -96z m-1339 -421 c-163 -435 -264 -875 -320 -1397 -32 -297 -29 -929 6 -1215 5 -41 14 -118 20 -170 30 -250 123 -674 200 -913 16 -50 27 -93 25 -95 -5 -5 -167 80 -185 98 -8 8 -59 48 -113 89 -125 94 -295 247 -330 298 -37 54 -95 289 -137 563 -98 633 -85 1211 41 1804 66 315 170 636 301 936 28 63 56 129 63 145 l13 30 239 -3 239 -3 -62 -167z m3931 113 c28 -30 57 -55 63 -55 6 0 14 -11 18 -25 3 -14 19 -36 34 -48 15 -13 49 -48 75 -78 27 -30 125 -135 219 -233 94 -99 189 -199 212 -223 22 -24 48 -43 57 -43 10 0 17 -8 17 -18 0 -11 33 -54 73 -97 39 -43 77 -85 83 -94 11 -15 -20 -16 -350 -18 -198 -1 -424 -6 -501 -12 -296 -23 -503 -43 -635 -61 -41 -6 -104 -15 -140 -20 -181 -25 -483 -76 -540 -90 -68 -17 -110 -21 -110 -10 0 27 115 351 170 480 87 204 98 223 118 215 100 -43 119 -47 197 -43 97 4 124 17 231 106 45 37 157 130 250 207 268 223 256 215 337 215 l70 0 52 -55z m1419 -26 c169 -24 507 -91 599 -119 37 -11 67 -27 67 -34 0 -7 9 -21 19 -33 10 -11 26 -33 35 -49 9 -16 21 -36 26 -44 22 -34 114 -200 146 -262 19 -38 41 -68 49 -68 10 0 15 -11 15 -35 0 -36 45 -135 61 -135 5 0 9 -13 9 -28 0 -15 18 -77 40 -138 22 -60 42 -121 45 -135 l6 -26 -45 10 c-26 6 -46 14 -46 19 0 4 -15 8 -33 8 -30 0 -35 5 -60 56 -15 31 -36 58 -46 61 -11 3 -21 17 -25 34 -3 17 -12 29 -21 29 -8 0 -15 5 -15 11 0 13 -61 79 -74 79 -5 0 -24 12 -43 26 -19 14 -51 30 -71 35 -20 6 -46 14 -57 19 -11 4 -54 13 -95 19 -74 11 -76 12 -135 73 -61 62 -92 77 -162 78 -21 0 -33 -5 -33 -14 0 -9 -8 -12 -25 -8 -43 8 -26 39 25 44 31 3 35 6 38 36 3 27 -4 41 -41 80 -24 26 -84 90 -132 142 -49 52 -95 96 -102 98 -7 2 -13 8 -13 13 0 5 -11 9 -25 9 -21 0 -25 5 -25 30 0 17 -3 30 -8 30 -4 0 -12 10 -17 23 -6 12 -20 23 -32 25 -13 2 -23 10 -23 19 0 9 -8 25 -17 36 -18 19 -17 19 42 12 33 -4 122 -16 199 -26z m-6200 -231 c-106 -264 -217 -707 -263 -1048 -42 -302 -46 -370 -46 -777 0 -221 -1 -401 -1 -400 -12 14 -56 303 -79 527 -48 451 16 942 203 1565 3 11 12 27 20 35 36 36 178 159 184 160 3 0 -5 -28 -18 -62z m5847 -954 c130 -16 142 -27 151 -138 13 -172 69 -290 191 -402 113 -103 244 -154 402 -154 290 0 537 194 587 462 14 77 2 75 143 29 l80 -26 12 -80 c27 -175 15 -517 -28 -766 l-12 -67 -61 -15 c-157 -40 -302 -69 -431 -87 -38 -5 -119 -16 -180 -25 -60 -8 -182 -20 -270 -25 -88 -6 -205 -14 -260 -19 -100 -7 -912 -5 -1035 4 -36 2 -123 7 -195 10 -71 4 -146 10 -165 16 -19 5 -64 9 -100 10 -36 0 -92 5 -125 10 -33 6 -94 14 -135 19 -41 5 -122 15 -180 24 -58 8 -145 20 -193 27 -48 7 -90 16 -93 20 -3 5 -27 9 -54 9 -27 0 -52 5 -55 10 -3 6 -25 10 -49 10 -23 0 -46 4 -52 9 -11 10 -116 31 -156 31 -15 0 -28 5 -28 10 0 6 -16 10 -36 10 -41 0 -125 19 -138 31 -6 5 -24 9 -40 9 -17 0 -40 7 -50 15 -11 8 -30 15 -41 15 -12 0 -36 7 -54 16 l-32 16 6 76 c20 261 74 591 107 660 15 31 19 32 268 82 425 84 883 142 1340 169 201 12 852 9 961 -5z m-2311 -1364 c386 -86 884 -158 1300 -189 496 -37 1228 -40 1610 -7 225 20 574 67 740 100 63 12 116 19 118 15 4 -9 -32 -149 -58 -223 -11 -33 -20 -69 -20 -82 0 -12 -3 -24 -7 -26 -5 -1 -28 -52 -52 -113 -24 -60 -75 -175 -113 -255 -39 -80 -81 -169 -95 -198 -16 -33 -33 -54 -47 -57 -120 -28 -459 -89 -611 -110 -104 -14 -221 -30 -260 -35 -38 -6 -182 -13 -320 -16 -137 -4 -251 -11 -253 -15 -5 -12 -172 -12 -172 0 0 4 -64 11 -142 15 -122 6 -306 20 -528 40 -30 3 -80 10 -110 15 -30 6 -99 15 -152 21 -101 10 -439 78 -448 90 -7 9 -170 50 -197 50 -13 0 -23 5 -23 10 0 6 -22 10 -50 10 -35 0 -50 4 -50 13 0 14 -91 47 -128 47 -12 0 -22 5 -22 10 0 6 -17 10 -39 10 -28 0 -40 5 -44 18 -3 9 -23 67 -45 127 -73 201 -142 574 -142 767 l0 57 93 -25 c50 -14 171 -43 267 -64z m-40 -1195 c296 -94 533 -150 799 -190 58 -9 107 -17 109 -20 13 -13 -202 -260 -320 -367 -210 -189 -389 -311 -708 -481 -47 -25 -96 -48 -110 -52 -14 -3 -38 -12 -55 -20 -16 -7 -41 -18 -55 -24 -46 -20 -314 -102 -380 -117 -35 -7 -78 -18 -95 -24 -71 -22 -269 -51 -402 -57 -79 -3 -143 -10 -143 -15 0 -4 -20 -8 -45 -8 -25 0 -45 5 -45 10 0 6 -34 10 -82 10 -46 0 -126 7 -178 15 -52 8 -116 15 -142 15 -56 0 -128 35 -296 146 -286 188 -551 422 -791 699 -85 97 -221 271 -221 282 0 2 21 -11 48 -30 160 -117 382 -231 597 -305 328 -114 759 -135 1138 -57 414 85 766 272 1124 597 29 26 59 48 66 48 8 0 92 -25 187 -55z m3208 -187 c-12 -18 -64 -88 -115 -156 -51 -68 -93 -127 -93 -133 0 -5 -5 -9 -11 -9 -14 0 -48 -41 -49 -57 0 -7 -4 -13 -9 -13 -5 0 -60 -52 -123 -116 -238 -244 -503 -457 -780 -627 -99 -61 -355 -192 -463 -237 -55 -23 -122 -52 -150 -65 -27 -13 -60 -26 -72 -30 -13 -3 -23 -11 -23 -16 0 -5 -9 -9 -20 -9 -20 0 -20 1 4 25 14 14 30 25 36 25 5 0 10 5 10 10 0 6 9 10 20 10 11 0 20 5 20 10 0 6 6 10 13 10 7 0 17 10 22 22 6 12 22 25 37 29 34 9 64 30 211 147 114 91 355 321 409 390 14 18 44 52 67 77 22 24 41 47 41 50 0 4 11 16 25 27 17 13 25 29 25 49 0 24 6 32 30 40 17 6 30 17 30 25 0 8 4 14 8 14 8 0 172 242 172 253 0 2 20 41 45 86 25 45 45 88 45 95 0 10 17 16 53 19 148 13 278 31 422 56 88 16 166 29 173 30 9 1 5 -10 -10 -31z m-1548 -79 c151 -6 344 -9 428 -6 l153 6 -37 -67 c-21 -37 -57 -97 -81 -134 -24 -36 -43 -71 -43 -77 0 -6 -4 -11 -10 -11 -5 0 -10 -6 -10 -13 0 -7 -9 -18 -21 -25 -11 -7 -27 -29 -35 -48 -8 -18 -19 -34 -24 -34 -6 0 -27 -19 -47 -42 -153 -175 -394 -397 -582 -537 -120 -89 -151 -115 -151 -128 0 -8 -13 -13 -30 -13 -20 0 -30 -5 -30 -15 0 -9 -9 -15 -25 -15 -16 0 -25 -6 -25 -15 0 -9 -9 -15 -25 -15 -16 0 -25 -6 -25 -15 0 -9 -9 -15 -23 -15 -14 0 -26 -9 -32 -22 -7 -16 -22 -25 -50 -29 -22 -3 -112 -41 -200 -84 -88 -42 -180 -84 -205 -92 -25 -9 -47 -19 -50 -23 -3 -3 -65 -26 -138 -49 -73 -24 -145 -49 -160 -57 -48 -25 -372 -16 -617 16 -38 6 -95 13 -125 16 -30 3 -60 10 -65 14 -6 5 -39 12 -75 16 -36 3 -70 10 -75 15 -6 4 -35 11 -65 15 -29 4 -65 13 -79 20 -14 8 -40 14 -58 14 -17 0 -33 3 -35 8 -4 9 -108 42 -136 42 -11 0 -22 4 -24 8 -1 5 -21 15 -43 24 l-40 16 100 6 c55 4 125 11 155 17 30 6 89 16 130 24 41 8 107 19 145 25 270 41 724 215 1015 389 101 61 214 137 242 163 7 7 32 26 56 42 23 16 42 32 42 37 0 4 9 11 21 14 11 4 95 82 187 173 146 146 241 258 371 438 l34 47 71 -7 c39 -3 195 -11 346 -17z"></path>
        </g>
    </g>
    <g id="l5Dmib62PzWVtH7STd4wlcL" fill="rgb(233,244,242)" style="transform: none;">
        <g style="transform: none;">
            <path id="p12ENlbxbE"
                d="M10298 14452 c-10 -2 -18 -10 -18 -18 0 -11 15 -14 65 -14 58 0 65 2 65 19 0 17 -7 20 -47 18 -27 0 -56 -3 -65 -5z"></path>
            <path id="pbiGCJuoT"
                d="M10850 14439 c0 -16 8 -19 55 -19 42 0 55 3 55 15 0 8 -6 15 -12 16 -7 0 -32 2 -55 3 -36 3 -43 1 -43 -15z"></path>
            <path id="pv1XWaoLS"
                d="M10177 14442 c-9 -2 -17 -10 -17 -18 0 -10 13 -14 50 -14 43 0 50 3 50 20 0 16 -6 20 -33 17 -18 -1 -41 -3 -50 -5z"></path>
            <path id="piq3AfQkF"
                d="M12970 13641 c0 -24 4 -31 20 -31 11 0 20 -7 20 -15 0 -9 8 -19 18 -22 9 -4 25 -15 34 -26 10 -12 27 -17 44 -15 l27 3 -35 35 c-19 19 -56 50 -82 68 l-46 33 0 -30z"></path>
            <path id="p9xsA4fVu"
                d="M10340 13609 c-187 -19 -510 -83 -510 -100 0 -5 -11 -9 -24 -9 -37 0 -126 -22 -126 -32 0 -4 -13 -8 -30 -8 -23 0 -30 -5 -30 -19 0 -24 31 -33 49 -14 8 8 24 13 37 10 13 -2 24 0 24 5 0 6 7 8 15 4 8 -3 15 0 15 5 0 6 8 9 18 7 10 -3 23 1 30 9 15 15 52 18 52 3 0 -5 5 -10 10 -10 6 0 10 7 10 15 0 18 26 20 33 3 3 -8 6 -5 6 6 1 12 6 16 16 12 8 -3 15 0 15 5 0 7 11 9 25 7 14 -3 25 -1 25 5 0 5 11 7 25 5 14 -3 25 -1 25 5 0 5 11 7 25 5 14 -3 25 -2 25 2 0 4 9 10 20 13 11 3 20 0 20 -6 0 -7 4 -7 9 2 6 9 19 12 40 8 20 -4 31 -2 31 5 0 7 13 9 35 5 22 -4 35 -2 35 5 0 7 18 9 50 6 27 -3 51 -1 52 3 4 12 47 14 76 5 13 -5 22 -3 22 3 0 6 7 11 15 11 8 0 15 7 15 15 0 17 -50 18 -180 4z"></path>
            <path id="poQirWOd1"
                d="M10900 13605 c0 -8 7 -15 15 -15 8 0 15 -4 15 -10 0 -5 16 -10 35 -10 19 0 35 4 35 10 0 14 63 -1 76 -19 10 -13 14 -13 37 2 34 22 44 21 50 -4 5 -17 9 -19 26 -10 25 14 61 14 61 1 0 -5 7 -10 15 -10 8 0 15 4 15 9 0 5 9 7 20 4 11 -3 20 -10 20 -15 0 -6 11 -7 25 -4 16 4 25 2 25 -5 0 -7 9 -9 25 -5 16 4 25 2 25 -5 0 -7 9 -9 25 -5 16 4 25 2 25 -5 0 -7 9 -9 25 -5 16 4 25 2 25 -5 0 -6 9 -9 20 -6 10 3 21 0 22 -5 2 -6 18 -11 36 -12 18 0 32 -5 32 -9 0 -5 14 -6 30 -2 23 5 32 3 36 -10 5 -11 14 -15 30 -11 14 4 29 0 38 -9 19 -20 66 -10 66 14 0 18 -66 41 -115 41 -14 0 -25 4 -25 9 0 28 -549 121 -712 121 -63 0 -78 -3 -78 -15z"></path>
            <path id="p1HH5JPbBp"
                d="M13150 13493 c0 -38 16 -53 58 -53 l34 0 -28 28 c-16 15 -37 34 -46 41 -16 12 -18 10 -18 -16z"></path>
            <path id="py8EyIM29"
                d="M9510 13401 c0 -26 30 -31 52 -9 25 25 23 28 -17 28 -28 0 -35 -4 -35 -19z"></path>
            <path id="pp7e9oLJk"
                d="M13290 13361 c0 -32 27 -61 58 -61 17 0 22 -6 22 -25 0 -14 7 -28 15 -31 8 -4 15 -12 15 -20 0 -9 11 -14 31 -14 l30 0 -20 29 c-12 16 -21 33 -21 39 0 5 -9 12 -20 15 -11 3 -27 18 -37 34 -9 16 -29 37 -45 46 -28 16 -28 16 -28 -12z"></path>
            <path id="pvhrFz2XB"
                d="M4889 13318 c20 -21 29 -39 25 -50 -3 -12 0 -18 10 -18 9 0 16 5 16 11 0 8 5 8 15 -1 12 -10 15 -10 15 2 0 12 11 14 51 10 41 -4 51 -2 47 9 -5 16 -139 66 -181 68 l-28 1 30 -32z"></path>
            <path id="p6SrJtui7"
                d="M9155 13269 c-49 -22 -91 -44 -93 -50 -2 -5 -12 -9 -23 -9 -13 0 -19 -7 -19 -24 0 -27 27 -31 46 -7 6 8 18 11 28 8 9 -4 16 -2 16 4 0 6 5 7 10 4 6 -3 10 -2 10 4 0 6 6 8 14 5 7 -3 16 2 20 11 4 11 12 14 26 10 13 -4 22 -1 26 9 3 9 10 13 15 10 5 -3 9 -1 9 5 0 6 16 18 35 27 19 9 35 20 35 25 0 20 -71 6 -155 -32z"></path>
            <path id="pllTipRan"
                d="M12160 13302 c0 -5 16 -17 35 -28 19 -10 35 -24 35 -31 0 -14 67 -46 84 -40 6 2 21 0 34 -4 19 -7 22 -5 22 14 0 18 -15 30 -75 60 -70 34 -135 48 -135 29z"></path>
            <path id="p186fmM0ez"
                d="M4862 13243 c4 -22 38 -30 38 -10 0 8 -7 18 -16 21 -23 9 -26 8 -22 -11z"></path>
            <path id="pmeRSfHoJ"
                d="M5370 13191 c0 -16 12 -20 75 -30 100 -15 125 -14 125 3 0 14 -84 41 -100 31 -5 -3 -11 -1 -15 5 -3 5 -24 10 -46 10 -31 0 -39 -4 -39 -19z"></path>
            <path id="p1DHTFfSoD"
                d="M12380 13192 c0 -4 14 -16 30 -25 17 -10 30 -24 30 -32 0 -10 10 -14 30 -12 24 2 30 7 30 24 0 16 -8 25 -25 29 -14 3 -25 10 -25 15 0 5 -16 9 -35 9 -19 0 -35 -4 -35 -8z"></path>
            <path id="p8j9lN40C"
                d="M6198 13153 c-10 -2 -18 -11 -18 -19 0 -11 16 -14 71 -14 61 0 70 2 67 17 -2 13 -15 17 -53 19 -28 1 -58 0 -67 -3z"></path>
            <path id="pXVMbHX4x"
                d="M12200 13115 c0 -24 -11 -29 -57 -28 -7 1 -13 -9 -13 -22 0 -20 33 -45 61 -45 6 0 17 -7 25 -15 9 -8 32 -15 52 -15 l37 1 -27 23 c-15 13 -24 26 -21 29 3 3 -4 3 -16 0 -25 -6 -28 13 -5 38 12 14 13 22 4 38 -15 29 -40 27 -40 -4z"></path>
            <path id="psfUvRDMT"
                d="M13530 13097 c0 -40 12 -51 50 -45 20 3 20 5 -14 43 l-35 40 -1 -38z"></path>
            <path id="p1A4x7sva"
                d="M12280 13060 c-14 -27 -10 -32 12 -16 10 8 14 17 8 25 -6 11 -11 8 -20 -9z"></path>
            <path id="p18SEfem7u"
                d="M12008 13020 c42 -38 35 -79 -11 -71 -21 3 18 -42 44 -51 16 -5 26 -14 23 -19 -3 -5 7 -20 22 -34 25 -23 29 -24 37 -9 7 13 5 21 -9 31 -17 13 -17 14 10 7 26 -6 28 -5 23 12 -6 15 -2 13 16 -6 12 -14 30 -31 40 -39 15 -12 17 -10 17 18 0 24 -4 31 -19 31 -10 0 -21 9 -24 20 -3 12 -14 20 -26 20 -14 0 -21 6 -21 18 0 10 -20 37 -44 60 -34 32 -52 42 -77 42 l-33 0 32 -30z m79 -98 c21 3 43 -9 43 -23 0 -12 -51 -11 -70 1 -8 5 -11 10 -6 10 5 0 2 8 -5 18 -13 15 -12 16 3 4 9 -8 25 -12 35 -10z"></path>
            <path id="ph3y8T4dK"
                d="M13610 13001 c0 -47 26 -81 62 -81 l29 0 -30 43 c-16 24 -36 49 -45 56 -14 12 -16 10 -16 -18z"></path>
            <path id="p1C3QCvbTD"
                d="M10233 12990 c-26 -10 -31 -27 -8 -27 8 0 12 4 9 9 -3 4 7 8 21 8 15 0 24 4 20 10 -7 12 -13 12 -42 0z"></path>
            <path id="pGdWkLk9j"
                d="M10160 12958 c0 -15 9 -27 27 -35 30 -14 83 -17 83 -5 0 6 -37 34 -50 38 -7 1 -43 16 -52 21 -5 2 -8 -6 -8 -19z"></path>
            <path id="priPBKpL5"
                d="M5415 12937 c11 -9 15 -19 10 -27 -6 -10 -2 -11 16 -7 28 7 55 -6 45 -22 -4 -6 4 -9 24 -8 24 2 30 7 30 25 0 18 -6 22 -30 22 -20 0 -30 5 -30 15 0 11 -11 15 -42 15 -38 0 -40 -1 -23 -13z"></path>
            <path id="pCgi7fFof"
                d="M9988 12889 c34 -31 41 -49 20 -49 -7 -1 -2 -10 11 -21 14 -11 33 -18 42 -16 10 3 27 -2 38 -10 20 -13 21 -12 21 16 0 16 -6 34 -14 38 -8 4 -30 23 -50 41 -25 22 -45 32 -68 32 l-33 0 33 -31z"></path>
            <path id="p1BJgJ1r2j"
                d="M8185 12852 c-71 -25 -131 -50 -133 -54 -2 -4 -19 -8 -38 -8 -19 0 -34 -4 -34 -10 0 -5 -12 -10 -27 -10 -16 0 -53 -7 -83 -15 -219 -60 -429 -99 -617 -117 -105 -10 -123 -14 -123 -29 0 -12 11 -18 38 -21 20 -3 39 -2 42 3 7 10 72 13 94 4 11 -5 21 -3 26 5 5 8 20 11 39 8 17 -2 31 0 31 5 0 5 15 7 35 4 21 -4 35 -2 35 5 0 6 11 8 25 6 14 -3 25 -1 25 5 0 5 11 7 25 5 14 -3 25 -1 25 5 0 5 14 7 30 5 17 -3 30 0 30 5 0 5 9 7 20 4 11 -3 20 -1 20 5 0 6 11 8 25 6 14 -3 25 -1 25 4 0 6 11 7 25 4 16 -4 25 -2 25 5 0 6 9 9 20 6 11 -3 20 -1 20 5 0 5 9 6 20 3 12 -4 20 -2 20 5 0 7 7 10 15 6 8 -3 15 0 15 5 0 6 9 9 20 6 11 -3 20 -1 20 5 0 6 6 8 14 5 8 -3 16 -1 18 4 2 5 17 11 33 12 17 1 36 8 44 15 8 8 25 12 37 9 13 -2 25 0 26 5 2 6 16 11 31 11 15 1 27 6 27 11 0 4 7 6 15 2 8 -3 15 -1 15 5 0 6 6 9 14 6 8 -3 16 -1 18 4 2 6 16 12 31 12 15 1 27 6 27 11 0 4 7 6 15 2 8 -3 15 -1 15 5 0 6 5 7 10 4 6 -3 10 -1 10 5 0 7 5 10 12 8 11 -4 48 25 48 37 0 16 -81 -2 -195 -43z"></path>
            <path id="ptr130Zve"
                d="M13752 12805 c2 -33 7 -41 26 -43 16 -2 22 -10 22 -27 0 -36 10 -55 31 -55 14 0 19 -7 19 -30 0 -25 4 -30 24 -30 20 0 23 4 18 22 -3 11 -13 29 -24 40 -10 10 -18 24 -18 31 0 8 -11 24 -25 37 -14 13 -25 29 -25 35 0 6 -12 22 -26 36 l-25 24 3 -40z"></path>
            <path id="pmZTABKis"
                d="M9982 12803 c2 -10 11 -19 21 -21 12 -2 15 1 11 12 -8 22 -36 30 -32 9z"></path>
            <path id="p1EzEUu6yf"
                d="M5810 12765 c0 -8 7 -15 15 -15 9 0 18 -6 21 -14 3 -8 25 -19 50 -26 24 -7 44 -17 44 -22 0 -5 9 -4 19 2 14 7 20 7 23 -2 2 -6 27 -12 56 -12 33 -1 56 -6 61 -15 5 -8 16 -11 25 -8 9 4 16 2 16 -3 0 -15 30 -12 30 3 1 7 6 5 14 -6 10 -13 21 -16 40 -11 17 4 26 2 26 -6 0 -8 9 -10 25 -6 14 4 25 2 25 -4 0 -5 7 -10 15 -10 8 0 15 4 15 10 0 11 32 1 42 -14 5 -8 14 -7 28 2 17 10 21 10 26 -3 5 -13 16 -14 50 -9 30 4 44 3 44 -5 0 -6 7 -11 15 -11 8 0 15 5 15 11 0 13 39 2 58 -17 17 -18 26 -18 62 1 17 9 32 15 35 15 28 -1 35 2 35 15 0 12 -14 15 -63 15 -160 0 -564 75 -754 141 -69 23 -113 25 -113 4z"></path>
            <path id="psaZhErpW"
                d="M10736 12641 c-15 -17 -22 -18 -33 -9 -12 10 -14 6 -11 -23 3 -32 5 -34 43 -37 l40 -3 -22 22 c-20 20 -20 24 -6 34 9 7 14 17 12 24 -3 9 -11 6 -23 -8z"></path>
            <path id="p1RbtMG1z"
                d="M6980 12605 c0 -14 11 -18 53 -18 9 0 17 -4 17 -8 0 -5 9 -9 20 -9 11 0 20 5 20 10 0 6 7 10 15 10 8 0 15 7 15 15 0 12 -14 15 -70 15 -56 0 -70 -3 -70 -15z"></path>
            <path id="pFVhizfke"
                d="M12435 12584 c22 -29 25 -38 14 -45 -11 -7 -9 -9 6 -9 15 0 17 -2 6 -9 -19 -12 -9 -33 24 -51 23 -12 29 -12 33 -2 3 10 8 8 18 -5 12 -16 13 -14 14 19 0 28 -8 45 -34 73 -19 20 -37 42 -40 50 -3 9 -19 15 -37 15 l-31 0 27 -36z"></path>
            <path id="pQJHfWe4I"
                d="M13940 12507 c0 -32 3 -37 24 -37 19 0 23 4 19 19 -3 11 -14 27 -24 37 -18 17 -19 16 -19 -19z"></path>
            <path id="pg7TpmEcF"
                d="M10503 12435 c20 -18 26 -31 22 -45 -8 -26 -40 -25 -59 2 -9 12 -18 20 -20 17 -3 -3 18 -31 48 -64 40 -44 57 -57 70 -52 11 5 16 14 14 25 -3 10 1 23 8 30 10 9 16 8 26 -6 7 -9 21 -23 31 -31 15 -12 17 -11 17 18 0 24 -4 31 -20 31 -11 0 -20 6 -20 13 0 8 -18 30 -40 50 -29 27 -48 37 -72 37 l-33 -1 28 -24z"></path>
            <path id="pLRlK5iQO"
                d="M12564 12423 c4 -9 1 -20 -6 -25 -9 -5 -7 -8 8 -8 22 0 54 -29 54 -48 0 -7 -4 -12 -10 -12 -5 0 -10 -4 -10 -10 0 -14 27 -12 33 3 4 7 6 6 6 -5 1 -9 -4 -18 -11 -20 -19 -7 3 -30 23 -25 11 3 19 1 19 -4 0 -5 -4 -9 -10 -9 -5 0 -10 -4 -10 -10 0 -5 7 -10 15 -10 8 0 15 6 15 13 0 6 9 -2 19 -19 29 -48 41 -51 41 -10 0 25 -4 36 -15 36 -8 0 -15 9 -15 20 0 11 -4 20 -10 20 -5 0 -10 7 -10 15 0 9 -7 18 -15 21 -8 4 -15 12 -15 20 0 8 -10 14 -25 14 -22 0 -25 4 -25 35 0 31 -3 35 -26 35 -20 0 -25 -4 -20 -17z"></path>
            <path id="ph6OipIs8"
                d="M9090 12290 c0 -5 -7 -10 -15 -10 -17 0 -20 -16 -5 -25 6 -4 8 -11 5 -16 -4 -5 0 -9 7 -9 7 -1 0 -7 -17 -15 l-30 -13 33 -1 c30 -1 32 -3 32 -36 0 -41 11 -45 30 -10 7 13 16 22 21 20 4 -3 5 4 2 15 -3 11 -9 17 -14 15 -4 -3 -6 3 -4 15 2 11 -1 22 -6 26 -6 3 -8 17 -5 30 5 19 2 24 -14 24 -11 0 -20 -4 -20 -10z"></path>
            <path id="pp8zD8S0K"
                d="M14070 12255 c0 -28 4 -35 20 -35 23 0 26 26 6 53 -20 25 -26 21 -26 -18z"></path>
            <path id="pd1B40hwo"
                d="M12250 12211 c0 -10 11 -26 25 -35 34 -22 38 -20 21 13 -19 35 -46 48 -46 22z"></path>
            <path id="pn5yopigD"
                d="M14110 12160 c0 -29 4 -40 15 -40 10 0 15 -10 15 -30 0 -20 5 -30 15 -30 11 0 15 -11 15 -40 0 -33 4 -40 19 -40 12 0 20 9 23 25 3 16 1 25 -7 25 -7 0 -16 12 -19 28 -4 15 -13 41 -20 57 -8 17 -19 42 -25 58 -15 39 -31 33 -31 -13z"></path>
            <path id="pG8dLpzD6"
                d="M12801 12070 c6 -16 15 -30 20 -30 5 0 9 -7 9 -15 0 -12 8 -14 40 -9 27 4 40 3 40 -5 0 -14 37 -14 42 0 3 8 9 6 20 -5 13 -12 27 -14 62 -10 33 5 46 3 46 -6 0 -9 10 -10 35 -6 23 5 35 3 35 -4 0 -8 11 -9 30 -5 19 4 30 3 30 -4 0 -15 27 -14 32 0 3 8 9 6 20 -5 12 -11 26 -14 47 -10 21 5 31 3 31 -6 0 -8 8 -10 25 -6 16 4 25 2 25 -5 0 -7 11 -9 30 -5 19 3 30 1 30 -5 0 -6 9 -9 20 -6 10 3 20 1 22 -4 4 -12 68 0 68 12 0 5 -10 15 -22 22 -27 17 -357 69 -645 103 -30 4 -44 11 -48 25 -4 12 -15 19 -30 19 -22 0 -23 -2 -14 -30z"></path>
            <path id="pQeD96Np8"
                d="M9056 11954 c-10 -73 -8 -106 7 -102 16 6 36 64 36 111 1 30 -3 37 -18 37 -14 0 -20 -10 -25 -46z"></path>
            <path id="pE9xdsIRE"
                d="M13830 11932 c0 -4 8 -18 17 -32 12 -17 13 -25 5 -28 -21 -7 -13 -25 8 -19 11 3 20 1 20 -4 0 -8 -24 -13 -57 -12 -7 1 -13 -2 -13 -6 0 -8 70 -101 76 -101 9 0 49 26 56 35 4 6 8 2 8 -7 0 -10 -4 -18 -10 -18 -5 0 -10 -5 -10 -11 0 -5 8 -9 18 -7 11 2 30 -10 45 -27 l26 -30 1 38 c0 20 -4 37 -10 37 -5 0 -10 6 -10 14 0 8 -6 21 -13 28 -6 7 -30 39 -51 71 -22 31 -43 57 -48 57 -4 0 -8 7 -8 15 0 9 -9 15 -25 15 -14 0 -25 -3 -25 -8z"></path>
            <path id="pq6X8A8eA"
                d="M7228 11882 c-4 -12 -2 -24 2 -27 13 -8 18 8 10 29 -6 19 -7 19 -12 -2z"></path>
            <path id="pncAR7WQb"
                d="M11660 11831 c0 -35 26 -71 52 -71 12 0 18 -8 18 -21 0 -28 23 -49 54 -49 22 0 26 -4 26 -30 0 -33 15 -44 52 -38 21 3 19 7 -27 51 -27 26 -44 47 -37 47 10 0 10 5 2 20 -6 11 -18 20 -27 20 -9 0 -38 23 -64 51 l-49 50 0 -30z"></path>
            <path id="pM5fyJ8Ys"
                d="M12726 11822 c-3 -4 8 -13 25 -19 26 -10 29 -9 29 8 0 13 -7 19 -24 19 -14 0 -27 -4 -30 -8z"></path>
            <path id="p1TWPoqIK"
                d="M12832 11730 c11 -16 9 -22 -7 -34 -11 -9 -26 -16 -32 -16 -18 0 -16 -17 2 -24 15 -6 65 12 76 27 3 4 12 1 19 -7 10 -13 9 -17 -4 -22 -22 -8 -8 -27 15 -21 11 3 19 1 19 -4 0 -5 -4 -9 -10 -9 -5 0 -7 -7 -4 -15 4 -9 0 -15 -9 -15 -13 0 -14 -5 -5 -30 5 -17 7 -37 4 -45 -7 -19 3 -19 27 -1 17 13 17 15 2 23 -13 8 -14 11 -3 20 20 15 48 23 48 14 0 -5 -6 -12 -12 -15 -7 -4 -2 -4 11 -2 14 3 31 0 38 -6 10 -8 13 -4 13 20 0 22 -10 39 -40 66 -22 20 -40 40 -40 46 0 5 -9 10 -20 10 -13 0 -20 7 -20 18 0 26 -20 42 -52 42 -26 0 -27 -2 -16 -20z"></path>
            <path id="pvx0UCAGs"
                d="M13790 11593 c0 -41 9 -63 25 -63 8 0 15 -12 17 -27 2 -22 9 -29 30 -31 24 -3 27 0 20 15 -13 30 -46 83 -69 111 l-23 27 0 -32z"></path>
            <path id="pPnM5ajFK"
                d="M12730 11512 c0 -35 27 -62 64 -62 26 0 26 0 10 25 -9 14 -30 35 -45 46 l-29 20 0 -29z"></path>
            <path id="pCmaEQrkR"
                d="M7935 11491 c-8 -16 -18 -31 -22 -33 -5 -3 -3 -4 3 -2 7 1 10 -5 7 -17 -7 -26 23 -26 37 0 13 25 13 81 0 81 -5 0 -16 -13 -25 -29z"></path>
            <path id="pQpM5TMDK"
                d="M6723 11483 c-18 -17 -41 -34 -50 -37 -13 -5 -14 -9 -5 -15 16 -9 5 -41 -14 -41 -8 0 -14 -4 -14 -10 0 -5 5 -10 11 -10 6 0 9 -7 5 -15 -4 -11 1 -15 19 -15 21 0 25 5 25 30 0 17 5 30 10 30 6 0 10 5 10 11 0 6 9 18 21 28 14 11 20 25 17 45 l-3 29 -32 -30z"></path>
            <path id="pI58d1ReI"
                d="M14202 11338 c9 -24 8 -33 0 -36 -18 -6 -14 -22 6 -23 9 0 12 -3 5 -5 -7 -3 -21 0 -33 6 -16 9 -22 8 -27 -5 -5 -16 3 -35 49 -119 9 -17 17 -44 18 -59 0 -16 7 -30 16 -34 19 -7 36 15 28 39 -4 13 0 15 18 10 13 -3 29 -13 36 -21 11 -13 12 -7 9 43 -3 41 -9 61 -20 68 -10 5 -17 17 -17 26 0 9 -12 45 -26 80 -22 50 -31 62 -50 62 -21 0 -22 -2 -12 -32z m56 -122 c5 -6 13 -21 16 -33 6 -17 3 -23 -9 -23 -10 0 -13 -5 -9 -12 4 -7 3 -8 -4 -4 -17 10 -15 24 6 29 10 3 6 5 -10 6 -17 1 -28 7 -28 15 0 8 -3 21 -6 29 -4 12 0 14 15 10 11 -3 24 -10 29 -17z"></path>
            <path id="pWHh6buEY"
                d="M13221 11313 c8 -10 21 -23 29 -30 13 -10 13 -13 -4 -19 -10 -4 -31 -3 -46 3 -27 10 -28 10 -28 -31 -1 -22 -6 -42 -11 -44 -19 -6 -12 -27 14 -39 14 -6 25 -7 25 -3 0 5 16 4 35 -1 40 -11 59 -4 51 18 -5 11 -2 13 10 9 8 -3 24 -6 34 -6 11 0 28 -10 40 -22 l20 -22 0 35 c0 27 -10 44 -51 87 -28 28 -55 52 -60 52 -5 0 -9 7 -9 15 0 10 -10 15 -31 15 -29 0 -30 -2 -18 -17z"></path>
            <path id="p18RCBXRsz"
                d="M14380 11243 c0 -16 5 -74 12 -130 10 -87 15 -103 30 -103 15 0 17 8 12 75 -2 41 -9 97 -14 126 -6 28 -10 53 -10 55 0 2 -7 4 -15 4 -10 0 -15 -10 -15 -27z"></path>
            <path id="pOVleZRIu"
                d="M14020 11183 c0 -44 22 -93 42 -93 14 0 18 -8 18 -37 0 -57 30 -123 57 -123 16 0 20 5 16 20 -3 11 1 27 8 36 10 13 10 17 -1 24 -8 5 -17 7 -21 4 -4 -2 -20 21 -35 51 -28 54 -28 55 -9 69 16 12 18 18 9 33 -7 10 -20 17 -33 15 -12 -2 -24 3 -27 12 -10 25 -24 19 -24 -11z"></path>
            <path id="p12aQ0oLst"
                d="M13060 11161 c0 -26 4 -31 25 -31 35 0 32 18 -7 49 -16 12 -18 11 -18 -18z"></path>
            <path id="pubJH8xEf"
                d="M12310 11136 c0 -22 5 -36 13 -36 7 0 17 -10 22 -22 7 -16 20 -24 44 -26 27 -3 33 -1 25 10 -5 7 -9 28 -8 46 2 34 -21 46 -33 16 -5 -12 -11 -10 -34 16 l-29 31 0 -35z"></path>
            <path id="pcx4r7IzO"
                d="M14110 11071 c0 -5 7 -11 15 -15 9 -3 15 0 15 9 0 8 -7 15 -15 15 -8 0 -15 -4 -15 -9z"></path>
            <path id="p13er9sgZF"
                d="M13463 11045 c12 -24 37 -35 37 -15 0 5 7 7 15 4 10 -4 15 0 15 15 0 18 -6 21 -39 21 -38 0 -39 -1 -28 -25z"></path>
            <path id="pKQSEQxhU"
                d="M13540 11045 c0 -8 7 -15 15 -15 8 0 15 -5 15 -10 0 -7 13 -8 35 -4 26 5 36 2 41 -9 3 -9 18 -15 40 -15 41 0 118 -48 110 -69 -3 -7 1 -13 9 -13 8 0 15 6 15 12 0 7 10 2 23 -10 19 -20 20 -24 7 -33 -12 -9 -10 -10 7 -6 26 6 42 -11 23 -23 -7 -4 -9 -13 -6 -19 10 -15 36 -14 36 2 0 6 6 3 12 -7 8 -15 8 -21 0 -24 -16 -5 -5 -22 15 -22 9 0 25 -7 35 -17 17 -15 18 -14 18 18 0 24 -10 45 -33 72 -18 20 -38 37 -45 37 -7 0 -12 7 -12 15 0 9 -9 15 -25 15 -18 0 -25 5 -25 19 0 26 -51 61 -89 61 -20 0 -31 5 -31 14 0 17 -22 26 -66 26 -19 0 -34 5 -34 10 0 6 -20 10 -45 10 -33 0 -45 -4 -45 -15z"></path>
            <path id="pBkzGXcC9"
                d="M13790 10860 c0 -6 13 -19 30 -28 16 -9 30 -23 30 -29 0 -7 12 -13 27 -13 26 0 25 1 -17 40 -42 39 -70 51 -70 30z"></path>
            <path id="pG8jChsfM"
                d="M11780 10835 c0 -13 18 -20 43 -16 4 0 7 -3 7 -9 0 -5 7 -10 15 -10 8 0 15 5 15 10 0 6 7 10 15 10 8 0 15 7 15 15 0 12 -13 15 -55 15 -42 0 -55 -3 -55 -15z"></path>
            <path id="pZ3MDBg9F"
                d="M11610 10827 c0 -18 73 -44 78 -28 2 6 10 11 18 11 8 0 14 7 14 15 0 12 -13 15 -55 15 -38 0 -55 -4 -55 -13z"></path>
            <path id="p1AmuoKOE4"
                d="M11440 10811 c0 -14 9 -20 38 -23 20 -3 39 -1 40 4 2 4 10 8 18 8 8 0 14 7 14 15 0 12 -13 15 -55 15 -47 0 -55 -3 -55 -19z"></path>
            <path id="pzsDJ9jvD"
                d="M11350 10799 c0 -14 5 -19 14 -16 7 3 19 0 25 -6 8 -8 11 -8 11 1 0 7 7 12 15 12 8 0 15 7 15 15 0 11 -11 15 -40 15 -34 0 -40 -3 -40 -21z"></path>
            <path id="pSTy5LPAb"
                d="M11135 10795 c-55 -7 -147 -20 -205 -28 -58 -9 -131 -19 -162 -23 -46 -5 -58 -10 -58 -24 0 -12 10 -19 30 -22 17 -3 30 0 30 5 0 5 17 7 38 5 24 -4 42 -1 50 8 17 18 32 18 32 -1 0 -8 7 -15 15 -15 8 0 15 7 15 16 0 12 7 15 30 12 17 -3 30 -1 30 3 0 12 48 17 59 6 8 -8 11 -7 11 2 0 9 11 12 35 9 19 -2 35 -1 35 3 0 11 58 16 76 6 11 -6 19 -5 24 3 5 8 22 11 44 8 20 -2 36 0 36 4 0 4 7 8 15 8 8 0 15 7 15 15 0 18 -48 18 -195 0z"></path>
            <path id="pdAD9G2CJ"
                d="M14435 10720 c0 -35 4 -59 10 -57 13 5 18 42 10 83 -10 54 -21 40 -20 -26z"></path>
            <path id="p1DlQ1HvCC"
                d="M10508 10702 c-70 -13 -88 -19 -88 -33 0 -11 10 -18 30 -21 17 -3 30 0 30 5 0 5 11 7 25 5 14 -3 25 -2 25 2 0 4 11 10 25 12 14 3 25 1 25 -6 0 -6 4 -5 9 3 5 8 19 12 35 9 14 -3 26 -1 26 3 0 5 7 9 15 9 8 0 15 7 15 15 0 19 -53 18 -172 -3z"></path>
            <path id="pVeSIQVUg"
                d="M14021 10666 c12 -25 49 -37 49 -16 0 6 5 10 10 10 6 0 10 -7 10 -16 0 -11 6 -15 20 -11 11 3 20 1 20 -5 0 -6 9 -8 20 -5 11 3 20 1 20 -5 0 -5 12 -7 30 -3 23 5 30 3 30 -9 0 -9 7 -16 16 -16 11 0 14 8 12 28 -3 23 -11 29 -58 45 -30 9 -86 20 -123 24 l-68 6 12 -27z"></path>
            <path id="pHjgkuczc"
                d="M10330 10651 c0 -25 38 -32 63 -11 26 22 21 30 -23 30 -33 0 -40 -3 -40 -19z"></path>
            <path id="p17WJJ56Uo"
                d="M10200 10629 c-13 -24 -13 -24 18 -33 14 -5 22 -3 22 4 0 7 8 10 20 7 11 -3 20 -1 20 4 0 5 7 9 15 9 8 0 15 7 15 15 0 11 -12 15 -50 15 -40 0 -51 -4 -60 -21z"></path>
            <path id="p1492URiyP"
                d="M8820 10453 c0 -10 -3 -42 -6 -70 -6 -44 -4 -53 9 -53 17 0 30 41 32 103 1 29 -3 37 -17 37 -10 0 -18 -7 -18 -17z"></path>
            <path id="pvWw1OF9O"
                d="M6470 10405 c0 -8 -7 -15 -15 -15 -19 0 -19 -7 -1 -25 7 -8 12 -25 11 -39 -3 -20 1 -26 16 -26 17 0 19 8 19 60 0 47 -3 60 -15 60 -8 0 -15 -7 -15 -15z"></path>
            <path id="pGXQunIMp"
                d="M7670 10355 c0 -8 -7 -15 -15 -15 -8 0 -15 -5 -15 -11 0 -6 7 -8 15 -5 11 4 15 0 13 -12 -2 -10 3 -17 12 -17 10 0 16 12 18 38 2 28 0 37 -12 37 -9 0 -16 -7 -16 -15z"></path>
            <path id="p1gnFwDxv"
                d="M6590 10085 c0 -42 3 -55 15 -55 15 0 17 4 17 50 1 48 -2 60 -17 60 -12 0 -15 -13 -15 -55z"></path>
            <path id="phhCiSHSU"
                d="M6580 9555 c0 -49 23 -64 33 -23 8 31 -2 68 -19 68 -10 0 -14 -13 -14 -45z"></path>
            <path id="p146Bplhq2"
                d="M7645 9250 c-4 -16 -11 -30 -16 -30 -5 0 -9 -4 -9 -10 0 -5 7 -10 15 -10 11 0 15 -11 15 -40 0 -22 -4 -40 -10 -40 -18 0 -10 -18 10 -23 16 -4 20 -11 16 -34 -3 -15 -10 -29 -16 -31 -16 -6 -12 -22 5 -22 8 0 15 -7 15 -15 0 -8 7 -15 16 -15 15 0 16 11 10 93 -12 170 -18 207 -31 207 -8 0 -16 -13 -20 -30z"></path>
            <path id="pUQZ4Xrv"
                d="M7430 9061 c0 -69 13 -121 30 -121 13 0 16 9 15 43 -1 23 -5 57 -9 75 -9 40 -36 43 -36 3z"></path>
            <path id="pZUgPMmjv"
                d="M12027 9032 c-9 -2 -17 -10 -17 -18 0 -11 15 -14 65 -14 51 0 65 3 65 15 0 8 -6 15 -12 16 -38 3 -86 4 -101 1z"></path>
            <path id="pyM3IecAC"
                d="M13088 9032 c-34 -7 -20 -32 17 -32 23 0 35 5 35 14 0 15 -25 24 -52 18z"></path>
            <path id="p12cKd2Qvh"
                d="M12308 9023 c-10 -2 -18 -11 -18 -19 0 -10 14 -14 55 -14 40 0 55 4 55 14 0 21 -48 31 -92 19z"></path>
            <path id="pRUYq1AUc"
                d="M6640 8968 c0 -2 7 -23 14 -48 14 -44 18 -45 19 -5 0 43 -4 55 -18 55 -8 0 -15 -1 -15 -2z"></path>
            <path id="pZvp8Wq4x"
                d="M14110 8790 c0 -27 5 -50 10 -50 6 0 10 7 10 15 0 8 4 15 9 15 5 0 11 16 13 35 4 31 1 35 -19 35 -21 0 -23 -4 -23 -50z"></path>
            <path id="p16BI5MH6Q"
                d="M7784 8395 c3 -9 -1 -18 -11 -22 -14 -6 -13 -7 4 -14 28 -10 35 -44 13 -68 -9 -12 -20 -18 -24 -14 -3 3 -6 2 -6 -4 0 -18 12 -22 39 -12 24 9 25 8 7 -6 -17 -13 -18 -15 -3 -15 9 0 17 -4 17 -10 0 -5 -4 -10 -10 -10 -5 0 -10 -4 -10 -10 0 -5 9 -10 20 -10 11 0 20 -7 20 -15 0 -8 5 -15 11 -15 13 0 7 81 -10 150 -6 25 -13 55 -16 68 -4 14 -13 22 -26 22 -15 0 -19 -5 -15 -15z"></path>
            <path id="p11HICdoyY"
                d="M10217 8346 c17 -46 44 -63 77 -50 11 4 16 1 16 -11 0 -13 6 -16 23 -11 12 3 25 6 30 6 4 0 7 9 7 20 0 15 -7 20 -25 20 -14 0 -25 4 -25 10 0 5 -16 12 -35 16 -25 4 -35 11 -35 25 0 13 -7 19 -25 19 l-24 0 16 -44z"></path>
            <path id="p17yxTdqwX"
                d="M8720 8270 c0 -38 4 -50 15 -50 15 0 17 6 18 45 0 43 -4 55 -18 55 -11 0 -15 -12 -15 -50z"></path>
            <path id="p18xwZZbrJ"
                d="M7580 8236 c0 -22 6 -36 16 -40 29 -11 32 -6 22 34 -13 50 -38 54 -38 6z"></path>
            <path id="p13rfiUhOf"
                d="M10430 8260 c0 -5 7 -10 15 -10 8 0 15 -6 15 -14 0 -8 14 -17 30 -21 17 -4 30 -11 30 -15 0 -5 7 -7 15 -4 8 4 15 1 15 -5 0 -8 5 -9 19 -1 11 6 21 6 23 1 5 -14 58 -25 58 -12 0 6 7 8 15 5 10 -4 15 0 15 13 0 16 -17 25 -89 46 -92 28 -161 35 -161 17z"></path>
            <path id="pvxQFpo8i"
                d="M7637 8243 c-10 -9 -9 -23 2 -23 5 0 11 7 15 15 5 15 -5 20 -17 8z"></path>
            <path id="pg4yixUjT"
                d="M13840 8205 c0 -17 -22 -23 -220 -64 -252 -52 -645 -111 -737 -111 -36 0 -43 -3 -43 -20 0 -13 7 -20 20 -20 11 0 20 -4 20 -10 0 -15 38 -12 47 4 11 18 63 28 56 9 -7 -19 24 -16 35 3 7 12 19 15 46 12 20 -2 36 0 36 5 0 5 16 7 35 5 19 -2 35 0 35 5 0 5 16 7 35 5 19 -2 35 0 35 5 0 5 16 7 35 5 19 -2 35 0 35 5 0 5 14 7 30 5 17 -3 30 0 30 5 0 5 14 7 30 5 17 -3 30 0 30 5 0 5 11 7 25 5 14 -3 25 -1 25 5 0 5 14 7 30 5 17 -3 30 0 30 5 0 5 11 7 25 5 14 -3 25 -1 25 5 0 5 11 7 25 5 14 -3 25 -1 25 5 0 5 11 7 25 5 14 -3 25 -1 25 4 0 6 11 7 25 4 16 -4 25 -2 25 5 0 6 9 9 20 6 11 -3 20 0 20 5 0 6 12 8 28 5 22 -5 32 0 48 20 10 14 22 34 26 44 6 15 3 19 -17 19 -15 0 -25 -6 -25 -15z"></path>
            <path id="pNmHEGr4a"
                d="M10710 8180 c0 -5 7 -10 15 -10 8 0 15 -7 15 -15 0 -18 26 -20 33 -2 3 7 6 4 6 -7 1 -14 6 -17 26 -12 16 4 25 2 25 -5 0 -6 9 -9 20 -6 11 3 20 1 20 -5 0 -6 11 -7 25 -4 16 4 25 2 25 -5 0 -6 9 -9 20 -6 11 3 20 1 20 -5 0 -6 11 -7 25 -4 16 4 25 2 25 -5 0 -7 9 -9 25 -5 16 4 25 2 25 -5 0 -7 9 -9 24 -5 16 4 26 1 30 -10 5 -12 10 -13 27 -3 18 9 24 8 31 -5 7 -13 12 -14 30 -3 16 9 22 9 25 0 6 -15 33 -17 33 -3 0 18 20 11 28 -10 7 -18 10 -18 35 -5 23 12 29 12 41 -1 17 -17 36 -18 36 -3 0 12 43 1 48 -12 2 -5 21 -6 43 -3 26 4 39 3 39 -5 0 -6 9 -11 20 -11 11 0 20 4 20 10 0 5 10 8 23 6 12 -3 25 -5 30 -5 4 -1 7 -7 7 -15 0 -9 7 -12 20 -9 11 3 20 9 20 14 0 5 14 7 30 4 24 -4 30 -2 30 13 0 17 -14 20 -122 30 -246 22 -441 54 -702 113 -133 30 -196 36 -196 19z"></path>
            <path id="pEnp2sm7b"
                d="M8730 8095 c0 -41 4 -55 14 -55 18 0 29 48 20 84 -3 14 -12 26 -20 26 -10 0 -14 -15 -14 -55z"></path>
            <path id="pAp4prRuf"
                d="M11750 8015 c0 -8 7 -15 15 -15 8 0 15 -4 15 -10 0 -5 9 -10 20 -10 11 0 20 4 20 10 0 5 7 7 15 4 10 -4 15 0 15 15 0 19 -6 21 -50 21 -38 0 -50 -4 -50 -15z"></path>
            <path id="p2nJM8JJL"
                d="M11890 8005 c0 -8 6 -15 14 -15 8 0 16 -6 19 -14 6 -15 47 -11 47 5 0 5 7 9 15 9 8 0 15 7 15 15 0 12 -13 15 -55 15 -42 0 -55 -3 -55 -15z"></path>
            <path id="pWmKfl1TR"
                d="M12690 8003 c0 -13 9 -19 32 -20 17 -1 35 -7 38 -13 5 -8 12 -7 23 4 8 9 20 16 26 16 6 0 11 7 11 15 0 12 -14 15 -65 15 -55 0 -65 -3 -65 -17z"></path>
            <path id="pcy73Baq5"
                d="M12130 7995 c0 -8 6 -15 14 -15 8 0 16 -5 18 -10 2 -6 50 -11 111 -13 87 -2 110 1 117 13 9 13 10 13 10 0 0 -12 2 -13 9 -1 7 11 9 11 14 0 4 -10 6 -10 6 -1 1 6 8 12 16 12 8 0 15 7 15 15 0 13 -25 15 -165 15 -140 0 -165 -2 -165 -15z"></path>
            <path id="p160x0rg6F"
                d="M12874 7944 c-9 -4 -9 -12 1 -32 7 -15 16 -42 20 -59 5 -28 4 -32 -9 -27 -9 3 -16 1 -16 -5 0 -7 8 -15 18 -18 25 -10 44 -31 37 -43 -7 -11 24 -14 49 -4 9 3 16 15 16 25 0 15 -7 19 -35 19 -24 0 -35 5 -35 15 0 9 9 15 23 15 13 0 26 3 30 6 10 10 -17 44 -35 44 -10 0 -18 5 -18 10 0 6 5 10 11 10 5 0 8 4 4 9 -3 5 -1 12 5 16 28 17 -30 33 -66 19z"></path>
            <path id="p8TBybQgx"
                d="M11020 7879 c0 -5 19 -9 42 -9 49 0 47 5 -4 13 -21 3 -38 2 -38 -4z"></path>
            <path id="pONbX5haV"
                d="M7377 7833 c-12 -11 -8 -23 8 -23 8 0 15 7 15 15 0 16 -12 20 -23 8z"></path>
            <path id="pFqRcjtaF"
                d="M13208 7833 c-10 -3 -18 -11 -18 -19 0 -10 14 -14 55 -14 48 0 55 3 55 19 0 16 -7 20 -37 19 -21 -1 -46 -3 -55 -5z"></path>
            <path id="p13bxUx4sX"
                d="M13058 7813 c-10 -2 -18 -11 -18 -19 0 -10 14 -14 55 -14 48 0 55 2 55 20 0 17 -6 20 -37 19 -21 -1 -46 -3 -55 -6z"></path>
            <path id="pFbxiWTxP"
                d="M11958 7783 c-10 -2 -18 -11 -18 -19 0 -10 14 -14 55 -14 40 0 55 4 55 14 0 21 -48 31 -92 19z"></path>
            <path id="p11MWOuYFI"
                d="M7993 7726 c4 -10 7 -22 7 -27 0 -13 60 -41 76 -35 8 3 14 0 14 -5 0 -6 9 -9 20 -6 11 3 20 1 20 -4 0 -14 28 -11 33 4 3 7 6 5 6 -5 1 -20 27 -25 33 -7 3 8 10 6 20 -5 20 -19 34 -21 42 -3 3 8 9 6 20 -7 13 -16 19 -18 41 -8 21 10 27 9 31 -3 7 -17 44 -21 44 -5 0 6 3 9 8 9 23 -4 42 3 42 15 0 9 -20 15 -67 19 -80 7 -194 31 -278 59 -33 11 -73 23 -89 25 -25 5 -28 3 -23 -11z"></path>
            <path id="pepmGNHyy"
                d="M11247 7733 c-4 -3 -7 -22 -7 -41 0 -30 2 -33 15 -22 9 7 25 26 36 42 l20 28 -29 0 c-16 0 -32 -3 -35 -7z"></path>
            <path id="p18Kdsu3vG"
                d="M11308 7659 c-20 -11 -25 -43 -6 -37 14 5 43 48 32 48 -5 0 -17 -5 -26 -11z"></path>
            <path id="pWblxO5kj"
                d="M8600 7636 c0 -8 14 -18 33 -21 17 -4 35 -13 40 -19 5 -8 11 -6 21 7 7 9 18 17 25 17 6 0 11 7 11 15 0 12 -14 15 -65 15 -49 0 -65 -3 -65 -14z"></path>
            <path id="pAvJwoWat"
                d="M13403 7573 c-4 -10 -12 -22 -20 -26 -7 -4 -13 -21 -13 -37 0 -24 -4 -30 -22 -30 -34 0 -68 -42 -68 -81 l0 -33 29 32 c17 17 35 32 40 32 6 0 11 6 11 13 1 16 35 57 49 57 6 0 11 5 11 11 0 6 12 26 26 45 l26 34 -31 0 c-21 0 -34 -6 -38 -17z"></path>
            <path id="pwJJV3qdj"
                d="M12456 7470 c-14 -22 -26 -53 -26 -70 0 -24 -4 -30 -23 -30 -34 0 -77 -52 -77 -92 l1 -33 28 31 c15 17 35 33 44 37 9 3 17 13 17 20 0 20 40 68 51 62 5 -4 9 3 9 14 0 10 3 21 8 23 7 3 42 62 42 72 0 3 -11 6 -24 6 -16 0 -31 -12 -50 -40z"></path>
            <path id="p9d7mWKDe"
                d="M12686 7368 c-5 -10 -14 -18 -22 -18 -7 0 -11 -6 -8 -14 3 -8 -5 -17 -23 -24 -15 -5 -37 -24 -47 -42 -18 -32 -18 -33 -1 -26 18 7 18 6 0 -14 -10 -11 -24 -20 -32 -20 -8 0 -11 -4 -8 -10 3 -5 -13 -31 -37 -56 -24 -25 -44 -50 -46 -55 -2 -5 -10 -9 -18 -9 -9 0 -13 -4 -10 -8 3 -5 -6 -20 -20 -35 -31 -34 -30 -37 6 -37 23 0 30 4 30 20 0 11 4 20 10 20 23 0 60 45 60 72 0 23 4 28 25 28 16 0 25 6 25 15 0 8 5 15 10 15 6 0 10 9 10 20 0 11 6 20 14 20 15 0 76 71 76 88 0 6 5 12 11 14 6 2 9 19 7 38 -3 27 -6 31 -12 18z"></path>
            <path id="pmuToKInR"
                d="M12560 7321 c0 -11 4 -22 9 -25 12 -8 34 21 26 34 -11 17 -35 11 -35 -9z"></path>
            <path id="p3e1cw4u9"
                d="M11170 7294 c-14 -7 -21 -14 -16 -14 5 0 3 -7 -4 -15 -11 -13 -8 -15 19 -15 28 0 31 3 31 30 0 17 -1 30 -2 29 -2 -1 -14 -7 -28 -15z"></path>
            <path id="pTFDKAE3n"
                d="M10997 7141 c-10 -4 -17 -10 -15 -13 5 -11 -64 -58 -86 -59 -12 0 -16 -3 -9 -6 8 -3 3 -13 -15 -28 l-27 -24 38 -1 c20 0 37 4 37 9 0 5 9 13 20 16 14 4 20 15 20 36 0 27 3 29 35 29 31 0 35 3 35 25 0 26 -4 28 -33 16z"></path>
            <path id="pqCc4U1ja"
                d="M11588 6653 c-21 -14 -38 -30 -38 -34 0 -5 -7 -9 -15 -9 -16 0 -77 -39 -83 -52 -2 -5 -12 -8 -22 -8 -10 0 -21 -4 -25 -9 -3 -6 -26 -20 -50 -32 -32 -16 -45 -29 -45 -44 0 -17 6 -21 34 -20 39 2 66 19 66 44 0 12 2 13 8 3 12 -18 42 -4 42 19 0 10 5 19 10 19 6 0 10 -4 10 -10 0 -5 7 -7 15 -4 8 4 15 16 15 28 0 14 3 17 8 8 12 -18 42 -4 42 20 0 14 5 18 18 14 21 -7 36 3 45 27 4 10 10 16 14 14 5 -2 18 9 31 24 l24 29 -34 -1 c-18 0 -50 -12 -70 -26z"></path>
            <path id="pnMxa6PEW"
                d="M11856 6544 c-11 -8 -26 -14 -34 -14 -22 0 -65 -37 -50 -43 7 -3 0 -6 -17 -6 -23 -1 -27 -4 -15 -11 12 -8 9 -10 -13 -10 -16 0 -26 -4 -22 -10 3 -5 -3 -10 -15 -10 -12 0 -19 -4 -16 -9 3 -5 -9 -11 -27 -15 -25 -5 -29 -9 -17 -16 12 -8 11 -10 -7 -10 -13 0 -23 -5 -23 -11 0 -6 -9 -8 -20 -4 -11 3 -20 2 -20 -3 0 -6 5 -12 11 -14 7 -2 -7 -10 -30 -18 -22 -7 -41 -16 -41 -19 0 -4 -20 -17 -45 -31 -48 -26 -54 -34 -30 -44 8 -3 15 0 15 5 0 6 8 9 18 7 10 -3 24 2 31 9 8 8 24 13 37 10 13 -2 24 0 24 5 0 6 7 8 15 4 8 -3 15 -1 15 5 0 6 6 9 12 7 7 -3 19 2 27 10 8 7 25 12 37 9 13 -2 25 1 28 7 3 7 8 6 14 -3 8 -11 13 -10 30 7 11 11 23 18 26 14 3 -3 6 0 6 7 0 8 7 11 15 7 13 -5 65 33 65 48 0 11 -57 6 -93 -9 -50 -21 -58 -18 -19 6 17 12 32 25 32 30 0 5 7 9 15 9 8 0 15 4 15 9 0 5 10 12 23 15 41 11 69 40 65 68 -3 24 -5 25 -22 12z"></path>
            <path id="pQEI0JuqU"
                d="M9393 6514 c0 -8 11 -14 27 -14 14 0 31 -5 38 -12 9 -9 12 -9 12 0 0 7 -4 12 -10 12 -5 0 -9 6 -7 13 1 7 -10 12 -29 13 -20 1 -31 -4 -31 -12z"></path>
            <path id="p12cx0uZXg"
                d="M9568 6490 c-15 -4 -52 -11 -83 -14 -30 -3 -60 -8 -66 -12 -6 -3 -24 -7 -40 -8 -31 -2 -57 -21 -46 -33 8 -7 169 10 271 29 52 10 66 16 66 30 0 14 -8 18 -37 17 -21 0 -50 -4 -65 -9z"></path>
            <path id="pSBRZRCtN"
                d="M11584 6445 c-43 -41 -34 -46 18 -10 20 14 42 25 47 25 6 0 11 5 11 10 0 22 -40 8 -76 -25z"></path>
            <path id="p1G2ZSQLvt"
                d="M8977 6410 c7 -26 63 -24 63 3 0 13 -8 17 -34 17 -29 0 -33 -3 -29 -20z"></path>
            <path id="p1Dgk3bzb7"
                d="M9160 6350 c0 -5 7 -10 15 -10 8 0 15 -7 15 -16 0 -12 6 -15 23 -10 12 3 25 6 30 6 4 0 7 9 7 20 0 17 -7 20 -45 20 -25 0 -45 -4 -45 -10z"></path>
            <path id="py4YlLiRV"
                d="M10950 6310 c0 -5 -9 -10 -20 -10 -11 0 -20 -4 -20 -10 0 -5 -10 -10 -22 -10 -13 0 -51 -10 -85 -22 -45 -16 -63 -28 -63 -40 0 -14 7 -17 35 -15 19 1 35 6 35 11 0 4 7 6 15 2 8 -3 15 -1 15 5 0 6 5 7 10 4 6 -3 10 -1 10 5 0 6 10 8 27 4 21 -6 25 -4 20 9 -7 18 29 31 37 13 2 -6 5 -4 5 4 1 9 15 20 33 25 46 14 48 35 4 35 -20 0 -36 -4 -36 -10z"></path>
            <path id="pxJUtm1py"
                d="M9320 6301 c0 -6 7 -11 15 -11 8 0 15 -6 15 -14 0 -16 50 -32 59 -18 8 12 51 -4 51 -18 0 -7 13 -9 35 -4 27 5 36 3 41 -10 7 -19 34 -22 34 -3 1 7 7 4 15 -7 8 -11 21 -16 30 -13 8 4 15 2 15 -3 0 -14 28 -12 32 1 3 8 10 6 20 -5 20 -19 38 -21 38 -3 1 7 6 5 14 -6 10 -13 21 -16 40 -11 16 4 26 2 26 -5 0 -14 27 -14 32 0 3 8 9 6 20 -4 11 -12 26 -14 52 -10 24 4 36 2 36 -6 0 -6 7 -11 15 -11 8 0 15 5 15 11 0 12 42 1 51 -13 11 -17 69 1 69 21 0 15 -12 19 -75 25 -110 10 -332 51 -470 87 -133 35 -225 47 -225 30z"></path>
            <path id="p15g1BfaCX"
                d="M10533 6167 c-41 -9 -61 -37 -28 -37 8 0 15 -6 15 -12 0 -9 3 -9 9 1 5 8 18 12 30 8 12 -3 21 -1 21 5 0 5 5 8 12 6 11 -4 48 25 48 37 0 8 -61 4 -107 -8z"></path>
            <path id="phGHzQOB4"
                d="M10100 6155 c0 -8 7 -15 15 -15 8 0 15 -4 15 -10 0 -5 7 -10 15 -10 8 0 15 4 15 10 0 5 7 7 15 4 10 -4 15 0 15 15 0 18 -6 21 -45 21 -33 0 -45 -4 -45 -15z"></path>
            <path id="p15iwY7TFa"
                d="M10240 6145 c0 -8 7 -15 15 -15 8 0 15 -4 15 -10 0 -5 14 -10 30 -10 17 0 30 5 30 10 0 6 7 10 15 10 8 0 15 7 15 15 0 12 -13 15 -60 15 -47 0 -60 -3 -60 -15z"></path>
        </g>
    </g>
    <g id="l5zwNibQZZytpMevig3e1ZA" fill="rgb(228,230,231)" style="transform: none;">
        <g style="transform: none;">
            <path id="piG5dOUPO"
                d="M11453 13048 c-36 -8 -43 -13 -43 -33 0 -22 2 -24 27 -14 14 5 32 8 40 5 7 -3 13 -1 13 5 0 7 12 9 30 7 17 -3 30 -1 30 4 0 4 7 8 15 8 8 0 15 7 15 15 0 17 -58 19 -127 3z"></path>
            <path id="ppGTPLdba"
                d="M11223 12920 c-3 -11 -12 -20 -19 -20 -8 0 -14 -7 -14 -15 0 -8 -7 -15 -15 -15 -11 0 -15 -11 -15 -37 l1 -38 26 30 c15 17 30 29 35 28 4 -2 8 2 8 8 0 7 17 27 38 45 l37 33 -38 1 c-31 0 -40 -4 -44 -20z"></path>
            <path id="piwO6bDwb"
                d="M12189 12513 c-1 -10 -1 -26 0 -35 1 -10 -4 -18 -13 -18 -9 0 -16 -4 -16 -10 0 -5 6 -10 14 -10 8 0 16 -7 20 -15 3 -8 10 -15 16 -15 16 0 8 112 -7 118 -7 2 -14 -5 -14 -15z"></path>
            <path id="p7nTp4YHJ"
                d="M9103 12503 c-18 -9 -33 -23 -33 -30 0 -8 -12 -13 -29 -13 -39 0 -61 -9 -61 -26 0 -10 -12 -14 -40 -14 -22 0 -40 -4 -40 -10 0 -5 -11 -10 -24 -10 -14 0 -31 -7 -40 -15 -8 -8 -24 -15 -36 -15 -11 0 -23 -7 -26 -15 -4 -9 -19 -15 -40 -15 -29 0 -34 -4 -34 -22 0 -18 6 -23 25 -23 14 0 25 4 25 8 0 14 44 25 52 13 5 -8 8 -7 8 2 0 15 66 46 79 37 5 -3 12 2 15 11 4 10 14 14 25 11 11 -3 22 1 25 8 5 15 74 37 88 29 4 -3 8 1 8 9 0 14 67 40 82 31 4 -3 8 -1 8 3 0 5 16 17 35 27 19 11 35 23 35 28 0 14 -73 8 -107 -9z"></path>
            <path id="prGmLAwYr"
                d="M11960 12450 c0 -27 4 -40 14 -40 16 0 26 32 19 60 -10 37 -33 23 -33 -20z"></path>
            <path id="p6I6X5TAx"
                d="M12261 12343 c11 -13 11 -17 2 -20 -9 -3 -10 -10 -3 -24 11 -20 40 -26 40 -8 0 8 5 8 15 -1 13 -11 15 -8 15 17 0 16 -5 34 -12 41 -7 7 -25 12 -41 12 -26 0 -28 -2 -16 -17z"></path>
            <path id="p8e6g4kNk"
                d="M6798 12342 c-10 -2 -18 -10 -18 -18 0 -10 14 -14 55 -14 42 0 55 3 55 15 0 8 -6 16 -12 16 -36 4 -65 4 -80 1z"></path>
            <path id="pxv1nrWtr"
                d="M6600 12249 c0 -6 14 -16 30 -22 17 -6 30 -16 30 -23 0 -17 81 -39 90 -24 6 9 14 6 30 -10 12 -12 28 -19 36 -16 8 3 14 0 14 -5 0 -6 9 -9 20 -6 11 3 20 1 20 -4 0 -6 15 -7 33 -4 24 5 39 2 50 -9 19 -19 37 -21 37 -3 1 7 6 5 14 -5 15 -21 36 -24 36 -5 1 7 6 5 14 -5 14 -20 36 -24 36 -8 0 6 5 10 10 10 6 0 10 -7 10 -15 0 -17 36 -21 42 -4 3 8 9 6 20 -5 12 -11 26 -14 48 -9 21 4 35 2 40 -7 5 -8 15 -10 26 -5 25 10 77 6 86 -8 10 -16 118 10 118 29 0 10 -12 14 -43 14 -156 0 -544 73 -720 136 -72 25 -127 31 -127 13z"></path>
            <path id="p12lRK9x0P"
                d="M9334 12175 c-3 -19 -14 -40 -23 -45 -15 -9 -14 -9 1 -10 11 0 15 -5 12 -15 -4 -10 0 -15 14 -15 20 0 32 33 32 91 0 42 -27 37 -36 -6z"></path>
            <path id="pqFCv0QSn"
                d="M8160 12169 c-95 -23 -316 -59 -407 -65 -115 -8 -134 -23 -57 -44 38 -11 47 -11 54 0 6 9 24 11 63 7 31 -3 57 -2 59 3 5 14 58 20 58 7 0 -8 3 -7 9 2 5 8 19 12 35 9 14 -3 26 -1 26 5 0 5 15 7 35 4 21 -4 35 -2 35 5 0 6 9 8 20 5 11 -3 20 -1 20 5 0 6 11 8 25 6 14 -3 25 -1 25 5 0 5 9 7 20 4 11 -3 20 -1 20 5 0 6 9 8 20 5 11 -3 20 -1 20 4 0 5 7 9 15 9 8 0 15 7 15 15 0 17 -51 19 -110 4z"></path>
            <path id="p102WkUs1n"
                d="M11901 11894 c10 -13 10 -17 -2 -26 -11 -7 -9 -9 9 -5 12 3 25 0 30 -6 4 -7 15 -18 25 -26 15 -12 17 -11 17 18 0 21 -5 31 -15 31 -8 0 -15 7 -15 15 0 10 -10 15 -31 15 -28 0 -30 -2 -18 -16z"></path>
            <path id="p16PAKYeWX"
                d="M7398 11872 c-10 -2 -18 -10 -18 -18 0 -11 15 -14 65 -14 51 0 65 3 65 15 0 8 -8 16 -17 17 -36 3 -79 3 -95 0z"></path>
            <path id="p17G99wP5d"
                d="M12460 11313 c0 -4 10 -17 22 -30 17 -18 19 -26 10 -32 -15 -9 40 -65 58 -59 7 2 26 -9 44 -26 l31 -29 3 28 c3 23 -7 38 -52 82 -31 30 -56 59 -56 64 0 5 -13 9 -30 9 -16 0 -30 -3 -30 -7z"></path>
            <path id="p11xn2Hzrr"
                d="M12875 10874 c22 -29 25 -38 14 -45 -11 -7 -9 -9 6 -9 17 0 18 -2 5 -11 -12 -8 -10 -10 9 -5 14 3 31 0 39 -6 11 -10 13 -6 10 23 -2 24 -10 37 -25 44 -13 5 -23 18 -23 27 0 13 -8 18 -31 18 l-31 0 27 -36z"></path>
            <path id="p11u8pEZl0"
                d="M12148 10622 c-10 -2 -18 -10 -18 -18 0 -11 15 -14 60 -14 47 0 60 3 60 15 0 8 -6 15 -12 16 -50 4 -75 5 -90 1z"></path>
            <path id="pOFELGNMs"
                d="M12608 10613 c-10 -2 -18 -11 -18 -19 0 -11 15 -14 65 -14 49 0 65 3 65 14 0 22 -62 32 -112 19z"></path>
            <path id="pMjZhjNv9"
                d="M13654 10205 c-4 -8 -14 -15 -24 -15 -10 0 -26 -7 -35 -16 -20 -20 -196 -25 -203 -6 -4 12 -72 17 -72 6 0 -12 34 -33 53 -34 9 0 17 -7 17 -16 0 -12 6 -15 25 -10 17 4 31 1 41 -9 17 -16 53 -12 65 8 4 5 18 8 31 5 13 -2 30 2 37 10 7 7 21 12 31 9 10 -2 23 4 31 14 7 11 18 19 24 19 7 0 22 11 35 25 l23 25 -37 0 c-23 0 -39 -5 -42 -15z"></path>
            <path id="pRVEOVFCR"
                d="M9800 9700 c0 -55 3 -70 15 -70 18 0 30 58 21 105 -4 21 -13 35 -21 35 -12 0 -15 -15 -15 -70z"></path>
            <path id="piZoQNlxy"
                d="M10050 9562 c0 -5 11 -15 25 -22 14 -7 25 -17 25 -22 0 -13 28 -9 32 4 3 8 12 4 26 -10 17 -17 29 -21 49 -16 19 5 30 2 39 -11 7 -10 20 -15 29 -12 8 4 15 1 15 -4 0 -6 9 -9 20 -6 11 3 20 1 20 -5 0 -6 11 -7 25 -4 14 4 25 2 25 -4 0 -14 27 -12 33 3 3 7 6 4 6 -7 1 -13 6 -17 21 -13 11 3 20 1 20 -4 0 -14 30 -11 30 4 1 7 6 5 14 -5 15 -21 36 -24 36 -5 1 7 6 5 14 -5 15 -21 36 -24 36 -5 1 7 6 4 15 -6 9 -13 20 -17 34 -12 12 4 21 2 21 -4 0 -15 30 -14 30 2 1 7 6 5 14 -6 10 -13 21 -16 40 -11 16 4 26 2 26 -5 0 -15 30 -14 30 2 1 7 6 5 14 -6 10 -13 21 -16 40 -11 17 4 26 2 26 -6 0 -8 10 -9 30 -5 17 4 30 3 30 -2 0 -5 28 -8 62 -8 40 0 63 -5 66 -13 4 -14 32 -16 32 -2 0 11 32 1 42 -14 5 -8 13 -7 27 1 16 10 23 10 34 -2 10 -10 26 -12 51 -8 24 4 36 2 36 -6 0 -14 33 -14 47 0 7 7 15 6 25 -5 11 -10 27 -13 57 -9 28 4 41 2 41 -6 0 -9 13 -10 45 -5 33 4 45 3 45 -6 0 -8 9 -10 28 -6 38 10 76 8 80 -4 2 -6 28 -7 63 -3 44 4 59 3 59 -7 0 -9 10 -10 38 -5 20 4 45 8 55 7 10 0 17 6 17 17 0 16 -13 19 -102 25 -455 29 -1042 124 -1523 245 -158 40 -215 49 -215 33z"></path>
            <path id="pSLbs7dFW"
                d="M6819 9533 c-1 -10 -1 -26 0 -35 1 -9 -6 -18 -16 -21 -17 -4 -17 -5 0 -6 9 0 17 -8 17 -16 0 -8 7 -15 15 -15 12 0 15 13 15 55 0 42 -3 55 -15 55 -8 0 -16 -8 -16 -17z"></path>
            <path id="p10LCPvpae"
                d="M14270 9450 c0 -11 -4 -20 -10 -20 -5 0 -10 -9 -10 -21 0 -15 5 -19 15 -15 8 3 15 0 15 -7 1 -20 19 17 25 51 4 27 2 32 -15 32 -13 0 -20 -7 -20 -20z"></path>
            <path id="pqsHbAaeR"
                d="M14150 9391 c0 -12 9 -20 25 -23 14 -3 25 -1 25 3 0 5 7 9 15 9 8 0 15 7 15 15 0 11 -11 15 -40 15 -33 0 -40 -4 -40 -19z"></path>
            <path id="pMAn7RZOr"
                d="M13915 9359 c-120 -23 -444 -65 -572 -75 -79 -6 -93 -9 -93 -24 0 -14 10 -19 40 -22 22 -2 40 1 40 5 0 5 27 7 60 5 34 -2 60 0 60 5 0 5 22 7 50 5 29 -3 50 -1 50 5 0 5 16 7 35 5 19 -2 35 0 35 5 0 5 20 7 45 5 25 -3 45 -2 45 2 0 13 49 18 54 6 3 -7 8 -6 14 3 6 8 20 12 36 9 14 -3 26 -1 26 5 0 5 14 7 30 5 17 -3 30 0 30 5 0 5 14 7 30 5 17 -3 30 0 30 5 0 5 11 7 25 5 14 -3 25 -1 25 5 0 5 11 7 25 5 14 -3 25 -1 25 3 0 5 7 9 15 9 8 0 15 7 15 15 0 20 -47 18 -175 -6z"></path>
            <path id="p396iSkE3"
                d="M11910 9255 c0 -8 7 -15 15 -15 8 0 15 -5 15 -11 0 -8 12 -9 38 -4 20 5 45 8 55 9 9 0 17 8 17 18 0 16 -9 18 -70 18 -56 0 -70 -3 -70 -15z"></path>
            <path id="pVho6g2Mp"
                d="M13090 9249 c0 -11 4 -18 9 -15 4 3 23 1 42 -4 22 -7 35 -7 37 0 2 5 10 10 18 10 8 0 14 7 14 15 0 12 -13 15 -60 15 -54 0 -60 -2 -60 -21z"></path>
            <path id="pfDTLjMFa"
                d="M12100 9245 c0 -8 6 -15 14 -15 8 0 16 -5 18 -12 6 -18 118 9 118 28 0 11 -17 14 -75 14 -60 0 -75 -3 -75 -15z"></path>
            <path id="pjWjg95G8"
                d="M12900 9246 c0 -8 14 -17 33 -21 17 -4 37 -11 43 -16 8 -6 17 -4 27 6 9 8 20 15 26 15 6 0 11 7 11 15 0 12 -14 15 -70 15 -54 0 -70 -3 -70 -14z"></path>
            <path id="pTyiRP0mZ"
                d="M8949 8593 c-1 -10 -1 -26 0 -35 1 -9 -6 -18 -16 -21 -17 -4 -17 -5 0 -6 9 0 17 -8 17 -16 0 -8 7 -15 15 -15 12 0 15 13 15 55 0 42 -3 55 -15 55 -8 0 -16 -8 -16 -17z"></path>
            <path id="pMWwF3V8X"
                d="M7432 7976 c14 -10 15 -15 5 -26 -10 -10 -8 -12 11 -7 18 4 22 2 18 -9 -4 -9 2 -13 17 -13 12 1 30 -2 40 -6 13 -6 17 -2 17 17 0 30 -45 58 -92 58 -29 -1 -31 -2 -16 -14z"></path>
            <path id="p1FhgFABBx"
                d="M7680 7835 c0 -8 51 -55 60 -55 11 0 13 21 4 44 -5 14 -64 24 -64 11z"></path>
            <path id="pY4f0ata3"
                d="M9303 7808 c-13 -6 -23 -15 -23 -20 0 -4 -10 -8 -22 -8 -47 0 -68 -12 -68 -36 0 -21 3 -23 26 -13 15 5 35 7 45 4 14 -5 19 -1 19 10 0 13 6 16 24 13 16 -3 27 0 31 9 3 8 10 13 17 11 11 -4 48 25 48 37 0 9 -75 4 -97 -7z"></path>
            <path id="puywJ7pmH"
                d="M8990 7698 c0 -31 4 -48 8 -40 5 7 26 13 48 15 21 1 45 8 53 15 7 7 21 12 30 10 16 -3 51 20 51 34 0 5 -18 8 -40 8 -22 0 -40 -4 -40 -10 0 -5 -16 -10 -35 -10 -24 0 -35 5 -35 15 0 8 -9 15 -20 15 -17 0 -20 -7 -20 -52z"></path>
            <path id="piIgdGnVC"
                d="M10210 6934 c-30 -14 -57 -28 -60 -33 -3 -4 -22 -11 -42 -15 -21 -4 -38 -11 -38 -15 0 -5 -18 -11 -40 -15 -33 -5 -40 -10 -40 -29 0 -17 6 -22 25 -22 14 0 25 4 25 9 0 4 6 6 14 3 8 -3 17 1 20 9 7 17 33 19 39 2 4 -9 6 -8 6 3 1 19 39 40 75 42 14 1 26 6 26 10 0 5 5 5 10 2 6 -3 10 -1 10 5 0 6 5 8 10 5 6 -3 10 -2 10 2 0 5 16 17 35 27 19 11 35 23 35 28 0 16 -66 6 -120 -18z"></path>
            <path id="pF1V6sjuX"
                d="M9710 6741 c0 -25 38 -32 63 -11 26 22 21 30 -23 30 -33 0 -40 -3 -40 -19z"></path>
            <path id="p14qwc4DZs"
                d="M9520 6714 c-92 -19 -283 -44 -336 -44 -37 0 -44 -3 -44 -20 0 -16 7 -20 35 -20 19 0 35 -4 35 -10 0 -16 30 -12 36 5 7 17 84 22 84 5 0 -15 17 -12 36 7 13 13 19 14 22 5 5 -17 31 -15 38 3 7 17 34 21 34 5 0 -5 7 -10 15 -10 8 0 15 7 15 16 0 12 6 15 25 10 16 -4 25 -2 25 5 0 7 10 9 25 7 14 -3 25 -2 25 3 0 4 14 10 30 14 17 4 30 13 30 21 0 17 -40 17 -130 -2z"></path>
            <path id="psciQiJ2o"
                d="M8400 6699 c0 -6 14 -16 30 -22 17 -6 30 -15 30 -20 0 -4 16 -5 35 -1 23 4 35 2 35 -5 0 -6 7 -11 15 -11 8 0 15 5 15 11 0 12 43 1 48 -12 5 -11 32 -12 32 -1 0 10 73 2 81 -9 3 -5 26 -6 52 -3 35 5 47 11 47 24 0 15 -15 18 -106 24 -59 4 -141 13 -183 21 -91 18 -131 19 -131 4z"></path>
            <path id="pL1eNOLp9"
                d="M8880 6645 c0 -8 7 -15 15 -15 8 0 15 -4 15 -10 0 -6 32 -10 75 -10 43 0 75 4 75 10 0 6 7 10 15 10 8 0 15 7 15 15 0 12 -18 15 -105 15 -87 0 -105 -3 -105 -15z"></path>
        </g>
    </g>
    <g id="l50xGcmtSpXxDi02JrFUpQb" fill="rgb(206,237,236)" style="transform: none;">
        <g style="transform: none;"></g>
    </g>
    <g id="l1bx7f9XmaIfQV5iN8ILHmx" fill="rgb(210,216,219)" style="transform: none;">
        <g style="transform: none;"></g>
    </g>
    <g id="l4edO2o9kjfM4dhKqd0lY11" fill="rgb(181,227,228)" style="transform: none;">
        <g style="transform: none;"></g>
    </g>
    <g id="l5GvTP4RSFqvvSSTeSoBwMp" fill="rgb(162,219,219)" style="transform: none;">
        <g style="transform: none;"></g>
    </g>
    <g id="l3uPuR0dKSXSn8oRTJUOqsN" fill="rgb(190,195,203)" style="transform: none;">
        <g style="transform: none;"></g>
    </g>
    <g id="l5SaQnZFdx6Gw73qhmHInA0" fill="rgb(141,212,215)" style="transform: none;">
        <g style="transform: none;">
            <path id="pqxjl4Rk9"
                d="M8528 13902 c-39 -23 -36 -42 7 -42 32 0 35 2 35 30 0 34 -5 36 -42 12z"></path>
            <path id="p3iIKrtjH"
                d="M12750 11819 c0 -14 30 -38 48 -39 22 0 13 37 -10 44 -32 8 -38 7 -38 -5z"></path>
        </g>
    </g>
    <g id="l5650R0N30XcWXTWpkcikIC" fill="rgb(114,204,209)" style="transform: none;">
        <g style="transform: none;">
            <path id="pchN4tU5L"
                d="M10348 14452 c-29 -6 -20 -29 13 -36 62 -12 79 -8 79 19 0 24 -3 26 -37 23 -21 -1 -46 -4 -55 -6z"></path>
            <path id="p1CXZpwwaW"
                d="M10790 14435 c0 -23 3 -25 50 -25 42 0 50 3 50 19 0 22 -19 31 -66 31 -30 0 -34 -3 -34 -25z"></path>
            <path id="p1DleQA7Fq"
                d="M10218 14443 c-10 -2 -18 -10 -18 -18 0 -16 22 -25 61 -25 24 0 29 4 29 25 0 21 -5 25 -27 24 -16 -1 -36 -3 -45 -6z"></path>
            <path id="pm7LOaVu1"
                d="M10940 14425 c0 -23 4 -25 45 -25 37 0 45 3 45 19 0 19 -25 31 -67 31 -18 0 -23 -6 -23 -25z"></path>
            <path id="pAXGYJ5ST"
                d="M10095 14433 c-206 -27 -489 -91 -707 -160 -120 -37 -148 -50 -148 -65 0 -13 8 -18 27 -18 42 0 163 42 163 57 0 9 16 13 50 13 28 0 50 5 50 10 0 6 10 10 23 10 12 0 89 16 171 35 81 19 198 42 259 52 62 9 113 20 115 23 1 3 20 4 42 2 37 -4 40 -2 40 22 0 28 -7 29 -85 19z"></path>
            <path id="pjzpsaY1D"
                d="M11050 14415 c0 -23 4 -25 45 -25 37 0 45 3 45 19 0 19 -25 31 -67 31 -18 0 -23 -6 -23 -25z"></path>
            <path id="p14GmJteld"
                d="M11200 14397 c0 -21 8 -24 103 -40 56 -9 114 -17 130 -17 15 0 27 -4 27 -10 0 -5 18 -10 39 -10 22 0 41 -5 43 -11 2 -6 32 -13 66 -16 58 -5 62 -4 62 15 0 18 -15 24 -127 51 -129 30 -293 61 -325 61 -12 0 -18 -8 -18 -23z"></path>
            <path id="p3YTjyXg3"
                d="M11720 14281 c0 -30 18 -41 68 -41 12 0 22 -4 22 -8 0 -12 71 -32 114 -32 30 0 37 3 34 18 -2 12 -31 27 -93 48 -143 49 -145 50 -145 15z"></path>
            <path id="pQ9vUgtAB"
                d="M9001 14129 c-214 -94 -461 -217 -461 -229 0 -6 -4 -8 -10 -5 -5 3 -10 -1 -10 -9 0 -11 9 -16 30 -16 31 0 80 18 80 30 0 4 13 10 29 13 16 3 35 12 42 20 8 7 27 17 42 21 15 3 27 11 27 16 0 6 9 10 19 10 11 0 26 7 35 15 8 8 24 15 35 15 11 0 26 7 35 15 8 8 22 15 30 15 9 0 16 5 16 10 0 6 11 10 25 10 14 0 25 4 25 9 0 5 16 12 35 15 19 4 35 11 35 16 0 6 11 10 25 10 14 0 25 5 25 10 0 6 9 10 20 10 16 0 20 7 20 30 0 17 -3 30 -7 29 -5 0 -68 -27 -142 -60z"></path>
            <path id="pmE0L0MBv"
                d="M12360 14015 c0 -35 0 -35 45 -35 58 0 60 22 5 50 -21 11 -42 20 -45 20 -3 0 -5 -16 -5 -35z"></path>
            <path id="pBGcUIjWU"
                d="M8228 13749 c-235 -117 -279 -149 -208 -149 32 0 100 29 100 42 0 4 9 8 20 8 11 0 20 5 20 10 0 6 7 10 15 10 25 0 165 74 165 87 0 8 12 13 29 13 16 0 36 6 43 13 7 8 26 17 41 21 22 5 27 12 27 36 0 17 -3 30 -7 29 -5 0 -115 -54 -245 -120z"></path>
            <path id="prTlC28rG"
                d="M7893 13589 c-80 -37 -87 -64 -16 -56 26 3 49 10 51 16 2 6 12 11 23 11 14 0 19 7 19 30 0 17 -3 30 -7 29 -5 0 -36 -14 -70 -30z"></path>
            <path id="pKrDI3Imx"
                d="M7745 13524 c-466 -196 -894 -313 -1300 -354 -60 -7 -119 -13 -130 -15 -11 -2 -26 -4 -32 -4 -26 -2 -12 -29 18 -35 43 -8 99 -8 99 2 0 4 33 8 73 8 108 3 504 74 517 94 3 4 30 10 60 13 30 4 56 11 58 17 2 5 19 10 38 10 19 0 34 5 34 10 0 6 12 10 26 10 33 0 224 60 224 70 0 4 20 11 45 14 25 4 51 14 59 22 8 8 24 14 35 14 12 0 21 5 21 10 0 6 11 10 25 10 14 0 25 5 25 10 0 6 11 10 25 10 14 0 25 5 25 10 0 6 9 10 20 10 11 0 38 7 60 16 34 14 40 21 40 45 0 16 -1 29 -2 29 -2 -1 -30 -12 -63 -26z"></path>
            <path id="pky8Muc6i"
                d="M4885 13325 c37 -33 58 -45 83 -45 19 0 32 -5 32 -13 0 -13 77 -44 140 -57 74 -16 277 -61 330 -74 30 -8 108 -17 173 -21 113 -6 117 -6 117 14 0 15 -8 21 -32 25 -18 3 -82 12 -143 21 -230 33 -503 102 -658 166 -38 16 -75 29 -81 29 -6 0 12 -20 39 -45z"></path>
            <path id="pDA6vQjKH"
                d="M13342 13322 c-8 -6 -12 -23 -10 -43 2 -28 8 -35 28 -38 14 -1 28 -7 31 -13 3 -5 19 -8 34 -6 l29 3 -50 53 c-34 37 -53 50 -62 44z"></path>
            <path id="p161eLg7fL"
                d="M11777 13205 c59 -40 73 -43 73 -17 0 13 -15 23 -53 35 -76 24 -79 22 -20 -18z"></path>
            <path id="p14IoEkZft"
                d="M5810 13126 c0 -25 2 -26 55 -26 41 0 57 4 62 15 8 23 -1 28 -62 33 -54 4 -55 4 -55 -22z"></path>
            <path id="p1EVU09j83"
                d="M6088 13143 c-10 -2 -18 -10 -18 -17 0 -16 44 -26 106 -26 40 0 44 2 44 25 0 24 -3 25 -57 24 -32 -1 -66 -3 -75 -6z"></path>
            <path id="pQePf7ib0"
                d="M9710 13140 c0 -5 21 -25 46 -45 37 -28 56 -35 90 -35 32 0 44 -4 44 -15 0 -11 12 -15 46 -15 67 0 57 28 -21 56 -99 35 -205 63 -205 54z"></path>
            <path id="p1GB6i3N9E"
                d="M12040 13096 c0 -36 0 -36 45 -36 57 0 60 21 8 45 -21 10 -41 20 -45 22 -5 2 -8 -12 -8 -31z"></path>
            <path id="pH9VRGZBF"
                d="M13273 12243 c-7 -2 -13 -20 -13 -39 0 -34 0 -34 45 -34 25 0 45 2 45 4 0 13 -67 73 -77 69z"></path>
            <path id="p84nyrEYr"
                d="M9088 12226 c-27 -20 -22 -36 12 -36 25 0 30 4 30 25 0 27 -16 32 -42 11z"></path>
            <path id="pXiNwKeQV"
                d="M8865 12136 c-90 -36 -113 -66 -51 -66 20 0 36 5 36 10 0 6 11 10 25 10 14 0 25 5 25 10 0 6 11 10 25 10 21 0 25 5 25 30 0 17 -1 30 -2 30 -2 -1 -39 -16 -83 -34z"></path>
            <path id="pcge5p5qG"
                d="M8703 12076 c-85 -27 -86 -50 -3 -44 68 5 73 7 68 40 l-3 24 -62 -20z"></path>
            <path id="pDxGO2Qd7"
                d="M8523 12018 c-47 -16 -46 -48 2 -48 32 0 35 2 35 30 0 17 -1 30 -2 29 -2 -1 -18 -6 -35 -11z"></path>
            <path id="pFXNnVgvy"
                d="M13150 12006 c0 -7 10 -16 23 -20 41 -11 57 -7 57 14 0 17 -7 20 -40 20 -27 0 -40 -4 -40 -14z"></path>
            <path id="p1HQzkc19G"
                d="M8383 11978 c-54 -18 -42 -38 22 -38 52 0 55 1 55 25 0 28 -19 31 -77 13z"></path>
            <path id="pNi1DySMj"
                d="M8218 11938 c-39 -10 -51 -34 -23 -44 8 -4 35 -3 60 0 39 6 45 10 45 32 0 27 -17 29 -82 12z"></path>
            <path id="pfHptOk5y"
                d="M11448 11866 c-33 -24 -20 -36 37 -36 47 0 55 3 55 19 0 30 -61 41 -92 17z"></path>
            <path id="pLGXMB6Ak"
                d="M11588 11873 c-22 -6 -23 -29 -2 -37 9 -3 33 -6 55 -6 38 0 38 1 27 25 -11 25 -35 30 -80 18z"></path>
            <path id="pm4ibkYCd"
                d="M11343 11785 c-24 -20 -43 -41 -43 -46 0 -5 15 -9 33 -9 38 0 61 30 55 69 -3 21 -5 21 -45 -14z"></path>
            <path id="pHiAff6iE"
                d="M12772 11812 c-21 -14 27 -48 73 -51 106 -5 295 -22 340 -31 141 -29 270 -50 301 -50 27 0 34 4 34 20 0 11 -1 20 -2 20 -2 0 -61 11 -133 25 -277 54 -584 88 -613 67z"></path>
            <path id="p5ZqiAYKz"
                d="M13570 11680 c0 -23 5 -29 31 -34 17 -3 47 -6 65 -6 27 0 34 4 34 20 0 11 -3 20 -7 20 -5 1 -34 7 -65 14 l-58 14 0 -28z"></path>
            <path id="p12dg2PoC8"
                d="M13018 11533 c11 -16 32 -39 46 -52 l26 -24 0 34 c0 40 -27 69 -66 69 l-25 0 19 -27z"></path>
            <path id="pLU5qPZbG"
                d="M12390 10846 c0 -19 22 -26 81 -26 42 0 49 3 49 20 0 18 -7 20 -65 20 -49 0 -65 -3 -65 -14z"></path>
            <path id="p18wfgSdyY"
                d="M14210 10696 c0 -7 -3 -27 -6 -43 -5 -27 -3 -31 23 -36 15 -3 29 -4 31 -2 9 8 -22 95 -34 95 -8 0 -14 -6 -14 -14z"></path>
            <path id="pKq7wjH8i"
                d="M10030 9315 c0 -22 4 -25 40 -25 33 0 40 4 40 19 0 18 -25 31 -62 31 -13 0 -18 -8 -18 -25z"></path>
            <path id="pyGbKrx5t"
                d="M10130 9292 c0 -25 5 -30 31 -36 17 -3 47 -6 65 -6 27 0 34 4 34 19 0 14 -12 22 -47 30 -27 7 -56 14 -65 17 -14 4 -18 -1 -18 -24z"></path>
            <path id="p1D4UlV0qX"
                d="M10290 9250 c0 -23 5 -29 31 -34 17 -3 47 -6 65 -6 27 0 34 4 34 20 0 11 -3 20 -7 20 -5 1 -34 7 -65 14 l-58 14 0 -28z"></path>
            <path id="pduKce6n"
                d="M10470 9209 c0 -28 2 -29 45 -29 38 0 45 3 45 20 0 11 -3 20 -7 20 -5 0 -25 4 -45 9 -37 9 -38 8 -38 -20z"></path>
            <path id="p199qSf8LO"
                d="M10670 9165 c0 -23 4 -25 45 -25 37 0 45 3 45 19 0 19 -25 31 -67 31 -18 0 -23 -6 -23 -25z"></path>
            <path id="pz14bBDcg"
                d="M14145 9164 c-52 -12 -221 -43 -322 -60 -37 -6 -44 -29 -12 -39 25 -8 69 -2 244 32 72 14 142 25 157 25 24 -1 37 17 38 51 0 10 -34 7 -105 -9z"></path>
            <path id="pAwpww4N2"
                d="M10870 9140 c0 -11 7 -20 15 -20 8 0 15 -4 15 -10 0 -5 20 -10 45 -10 38 0 45 3 45 19 0 15 -11 22 -50 30 -68 15 -70 14 -70 -9z"></path>
            <path id="pnhUMAzaq"
                d="M11060 9111 c0 -14 6 -21 20 -21 11 0 20 -4 20 -10 0 -5 20 -10 45 -10 38 0 45 3 45 19 0 20 -6 22 -92 37 -34 6 -38 4 -38 -15z"></path>
            <path id="p1E5WFckMy"
                d="M13528 9063 c-10 -2 -18 -13 -18 -24 0 -15 7 -19 35 -19 31 0 35 3 35 25 0 25 -11 29 -52 18z"></path>
            <path id="p13SA7DKQv"
                d="M13388 9053 c-29 -7 -20 -30 13 -37 62 -12 79 -8 79 19 0 22 -4 25 -37 24 -21 -1 -46 -3 -55 -6z"></path>
            <path id="pqfX3Mu7y"
                d="M11770 9025 c0 -23 4 -25 45 -25 37 0 45 3 45 19 0 21 -19 31 -61 31 -24 0 -29 -4 -29 -25z"></path>
            <path id="p111wrfCTt"
                d="M13138 9032 c-29 -6 -20 -29 13 -36 62 -12 79 -8 79 19 0 22 -4 25 -37 23 -21 -1 -46 -4 -55 -6z"></path>
            <path id="pBAtwQ4HP"
                d="M12150 9005 c0 -23 4 -25 45 -25 37 0 45 3 45 19 0 21 -19 31 -61 31 -24 0 -29 -4 -29 -25z"></path>
            <path id="pJTjWhOgo"
                d="M13607 7898 c-51 -14 -48 -42 5 -46 27 -2 43 3 57 17 40 40 18 50 -62 29z"></path>
            <path id="puEp7mWRH"
                d="M13406 7859 c-54 -10 -101 -21 -104 -23 -2 -3 -2 -12 1 -21 8 -19 30 -19 150 2 90 15 97 18 97 40 0 28 -6 28 -144 2z"></path>
            <path id="p6FLVH8wn"
                d="M13075 7811 c-126 -17 -145 -23 -145 -47 0 -9 11 -14 35 -14 19 0 35 4 35 9 0 5 20 6 45 3 25 -2 45 -1 45 4 0 5 18 8 40 6 22 -2 40 0 40 5 0 5 18 7 40 5 37 -4 40 -2 40 22 0 31 0 31 -175 7z"></path>
            <path id="p9uWirXQi"
                d="M11680 7775 c0 -23 3 -25 50 -25 42 0 50 3 50 19 0 20 -25 31 -72 31 -23 0 -28 -4 -28 -25z"></path>
            <path id="p2fWPipe0"
                d="M11860 7766 c0 -24 3 -26 45 -26 32 0 47 5 52 15 8 22 0 27 -52 32 -43 5 -45 5 -45 -21z"></path>
            <path id="pbQR35qxS"
                d="M12070 7755 c0 -24 2 -25 66 -25 62 0 65 1 62 23 -3 20 -9 22 -65 25 -62 3 -63 2 -63 -23z"></path>
            <path id="p16XFezrih"
                d="M12498 7773 c-29 -7 -20 -30 13 -37 17 -3 56 -6 85 -6 51 0 54 1 54 25 0 24 -2 25 -67 24 -38 -1 -76 -3 -85 -6z"></path>
            <path id="pwxOsq6Tp"
                d="M12183 6805 c-29 -26 -53 -51 -53 -56 0 -5 16 -9 35 -9 19 0 35 5 35 11 0 7 9 20 21 30 13 12 19 27 17 45 l-3 27 -52 -48z"></path>
            <path id="p19dOyrhCE"
                d="M9823 6542 c-39 -11 -53 -20 -53 -33 0 -22 29 -25 96 -8 37 10 44 15 44 35 0 28 -11 29 -87 6z"></path>
            <path id="p97yUPiaS"
                d="M9708 6513 c-10 -2 -18 -13 -18 -24 0 -15 7 -19 35 -19 31 0 35 3 35 25 0 25 -11 29 -52 18z"></path>
            <path id="pJ6UNPkAU"
                d="M9188 6433 c-29 -7 -20 -30 13 -37 62 -12 79 -8 79 19 0 22 -4 25 -37 24 -21 -1 -46 -3 -55 -6z"></path>
            <path id="pdegBCr83"
                d="M8990 6421 c0 -5 28 -20 63 -34 59 -24 62 -24 65 -6 6 32 -22 49 -77 49 -28 0 -51 -4 -51 -9z"></path>
        </g>
    </g>
    <g id="l1N0g8gkpsBFPOHQD8mIiFL" fill="rgb(164,171,185)" style="transform: none;">
        <g style="transform: none;"></g>
    </g>
    <g id="l3Xvkb2ghGKZWkhvE2NJEYr" fill="rgb(68,190,200)" style="transform: none;">
        <g style="transform: none;">
            <path id="pIQjOdK4z"
                d="M10328 14452 c-38 -2 -68 -6 -68 -10 0 -4 -25 -5 -55 -4 -30 2 -55 0 -55 -5 0 -5 -18 -7 -40 -5 -22 2 -40 0 -40 -5 0 -5 -16 -7 -35 -5 -19 2 -35 0 -35 -5 0 -5 -13 -8 -30 -5 -16 2 -30 0 -30 -5 0 -5 -13 -8 -30 -5 -16 2 -30 0 -30 -5 0 -6 -11 -8 -25 -5 -14 2 -25 0 -25 -5 0 -6 -11 -8 -25 -5 -14 2 -25 0 -25 -6 0 -6 -9 -8 -20 -5 -11 3 -20 1 -20 -4 0 -6 -11 -8 -25 -5 -14 2 -25 0 -25 -6 0 -6 -9 -8 -20 -5 -11 3 -20 1 -20 -5 0 -6 -9 -8 -20 -5 -11 3 -20 1 -20 -5 0 -6 -9 -8 -20 -5 -11 3 -20 1 -20 -3 0 -5 -14 -10 -32 -10 -18 -1 -34 -6 -36 -13 -2 -6 -8 -9 -13 -6 -12 8 -89 -14 -89 -25 0 -5 -7 -7 -15 -4 -8 4 -15 1 -15 -5 0 -6 -7 -8 -15 -5 -8 4 -15 1 -15 -5 0 -6 -7 -8 -15 -5 -8 4 -15 1 -15 -5 0 -6 -7 -8 -15 -5 -8 4 -15 1 -15 -6 0 -6 -4 -8 -10 -5 -12 7 -131 -33 -145 -50 -5 -6 -16 -10 -22 -8 -7 3 -16 -3 -19 -11 -4 -11 -13 -14 -25 -11 -12 4 -21 1 -25 -9 -3 -8 -12 -12 -20 -9 -8 3 -14 0 -14 -6 0 -6 -7 -8 -15 -5 -8 4 -17 -1 -21 -9 -3 -9 -13 -13 -25 -10 -11 3 -21 -1 -25 -10 -3 -9 -12 -13 -20 -10 -7 3 -17 -2 -20 -11 -3 -9 -10 -13 -15 -10 -5 3 -9 1 -9 -5 0 -6 -6 -8 -14 -5 -7 3 -20 -2 -29 -10 -8 -8 -17 -12 -21 -9 -3 4 -6 1 -6 -5 0 -6 -7 -9 -15 -6 -8 4 -17 -1 -21 -10 -3 -9 -10 -13 -15 -10 -5 3 -9 0 -9 -6 0 -6 -4 -9 -9 -5 -5 3 -16 -1 -24 -9 -8 -8 -17 -12 -21 -9 -3 4 -6 1 -6 -6 0 -7 -4 -9 -10 -6 -5 3 -10 2 -10 -4 0 -6 -7 -8 -15 -5 -8 4 -17 -1 -21 -10 -3 -9 -10 -13 -15 -10 -5 3 -9 0 -9 -6 0 -6 -4 -8 -10 -5 -5 3 -10 1 -10 -5 0 -6 -4 -8 -10 -5 -5 3 -10 1 -10 -6 0 -7 -3 -10 -6 -6 -9 8 -84 -31 -84 -44 0 -6 -4 -7 -10 -4 -5 3 -10 2 -10 -4 0 -6 -7 -8 -15 -5 -8 4 -17 -1 -21 -10 -3 -9 -10 -13 -15 -10 -5 3 -9 1 -9 -5 0 -6 -6 -8 -14 -5 -8 3 -23 -3 -34 -14 -11 -11 -23 -18 -26 -14 -3 3 -6 0 -6 -7 0 -7 -4 -9 -10 -6 -5 3 -10 1 -10 -5 0 -6 -4 -8 -10 -5 -5 3 -10 1 -10 -5 0 -6 -4 -8 -10 -5 -5 3 -10 1 -10 -5 0 -6 -4 -8 -10 -5 -5 3 -10 1 -10 -5 0 -6 -4 -8 -10 -5 -5 3 -10 1 -10 -5 0 -6 -4 -8 -10 -5 -5 3 -10 1 -10 -5 0 -6 -4 -9 -9 -5 -5 3 -15 -1 -23 -8 -7 -8 -19 -12 -26 -9 -6 2 -15 -3 -18 -12 -3 -9 -10 -13 -15 -10 -5 3 -9 0 -9 -6 0 -6 -4 -8 -10 -5 -5 3 -10 1 -10 -5 0 -6 -4 -8 -10 -5 -5 3 -10 1 -10 -5 0 -6 -4 -9 -10 -5 -12 8 -80 -21 -80 -34 0 -6 -7 -8 -15 -5 -8 4 -17 -1 -21 -9 -3 -9 -12 -13 -20 -10 -8 3 -14 0 -14 -7 0 -6 -4 -9 -9 -5 -12 7 -81 -25 -81 -37 0 -5 -4 -6 -10 -3 -6 3 -10 1 -10 -5 0 -6 -4 -8 -10 -5 -5 3 -10 1 -10 -5 0 -7 -7 -10 -15 -6 -8 3 -15 1 -15 -4 0 -5 -6 -7 -14 -4 -8 3 -20 -1 -27 -9 -7 -8 -21 -12 -31 -9 -10 2 -20 -2 -24 -11 -3 -9 -13 -13 -25 -10 -11 3 -21 -1 -25 -10 -3 -9 -13 -13 -25 -10 -11 3 -21 -1 -25 -11 -3 -9 -10 -13 -15 -10 -5 3 -9 0 -9 -6 0 -7 -8 -9 -20 -5 -11 3 -20 2 -20 -3 0 -6 -9 -8 -20 -5 -12 3 -22 -1 -26 -11 -3 -9 -10 -13 -15 -10 -5 3 -9 0 -9 -6 0 -7 -8 -9 -20 -5 -11 4 -20 2 -20 -4 0 -6 -7 -8 -15 -5 -8 4 -15 1 -15 -5 0 -6 -7 -8 -15 -5 -8 4 -15 1 -15 -5 0 -6 -7 -8 -15 -5 -8 4 -15 1 -15 -5 0 -6 -7 -8 -15 -5 -8 4 -15 2 -15 -2 0 -5 -14 -10 -32 -10 -18 -1 -34 -6 -35 -11 -2 -6 -14 -8 -27 -6 -13 3 -30 -2 -37 -10 -7 -7 -21 -12 -31 -9 -10 2 -18 0 -18 -4 0 -5 -17 -10 -37 -11 -21 -1 -39 -6 -41 -11 -2 -6 -12 -8 -22 -5 -11 3 -20 1 -20 -5 0 -6 -9 -8 -20 -5 -11 3 -20 1 -20 -4 0 -6 -11 -8 -25 -5 -14 2 -25 0 -25 -5 0 -6 -11 -8 -25 -5 -14 2 -25 0 -25 -6 0 -6 -9 -8 -20 -5 -11 3 -20 0 -20 -6 0 -6 -11 -8 -30 -4 -18 3 -30 1 -30 -5 0 -7 -13 -9 -35 -5 -20 3 -35 1 -35 -4 0 -6 -11 -8 -25 -5 -14 2 -25 0 -25 -7 0 -7 -15 -9 -45 -4 -30 4 -45 2 -45 -5 0 -7 -17 -9 -50 -5 -29 3 -50 2 -50 -4 0 -5 -37 -7 -90 -5 -49 3 -90 1 -90 -4 0 -5 -79 -9 -175 -9 -96 0 -175 4 -175 9 0 5 -33 6 -75 3 -49 -4 -75 -2 -75 5 0 7 -15 8 -42 4 -26 -4 -44 -3 -48 4 -5 7 -15 8 -33 1 -21 -8 -29 -7 -37 7 -7 11 -13 13 -16 6 -5 -13 -44 -7 -44 7 0 5 -13 6 -30 3 -18 -4 -30 -2 -30 4 0 5 -9 8 -20 5 -11 -3 -20 0 -20 6 0 7 -9 9 -25 5 -14 -3 -25 -2 -25 4 0 6 -9 8 -20 5 -11 -3 -20 -1 -20 4 0 5 -16 9 -36 9 -19 0 -38 4 -42 10 -4 5 -18 9 -32 8 -33 -1 -132 36 -146 54 -6 8 -30 15 -55 17 -24 2 -55 6 -68 10 -27 9 65 -79 169 -161 163 -129 454 -297 650 -374 166 -66 434 -136 655 -171 115 -18 193 -23 435 -26 444 -6 649 19 1095 133 253 65 586 193 1010 389 116 53 266 122 335 152 617 273 1149 366 1808 317 152 -11 462 -69 637 -120 886 -255 1723 -901 2307 -1781 81 -122 189 -311 230 -401 16 -36 35 -80 43 -96 64 -143 107 -257 164 -436 20 -65 4 253 -25 465 -31 237 -137 624 -234 855 -17 41 -34 84 -37 95 -10 33 -166 335 -218 420 -47 79 -114 181 -171 261 -115 164 -339 431 -357 426 -6 -2 -17 0 -26 3 -13 5 -13 7 -1 15 12 7 6 18 -30 56 -69 71 -264 242 -375 329 -198 155 -515 348 -555 338 -15 -4 -19 -2 -15 9 4 11 -21 27 -92 60 -220 103 -361 161 -373 153 -15 -9 -90 17 -90 30 0 8 -15 12 -40 11 -26 0 -44 5 -52 16 -16 21 -84 39 -115 32 -13 -4 -23 -2 -23 5 0 6 -7 8 -15 4 -9 -3 -22 2 -29 12 -9 13 -20 16 -40 11 -18 -4 -32 -2 -43 10 -11 11 -26 14 -50 9 -20 -4 -33 -2 -33 5 0 6 -10 8 -25 4 -16 -4 -25 -2 -25 6 0 8 -10 9 -30 5 -20 -4 -30 -3 -30 5 0 8 -9 10 -27 6 -16 -5 -29 -3 -34 5 -5 8 -33 13 -78 13 -39 1 -71 5 -71 10 0 5 -25 6 -55 3 -30 -3 -55 -2 -55 3 0 4 -25 10 -55 12 -30 1 -55 0 -55 -4 0 -5 -9 -8 -20 -8 -11 0 -20 5 -20 10 0 6 -75 10 -205 10 -157 0 -205 -3 -205 -12 0 -8 -3 -9 -8 -3 -4 6 -37 9 -74 7z"></path>
            <path id="pRErqVUZf"
                d="M11812 13201 c-10 -6 19 -35 105 -103 65 -53 188 -165 274 -249 220 -218 346 -372 525 -644 51 -77 99 -148 106 -159 10 -13 34 -20 93 -27 184 -19 534 -73 618 -94 15 -4 27 -4 27 -1 0 9 -71 98 -153 193 -53 60 -79 82 -97 82 -19 1 -22 3 -11 10 19 12 -31 65 -214 229 -71 64 -139 125 -150 136 -46 43 -327 247 -410 298 -197 122 -389 221 -427 220 -16 0 -28 5 -28 12 0 7 -53 34 -118 59 -130 52 -122 50 -140 38z"></path>
            <path id="pGXMBrS9k"
                d="M9735 13112 c6 -5 120 -105 255 -222 135 -118 281 -246 325 -286 44 -39 127 -113 185 -164 58 -51 124 -110 147 -132 23 -21 47 -38 53 -38 19 0 219 144 219 157 1 19 -218 210 -350 304 -241 172 -572 347 -628 332 -15 -4 -21 -1 -21 11 0 17 -2 18 -68 20 -24 1 -47 6 -50 12 -4 5 -23 10 -42 12 -20 2 -31 -1 -25 -6z"></path>
            <path id="pYVqWKSeM"
                d="M9008 12194 c-46 -19 -84 -39 -86 -44 -2 -5 -9 -7 -16 -4 -8 3 -20 -1 -27 -9 -8 -7 -19 -12 -25 -10 -7 2 -18 -3 -27 -11 -8 -8 -17 -13 -19 -10 -7 7 -68 -17 -68 -27 0 -4 -7 -6 -15 -3 -8 4 -15 1 -15 -6 0 -6 -4 -9 -9 -6 -12 8 -171 -43 -171 -55 0 -6 -4 -7 -10 -4 -13 8 -90 -15 -90 -27 0 -5 -4 -7 -9 -3 -13 7 -151 -24 -151 -35 0 -4 -9 -6 -20 -3 -11 3 -20 1 -20 -5 0 -6 -8 -8 -19 -5 -10 2 -37 -1 -60 -7 -39 -10 -45 -16 -70 -73 -204 -447 -366 -1049 -416 -1547 -2 -25 -10 -97 -16 -160 -19 -189 -15 -859 6 -968 2 -10 6 -52 10 -93 7 -77 21 -185 30 -229 3 -14 12 -70 21 -125 30 -191 104 -482 179 -711 103 -310 97 -296 146 -320 47 -23 229 -63 319 -70 30 -2 84 -6 120 -9 65 -4 298 10 307 19 3 3 0 65 -6 138 -6 73 -13 196 -17 273 -3 77 -8 151 -10 165 -2 14 -7 171 -10 350 -15 765 70 1776 226 2695 17 99 35 205 40 235 11 70 22 131 54 305 39 216 66 378 66 401 0 35 -33 34 -122 -2z"></path>
            <path id="p14FtBJlV1"
                d="M11399 11828 c-26 -20 -52 -45 -58 -55 -5 -10 -13 -17 -18 -15 -7 2 -105 -77 -387 -310 -107 -89 -136 -103 -217 -103 -57 0 -77 5 -139 37 -41 21 -74 37 -76 35 -9 -10 -63 -128 -112 -243 -75 -175 -192 -519 -192 -564 0 -7 7 -10 15 -6 25 9 248 53 407 81 573 98 1027 137 1620 139 333 1 401 4 371 18 -5 2 -23 21 -42 43 -19 22 -82 91 -140 154 -58 62 -117 125 -130 140 -13 14 -62 67 -110 116 -188 196 -404 426 -486 515 l-50 55 -104 0 -104 1 -48 -38z"></path>
            <path id="pB3amAjgP"
                d="M12794 11803 c-10 -15 -1 -29 59 -93 123 -129 191 -203 253 -270 403 -443 354 -398 446 -410 93 -11 173 -39 239 -81 68 -43 161 -147 201 -225 27 -53 37 -64 58 -64 14 0 56 -9 95 -20 90 -26 109 -20 100 28 -17 92 -130 381 -218 557 -50 101 -116 217 -184 323 -29 45 -53 87 -53 92 0 14 -96 41 -124 34 -15 -3 -26 -2 -26 4 0 6 -9 8 -20 5 -11 -3 -20 0 -20 5 0 16 -77 34 -111 27 -18 -4 -29 -2 -29 4 0 6 -12 8 -30 5 -17 -4 -30 -2 -30 3 0 6 -11 8 -25 5 -15 -2 -25 0 -25 7 0 7 -9 9 -25 5 -15 -4 -25 -2 -25 4 0 7 -14 9 -35 5 -21 -3 -35 -2 -35 5 0 5 -9 8 -20 5 -12 -3 -20 0 -20 7 0 8 -12 10 -40 5 -27 -5 -40 -3 -40 4 0 7 -10 9 -26 5 -17 -4 -29 -2 -35 7 -6 11 -14 11 -39 2 -32 -12 -60 -8 -60 8 0 5 -7 9 -15 9 -8 0 -15 -5 -15 -11 0 -15 -83 -5 -88 10 -6 17 -26 13 -38 -6z"></path>
            <path id="pSI2XbKk9"
                d="M6910 11643 c-41 -31 -109 -91 -151 -132 -73 -72 -78 -80 -102 -161 -100 -328 -162 -641 -186 -930 -26 -327 3 -774 71 -1090 26 -121 92 -355 113 -400 l16 -35 -5 50 c-3 28 -12 95 -20 150 -53 363 -45 949 19 1394 55 381 207 929 325 1173 25 52 10 49 -80 -19z"></path>
            <path id="pdezf4W9H"
                d="M10034 9263 c4 -43 9 -109 12 -148 19 -249 93 -587 164 -747 l19 -44 153 -52 c354 -120 749 -207 1123 -248 369 -40 936 -56 1264 -35 292 19 633 68 961 139 l125 27 81 160 c134 265 232 520 284 737 22 90 22 97 7 113 -9 9 -17 12 -17 7 0 -6 -9 -8 -20 -5 -11 3 -20 1 -20 -4 0 -6 -11 -8 -25 -5 -14 2 -25 0 -25 -5 0 -6 -11 -8 -25 -5 -14 2 -25 0 -25 -5 0 -6 -11 -8 -25 -5 -14 2 -25 0 -25 -5 0 -6 -11 -8 -25 -5 -14 2 -25 0 -25 -5 0 -6 -12 -8 -26 -5 -16 3 -30 -1 -35 -9 -5 -8 -9 -9 -9 -3 0 7 -11 9 -25 6 -14 -2 -25 -8 -25 -12 0 -5 -9 -6 -20 -3 -11 3 -55 0 -97 -6 -43 -6 -100 -13 -128 -17 -27 -3 -51 -9 -53 -13 -1 -3 -23 -4 -48 -2 -32 2 -49 -1 -55 -10 -5 -8 -9 -9 -9 -4 0 12 -231 -1 -240 -13 -3 -4 -227 -7 -497 -7 -271 0 -493 -3 -493 -7 0 -5 -7 -8 -15 -8 -8 0 -15 4 -15 9 0 4 -79 12 -175 17 -96 5 -175 6 -175 2 0 -5 -7 -8 -15 -8 -8 0 -15 4 -15 9 0 5 -42 12 -92 15 -51 4 -174 17 -273 28 -99 11 -207 21 -240 22 -33 0 -62 4 -65 8 -9 11 -142 30 -169 23 -13 -3 -27 -1 -31 5 -9 14 -176 43 -202 34 -11 -3 -23 -1 -27 5 -9 14 -149 43 -174 35 -11 -3 -23 -1 -27 6 -10 16 -85 32 -115 24 -14 -4 -25 -2 -25 4 0 6 -9 8 -20 5 -11 -3 -20 -1 -20 5 0 15 -68 33 -97 26 -13 -4 -23 -2 -23 5 0 6 -7 8 -15 4 -9 -3 -22 2 -29 12 -9 13 -27 18 -60 18 -25 0 -46 4 -46 9 0 4 -5 8 -11 8 -7 0 -9 -25 -5 -77z"></path>
            <path id="pDrp2sTp8"
                d="M13660 7901 c0 -5 -9 -7 -20 -4 -11 3 -20 1 -20 -3 0 -5 -21 -10 -47 -10 -26 -1 -49 -6 -50 -11 -2 -6 -15 -8 -28 -5 -14 2 -25 0 -25 -5 0 -5 -13 -8 -30 -5 -16 2 -30 0 -30 -5 0 -6 -11 -8 -25 -5 -14 2 -25 0 -25 -4 0 -5 -30 -9 -67 -10 -37 -1 -68 -5 -70 -10 -2 -5 -21 -8 -43 -6 -22 2 -40 0 -40 -5 0 -5 -18 -7 -40 -5 -22 2 -40 0 -40 -5 0 -4 -20 -7 -45 -5 -28 3 -45 0 -45 -7 0 -6 -6 -8 -14 -5 -14 5 -33 -23 -92 -136 -115 -220 -321 -488 -566 -734 -70 -71 -128 -134 -128 -139 0 -6 -3 -7 -6 -4 -4 4 -41 -22 -83 -56 -193 -160 -418 -316 -586 -407 -91 -49 -90 -48 -84 -55 11 -11 292 80 479 155 151 60 443 205 555 275 102 64 283 188 360 248 327 255 666 618 861 922 32 50 33 55 14 55 -11 0 -20 -4 -20 -9z"></path>
            <path id="p4Zwg5qHi"
                d="M11573 7760 c-159 -212 -227 -294 -353 -421 -258 -260 -488 -423 -825 -585 -128 -62 -401 -168 -488 -189 -15 -4 -27 -11 -27 -16 0 -5 -7 -6 -15 -3 -8 4 -15 2 -15 -4 0 -6 -9 -8 -20 -5 -11 3 -20 1 -20 -3 0 -5 -16 -9 -36 -10 -20 0 -39 -5 -42 -10 -4 -5 -20 -9 -37 -10 -16 0 -64 -8 -105 -17 -83 -17 -195 -35 -280 -44 -30 -3 -58 -10 -62 -17 -4 -6 -8 -7 -8 -1 0 13 -164 7 -168 -6 -5 -12 -52 -11 -52 1 0 6 -9 10 -20 10 -45 0 -13 -18 118 -67 228 -85 495 -154 747 -192 193 -29 247 -34 455 -38 l225 -5 145 50 c400 138 730 302 1012 503 322 230 626 528 812 797 80 117 177 287 168 296 -9 10 -62 6 -62 -4 0 -10 -62 -14 -72 -4 -9 8 -378 10 -378 2 0 -5 -16 -8 -35 -8 -19 0 -35 5 -35 11 0 8 -32 10 -105 7 -60 -2 -105 0 -105 6 0 5 -39 7 -90 4 -49 -3 -90 -2 -90 2 0 5 -23 10 -52 12 -51 3 -52 3 -85 -42z"></path>
        </g>
    </g>
    <g id="l6dFppKxDqZhYJybcAUqtzR" fill="rgb(140,149,166)" style="transform: none;">
        <g style="transform: none;"></g>
    </g>
    <g id="l12zBd9Es2z82Ljyg8lGyWw" fill="rgb(125,136,154)" style="transform: none;">
        <g style="transform: none;"></g>
    </g>
    <g id="l1IpCmGzSxeww2z021kN75W" fill="rgb(108,120,141)" style="transform: none;">
        <g style="transform: none;"></g>
    </g>
    <g id="lxyr2KV5ifTxMLJOuh09ig" fill="rgb(86,100,125)" style="transform: none;">
        <g style="transform: none;"></g>
    </g>
    <g id="lE9XK0SNV0Pj1RoFEDz80a" fill="rgb(68,83,115)" style="transform: none;">
        <g style="transform: none;"></g>
    </g>
    <g id="l6jZ14g64Hv2Uc3hYtQYO72" fill="rgb(47,64,102)" style="transform: none;">
        <g style="transform: none;">
            <path id="p1CqshuGKV"
                d="M10480 13371 c0 -19 34 -31 86 -31 19 0 24 5 24 25 0 24 -3 25 -55 25 -47 0 -55 -3 -55 -19z"></path>
            <path id="p1GIIN8xhR"
                d="M10278 13363 c-29 -7 -20 -30 13 -37 62 -12 79 -8 79 19 0 22 -4 25 -37 24 -21 -1 -46 -3 -55 -6z"></path>
            <path id="p14hFV12HF"
                d="M12190 12498 c0 -46 1 -47 34 -53 67 -13 70 -3 16 50 l-50 49 0 -46z"></path>
            <path id="p15PVDjew9"
                d="M13380 10814 c0 -16 8 -23 31 -28 61 -12 79 -8 79 18 0 22 -5 24 -55 28 -51 3 -55 1 -55 -18z"></path>
            <path id="pc7KrnLvh"
                d="M11280 7818 c0 -25 3 -28 33 -28 21 0 36 7 45 20 14 23 10 26 -45 33 -30 3 -33 1 -33 -25z"></path>
        </g>
    </g>
    <g id="l2mWYMROP7TrByT6hijo2kf" fill="rgb(23,43,83)" style="transform: none;">
        <g style="transform: none;">
            <path id="paswsuwyZ"
                d="M10618 13393 c-32 -2 -58 -8 -58 -13 0 -5 -13 -5 -29 0 -32 9 -184 -5 -189 -18 -1 -4 -18 -6 -37 -4 -53 6 -365 -50 -365 -66 0 -4 38 -22 84 -40 351 -135 707 -359 963 -605 53 -51 84 -75 87 -66 30 97 56 158 95 215 90 134 240 222 398 232 46 2 83 8 83 12 0 15 -273 186 -385 240 -195 95 -243 108 -430 113 -88 2 -186 3 -217 0z"></path>
            <path id="pmwYKbQSE"
                d="M9325 12959 c-311 -137 -652 -282 -785 -334 -560 -218 -1133 -316 -1672 -286 -251 15 -498 49 -622 87 -48 15 5 -21 102 -70 305 -153 561 -229 912 -272 187 -23 565 -15 729 15 409 74 696 170 1243 416 181 82 213 94 227 82 9 -7 106 -92 216 -188 587 -513 1004 -859 1035 -859 16 0 316 234 688 537 l53 43 37 -16 c24 -11 71 -17 131 -19 l94 -2 56 -59 c31 -33 198 -208 371 -389 173 -182 360 -377 415 -435 55 -58 150 -157 210 -220 61 -63 173 -181 249 -262 l138 -148 -9 -55 c-27 -154 55 -303 205 -373 49 -23 70 -27 147 -26 83 0 95 3 153 34 127 67 196 181 196 320 -1 139 -72 254 -194 315 -65 33 -176 47 -191 24 -7 -12 -9 -12 -9 0 0 9 -7 11 -21 8 -14 -4 -28 2 -43 17 -11 12 -104 111 -206 221 -320 345 -479 515 -645 690 -89 94 -249 264 -356 379 l-194 208 4 78 c9 218 -128 388 -332 407 -129 12 -261 -55 -334 -170 -25 -40 -58 -168 -50 -198 3 -9 2 -21 -2 -26 -10 -16 -562 -423 -572 -423 -14 0 -334 275 -998 858 -102 89 -193 162 -201 162 -8 -1 -87 -33 -175 -71z"></path>
            <path id="pledAPaeZ"
                d="M12208 12491 c-21 -21 -23 -64 -5 -83 26 -28 234 -255 269 -295 42 -48 76 -69 89 -56 16 16 -171 275 -287 400 -47 49 -50 51 -66 34z"></path>
            <path id="pyKxgHM2B"
                d="M9357 12313 c-4 -3 -7 -18 -7 -33 0 -34 -52 -345 -140 -830 -237 -1315 -314 -2552 -225 -3604 8 -93 16 -170 18 -173 12 -11 261 71 385 128 195 89 427 246 574 388 l68 66 -34 101 c-207 604 -226 1395 -49 2114 90 367 209 703 363 1022 l32 66 -39 35 c-21 19 -81 70 -133 114 -52 45 -184 158 -294 252 -240 207 -317 266 -418 320 -78 42 -90 46 -101 34z"></path>
            <path id="p10Nyw4Xqp"
                d="M7286 11848 c-7 -18 -36 -85 -64 -148 -381 -870 -496 -1809 -342 -2800 42 -273 100 -509 137 -563 55 -79 307 -292 473 -399 107 -69 247 -145 254 -137 3 3 -11 50 -30 105 -127 353 -232 878 -270 1354 -19 245 -14 760 10 985 57 531 158 970 327 1415 39 102 73 192 76 202 4 14 -4 16 -74 12 -147 -8 -453 -9 -453 -2 0 22 -32 4 -44 -24z"></path>
            <path id="p14NaGtNiQ"
                d="M11750 10610 c-462 -29 -916 -86 -1340 -170 -249 -50 -252 -51 -268 -82 -36 -74 -93 -437 -108 -680 l-7 -118 29 -11 c46 -17 315 -84 494 -123 1190 -255 2669 -273 3659 -45 l88 20 12 67 c28 168 43 340 44 517 0 224 -17 381 -43 395 -21 11 -228 70 -247 70 -7 0 -13 -11 -13 -26 0 -14 -7 -53 -16 -87 -53 -205 -228 -368 -444 -413 -126 -27 -271 -2 -379 65 -28 17 -51 26 -51 21 0 -6 -4 -10 -10 -10 -5 0 -10 8 -10 18 0 10 -21 38 -46 62 -105 101 -160 225 -172 386 -6 80 -9 89 -35 107 -15 12 -53 25 -85 29 -85 12 -884 18 -1052 8z"></path>
            <path id="pNC2gNX75"
                d="M10115 8059 c-225 -201 -374 -306 -571 -406 -320 -162 -650 -243 -991 -243 -476 0 -906 150 -1319 461 -67 51 -113 79 -126 77 -19 -3 -16 -10 27 -73 235 -345 565 -694 880 -931 156 -118 363 -249 417 -265 132 -37 563 -60 788 -40 715 62 1386 365 1860 840 182 183 346 402 260 349 -14 -9 -21 -8 -33 4 -9 8 -44 18 -79 22 -92 11 -396 72 -523 106 -61 16 -196 57 -300 91 -105 33 -197 63 -205 65 -9 3 -44 -21 -85 -57z"></path>
        </g>
    </g>
    <g id="l1EcHzZxxj7Su4Y2bE4niw6" fill="rgb(7,28,69)" style="transform: none;">
        <g style="transform: none;">
            <path id="p1HbgPMJT6"
                d="M9862 12702 c-10 -7 -8 -13 7 -26 21 -19 37 -7 27 19 -6 17 -15 18 -34 7z"></path>
            <path id="poOuAU1II"
                d="M7623 12373 c-7 -2 -13 -11 -13 -19 0 -18 -8 -18 -27 2 -11 11 -19 12 -26 5 -21 -21 8 -32 64 -25 30 4 48 9 42 11 -7 3 -13 11 -13 19 0 14 -6 16 -27 7z"></path>
            <path id="pBK0yFAxH"
                d="M7672 12368 c3 -7 17 -14 33 -16 26 -3 27 -2 12 12 -19 19 -50 21 -45 4z"></path>
            <path id="pxnqEldeM"
                d="M6366 12351 c56 -34 94 -52 94 -43 0 8 -103 62 -118 62 -4 0 7 -9 24 -19z"></path>
            <path id="phhfOverQ"
                d="M6830 12323 c0 -8 13 -13 30 -13 17 0 30 4 30 9 0 5 10 12 23 14 12 3 -2 4 -30 3 -35 -1 -53 -5 -53 -13z"></path>
            <path id="pI5UUpf7B"
                d="M6700 12210 c0 -4 11 -11 24 -14 13 -3 32 -9 43 -12 13 -5 15 -4 7 5 -13 15 -74 32 -74 21z"></path>
            <path id="p17ZRR2Qpa"
                d="M7058 12118 c9 -9 15 -9 24 0 9 9 7 12 -12 12 -19 0 -21 -3 -12 -12z"></path>
            <path id="pnRe0S5GA"
                d="M7103 12114 c5 -5 21 -10 35 -11 63 -6 98 -11 113 -17 10 -4 20 -3 23 3 8 13 -14 19 -104 27 -43 4 -71 3 -67 -2z"></path>
            <path id="pf0MMqCpe"
                d="M7865 12103 c-39 -9 -40 -23 -1 -23 25 0 35 4 30 11 -5 8 1 10 19 7 14 -3 32 -1 39 3 14 9 -51 10 -87 2z"></path>
            <path id="pibjWrvtq"
                d="M9320 12091 c0 -12 5 -21 10 -21 6 0 10 6 10 14 0 8 -4 18 -10 21 -5 3 -10 -3 -10 -14z"></path>
            <path id="pOP4Iw49K"
                d="M9307 12004 c-8 -45 4 -81 14 -44 10 36 10 80 0 80 -4 0 -11 -16 -14 -36z"></path>
            <path id="p2PYHzFhP"
                d="M7276 11817 c-16 -34 -35 -74 -42 -89 -10 -23 -10 -28 1 -28 7 0 18 13 25 30 7 16 18 35 26 41 8 6 14 19 14 29 0 25 19 30 118 30 96 0 128 6 135 24 3 8 -14 12 -54 14 -33 2 -59 -1 -59 -6 0 -5 -9 -12 -20 -15 -12 -3 -20 0 -20 8 0 14 -31 25 -70 24 -21 0 -30 -10 -54 -62z"></path>
            <path id="pUmJvVEx5"
                d="M9280 11770 c0 -11 -4 -20 -8 -20 -5 0 -9 -7 -9 -16 0 -14 2 -14 14 2 13 17 18 54 8 54 -3 0 -5 -9 -5 -20z"></path>
            <path id="pgkaNik5O"
                d="M7678 11493 c-9 -16 -19 -48 -23 -71 -6 -39 -5 -43 11 -40 11 2 20 13 22 28 2 14 8 29 13 35 5 5 9 18 9 30 0 12 5 26 12 33 9 9 8 12 -8 12 -11 0 -27 -12 -36 -27z"></path>
            <path id="pSUCCi0ci"
                d="M7029 11173 c-1 -5 -1 -12 0 -17 4 -20 -11 -66 -20 -60 -9 5 -13 -14 -9 -55 1 -13 -3 -21 -8 -17 -5 3 -7 -5 -4 -19 2 -15 0 -25 -7 -25 -7 0 -9 -5 -5 -11 10 -17 21 8 44 93 11 40 22 83 26 96 4 13 2 22 -5 22 -6 0 -12 -3 -12 -7z"></path>
            <path id="p1A5dY8PlS"
                d="M13143 11072 c-13 -2 -23 -7 -23 -13 0 -10 48 -24 56 -16 12 12 -12 32 -33 29z"></path>
            <path id="pCMHqp35U"
                d="M13246 10927 c3 -10 19 -24 35 -33 16 -8 29 -19 29 -24 0 -6 9 -10 20 -10 11 0 20 7 20 15 0 16 -30 35 -56 35 -10 0 -26 8 -36 17 -18 16 -18 16 -12 0z"></path>
            <path id="p11Tz1QNVI"
                d="M7491 10770 c-16 -72 -14 -92 6 -88 9 2 17 11 19 20 1 11 -3 15 -12 11 -8 -3 -14 -1 -14 5 0 5 9 12 20 15 11 3 20 12 20 21 0 10 -6 13 -15 10 -9 -4 -15 0 -15 9 0 8 9 17 21 20 22 6 18 27 -6 27 -8 0 -18 -20 -24 -50z"></path>
            <path id="pwPpnNUpw"
                d="M9969 10633 c-10 -3 -24 -30 -38 -78 -24 -85 -25 -95 -8 -95 15 0 36 46 42 95 3 20 10 45 16 57 12 23 10 26 -12 21z"></path>
            <path id="pmzi2Y3dn"
                d="M12680 10589 c14 -24 90 -28 90 -4 0 8 -3 15 -7 16 -5 1 -27 3 -50 4 -40 3 -42 2 -33 -16z"></path>
            <path id="pQupm1Ow9"
                d="M10644 10479 c-3 -6 -2 -15 4 -21 7 -7 14 -3 21 11 10 17 9 21 -3 21 -8 0 -18 -5 -22 -11z"></path>
            <path id="pJlqacXvV"
                d="M10583 10460 c-5 -17 -7 -18 -20 -4 -11 11 -19 12 -26 5 -19 -19 7 -33 46 -26 28 6 34 11 30 26 -7 25 -23 24 -30 -1z"></path>
            <path id="pYxycUZ2U"
                d="M9900 10430 c0 -24 25 -27 34 -4 9 23 8 24 -14 24 -13 0 -20 -7 -20 -20z"></path>
            <path id="pT4uUZP1a"
                d="M9908 10392 c-10 -2 -18 -8 -18 -13 0 -13 27 -11 35 2 9 13 4 16 -17 11z"></path>
            <path id="pFsjtvpr6"
                d="M10191 10383 c-8 -14 -12 -15 -19 -5 -19 28 -49 -47 -56 -138 -4 -61 4 -50 29 41 11 40 22 59 39 67 13 6 26 20 29 31 6 25 -8 28 -22 4z"></path>
            <path id="pu5ds9xED"
                d="M9880 10340 c0 -5 6 -10 14 -10 8 0 18 5 21 10 3 6 -3 10 -14 10 -12 0 -21 -4 -21 -10z"></path>
            <path id="pbaKsXYa8"
                d="M13215 10254 c11 -10 26 -25 33 -33 7 -9 12 -10 12 -4 0 7 -15 22 -32 34 -24 16 -28 17 -13 3z"></path>
            <path id="pzTbQLcne"
                d="M13735 10250 c-3 -5 1 -10 9 -10 8 0 18 5 21 10 3 6 -1 10 -9 10 -8 0 -18 -4 -21 -10z"></path>
            <path id="pMKMr3DCn"
                d="M6840 10220 c-1 -3 -4 -18 -6 -34 -2 -20 0 -26 7 -19 6 6 9 21 6 34 -2 13 -5 22 -7 19z"></path>
            <path id="p1DKQoVHyr"
                d="M13284 10191 c21 -23 26 -26 26 -11 0 5 -10 15 -22 21 -23 12 -23 12 -4 -10z"></path>
            <path id="pF0Cvyv02"
                d="M13948 10154 c-5 -4 -8 -16 -8 -28 0 -14 3 -17 11 -9 6 6 9 19 7 28 -1 9 -6 13 -10 9z"></path>
            <path id="p1H8aLVkJI"
                d="M13033 10115 c-13 -15 8 -55 51 -94 14 -14 26 -30 26 -37 0 -6 20 -15 45 -18 25 -4 45 -11 45 -15 0 -7 43 -31 55 -31 9 0 5 39 -5 45 -5 3 -10 1 -10 -4 0 -6 -6 -11 -14 -11 -9 0 -12 7 -9 20 3 12 0 20 -7 20 -14 0 -90 61 -135 107 -24 25 -32 29 -42 18z"></path>
            <path id="pgIGF98jJ"
                d="M13882 10077 c-31 -32 -41 -57 -23 -57 11 0 71 67 71 80 0 18 -16 10 -48 -23z"></path>
            <path id="pqBFHBzkG"
                d="M10054 9889 c-1 -15 3 -26 7 -23 11 6 12 41 2 47 -5 3 -8 -8 -9 -24z"></path>
            <path id="pT07ELyt2"
                d="M9001 9833 c0 -12 -4 -30 -7 -40 -5 -17 -5 -17 6 0 6 10 9 28 7 40 -4 22 -4 22 -6 0z"></path>
            <path id="poM2JplaH"
                d="M9790 9700 c0 -5 6 -10 14 -10 8 0 17 -10 19 -22 3 -14 4 -10 4 10 -1 24 -6 32 -19 32 -10 0 -18 -4 -18 -10z"></path>
            <path id="pkqctdV7T"
                d="M14318 9703 c-22 -6 -25 -53 -3 -53 8 0 15 3 16 8 0 4 2 17 3 30 2 12 2 21 2 21 -1 -1 -9 -3 -18 -6z"></path>
            <path id="pdNDIj9vn"
                d="M10033 9620 c5 -68 3 -65 37 -75 24 -7 24 -6 6 7 -14 11 -20 32 -24 72 -2 31 -9 56 -14 56 -5 0 -8 -26 -5 -60z"></path>
            <path id="p1Eac29Pxd"
                d="M6821 9423 c1 -10 5 -29 9 -43 7 -22 8 -21 9 12 1 20 -3 40 -9 43 -5 3 -10 -2 -9 -12z"></path>
            <path id="pO39nSfnG"
                d="M7446 9023 c-17 -5 -18 -12 -13 -78 4 -39 9 -79 13 -89 8 -20 34 -21 34 -1 0 8 -7 15 -15 15 -8 0 -15 7 -15 15 0 8 4 15 9 15 5 0 11 11 13 24 4 19 1 22 -14 18 -22 -5 -24 14 -3 34 12 12 23 58 13 53 -2 -1 -11 -3 -22 -6z"></path>
            <path id="p1tneQJBF"
                d="M9850 8970 c0 -5 -7 -10 -15 -10 -8 0 -15 -7 -15 -16 0 -24 33 -12 36 14 2 12 2 22 -1 22 -3 0 -5 -4 -5 -10z"></path>
            <path id="pelcj67QN"
                d="M7470 8720 c0 -5 6 -10 14 -10 8 0 18 5 21 10 3 6 -3 10 -14 10 -12 0 -21 -4 -21 -10z"></path>
            <path id="pNwT0o7Az"
                d="M9860 8700 c0 -5 6 -10 14 -10 8 0 18 5 21 10 3 6 -3 10 -14 10 -12 0 -21 -4 -21 -10z"></path>
            <path id="p1KcrdOhk"
                d="M9888 8673 c-10 -2 -18 -11 -18 -19 0 -12 4 -12 20 -4 11 6 20 15 20 20 0 6 -1 9 -2 9 -2 -1 -11 -3 -20 -6z"></path>
            <path id="pjx3Tf0lL"
                d="M9880 8614 c0 -9 7 -14 17 -12 25 5 28 28 4 28 -12 0 -21 -6 -21 -16z"></path>
            <path id="pKf2AtFHR"
                d="M6940 8583 c0 -5 5 -26 12 -48 14 -49 12 -39 27 -106 6 -31 18 -65 26 -75 13 -18 14 -16 15 19 0 20 5 37 11 37 5 0 7 5 4 10 -4 6 -10 8 -15 5 -12 -8 -27 22 -35 70 -8 52 -25 95 -36 95 -5 0 -9 -3 -9 -7z"></path>
            <path id="p4EDIAPql"
                d="M9890 8566 c0 -7 12 -16 26 -19 19 -3 24 -1 20 10 -3 8 -6 17 -6 19 0 2 -9 4 -20 4 -11 0 -20 -6 -20 -14z"></path>
            <path id="p17QJhbDgt"
                d="M8964 8171 c0 -22 4 -37 9 -34 10 6 9 61 -2 67 -5 3 -8 -12 -7 -33z"></path>
            <path id="pLKiEP0I8"
                d="M9850 8115 c-9 -11 -10 -15 -1 -15 7 0 19 7 27 15 13 13 13 15 1 15 -8 0 -20 -7 -27 -15z"></path>
            <path id="pYDdAQpYr"
                d="M7628 8112 c-19 -4 -23 -28 -10 -49 12 -19 34 1 30 28 -2 17 -8 23 -20 21z"></path>
            <path id="p1HJ5pbyiw"
                d="M10101 8042 c-7 -13 -11 -26 -8 -28 8 -8 29 25 25 38 -3 8 -9 4 -17 -10z"></path>
            <path id="plsWKLqnE"
                d="M7350 8039 c0 -6 9 -13 20 -16 11 -3 20 -9 20 -13 0 -4 32 -28 70 -54 39 -25 70 -42 70 -36 0 6 -24 26 -54 45 -30 19 -58 39 -61 45 -11 17 -65 42 -65 29z"></path>
            <path id="p9FAIiUZx"
                d="M9755 8040 c-3 -5 1 -10 9 -10 8 0 18 5 21 10 3 6 -1 10 -9 10 -8 0 -18 -4 -21 -10z"></path>
            <path id="plYy9pN53"
                d="M7630 8030 c0 -5 7 -10 15 -10 8 0 15 5 15 10 0 6 -7 10 -15 10 -8 0 -15 -4 -15 -10z"></path>
            <path id="pm6fVrOBb"
                d="M7060 8005 c0 -11 42 -79 54 -87 15 -11 46 -10 46 1 0 5 -22 28 -50 51 -27 23 -50 39 -50 35z"></path>
            <path id="ptk4AvFcE"
                d="M10032 7987 c-29 -30 -30 -57 -2 -32 11 10 20 24 20 32 0 8 5 11 10 8 6 -3 10 -1 10 4 0 18 -15 13 -38 -12z"></path>
            <path id="p1Cc57LekF"
                d="M9960 7921 c-6 -12 -18 -21 -27 -21 -12 0 -14 -3 -7 -10 15 -15 42 -2 50 22 8 28 -2 34 -16 9z"></path>
            <path id="p6R2Ba7M2"
                d="M7219 7849 c-11 -7 -11 -9 -1 -9 7 0 11 -4 8 -9 -3 -5 1 -15 10 -22 13 -10 17 -10 25 2 5 8 9 19 9 25 0 15 -34 24 -51 13z"></path>
            <path id="pwMVeiMPo"
                d="M9424 7845 c-12 -8 -46 -24 -77 -35 -59 -22 -94 -50 -63 -50 10 0 14 5 11 10 -3 6 4 10 17 10 35 0 108 31 108 46 0 9 12 14 33 14 24 0 28 3 17 10 -20 13 -22 13 -46 -5z"></path>
            <path id="p1QpJKYiZ"
                d="M7289 7799 c-10 -6 -11 -11 -3 -19 11 -11 44 -4 44 10 0 13 -26 19 -41 9z"></path>
            <path id="p18JRgrINm"
                d="M7220 7764 c0 -6 27 -45 60 -88 33 -43 60 -72 60 -65 0 8 -25 46 -56 84 -67 83 -64 81 -64 69z"></path>
            <path id="p12RiDgGQZ"
                d="M7361 7751 c-9 -6 -10 -11 -2 -15 13 -8 31 1 31 15 0 11 -11 11 -29 0z"></path>
            <path id="pM8qZMj3d"
                d="M9605 7676 c-13 -13 -26 -21 -29 -18 -3 3 -6 -2 -6 -11 0 -9 2 -17 5 -17 6 0 65 58 65 65 0 11 -12 4 -35 -19z"></path>
            <path id="plMGFHlu2"
                d="M9550 7644 c0 -8 -4 -12 -10 -9 -5 3 -10 -1 -10 -9 0 -10 6 -13 15 -10 13 6 22 44 10 44 -3 0 -5 -7 -5 -16z"></path>
            <path id="pUgw92Q6I"
                d="M9439 7589 c-17 -17 -23 -19 -30 -8 -6 10 -9 8 -9 -8 0 -27 1 -27 45 -9 19 8 35 22 35 30 0 22 -16 20 -41 -5z"></path>
            <path id="p5mbHTXSf"
                d="M9350 7551 c0 -12 5 -21 10 -21 6 0 10 6 10 14 0 8 -4 18 -10 21 -5 3 -10 -3 -10 -14z"></path>
            <path id="pUhjjrlKy"
                d="M8873 7420 c-5 -20 -23 -28 -23 -10 0 6 -9 10 -20 10 -11 0 -20 -7 -20 -15 0 -18 -36 -20 -43 -2 -2 6 -8 9 -12 5 -19 -18 10 -29 58 -23 105 12 132 20 135 38 2 9 -1 17 -7 17 -6 0 -11 -7 -11 -15 0 -8 -4 -15 -10 -15 -5 0 -10 4 -10 9 0 5 -7 12 -16 15 -11 4 -18 -1 -21 -14z"></path>
            <path id="p7S3bWmJ6"
                d="M7611 7303 c0 -5 18 -24 40 -43 22 -19 65 -61 96 -92 31 -32 60 -58 65 -58 16 0 -15 46 -45 66 -20 12 -31 27 -29 38 2 10 -1 15 -7 12 -5 -4 -33 14 -61 39 -51 45 -61 51 -59 38z"></path>
            <path id="p31o8hfDk"
                d="M8411 6686 c2 -2 18 -6 34 -10 22 -5 26 -4 15 4 -14 9 -59 15 -49 6z"></path>
        </g>
    </g>
</svg>
