<svg class="img-fluid" id="outputsvg" xmlns="http://www.w3.org/2000/svg" style="transform: matrix(0.769231, 0, 0, 0.769231, 0, 0); transform-origin: 50% 50%; cursor: move; max-height: none; transition: transform 200ms ease-in-out;" width="500" height="445" viewBox="0 0 5000 4450">
  <g id="l6wRBMbVC4dolT88yBLNxp8" fill="rgb(171,206,211)" style="transform: none;">
    <g style="transform: none;">
      <path id="p15ry3nFd8" d="M2758 4283 c-10 -2 -18 -11 -18 -19 0 -10 13 -14 45 -14 38 0 45 3 45 20 0 15 -6 20 -27 19 -16 -1 -36 -3 -45 -6z"/>
      <path id="p1Ew4qyf2k" d="M3090 4270 c0 -17 7 -20 50 -20 36 0 50 4 50 14 0 15 -30 26 -72 26 -21 0 -28 -5 -28 -20z"/>
      <path id="pf1DNSIE0" d="M2668 4273 c-33 -8 -20 -33 17 -33 28 0 35 4 35 20 0 20 -14 23 -52 13z"/>
      <path id="pEJhprtyY" d="M3200 4260 c0 -15 7 -20 28 -20 15 0 76 -11 137 -25 126 -29 155 -31 155 -11 0 15 -109 45 -240 65 -84 14 -80 14 -80 -9z"/>
      <path id="pPQ97d4th" d="M2303 4185 c-43 -18 -42 -35 2 -35 31 0 35 3 35 25 0 14 -1 25 -2 25 -2 -1 -18 -7 -35 -15z"/>
      <path id="pITonckRr" d="M2165 4131 c-49 -21 -187 -87 -305 -146 -118 -60 -276 -134 -349 -165 -141 -60 -168 -80 -107 -80 20 0 36 5 36 10 0 6 11 10 25 10 14 0 25 5 25 10 0 6 11 10 25 10 14 0 25 5 25 10 0 6 9 10 19 10 30 0 51 11 51 26 0 9 11 14 30 14 30 0 372 164 378 181 2 5 10 9 18 9 19 0 104 42 104 52 0 4 11 8 24 8 14 0 31 7 40 15 8 8 24 15 35 15 16 0 21 6 21 25 0 14 -1 25 -2 25 -2 0 -43 -18 -93 -39z"/>
      <path id="pVDAQuwXC" d="M3650 4145 c0 -22 4 -25 35 -25 22 0 35 -5 35 -13 0 -13 59 -47 81 -47 6 0 17 -7 25 -15 9 -8 31 -15 50 -15 27 0 34 -4 34 -20 0 -16 7 -20 35 -20 19 0 35 4 35 8 0 10 -161 101 -235 132 -98 43 -95 42 -95 15z"/>
      <path id="pXTcYBffz" d="M4050 3931 c0 -24 4 -31 20 -31 11 0 20 -7 20 -15 0 -8 8 -15 19 -15 10 0 21 -9 24 -20 4 -15 14 -20 36 -20 26 0 31 -4 31 -23 0 -27 58 -87 83 -87 10 0 17 -8 17 -18 0 -20 59 -82 78 -82 7 0 12 -9 12 -20 0 -11 9 -25 20 -32 11 -7 20 -19 20 -26 0 -7 7 -15 15 -18 8 -4 15 -13 15 -20 0 -8 7 -17 15 -20 8 -4 15 -12 15 -20 0 -8 7 -14 15 -14 8 0 15 -9 15 -20 0 -11 5 -20 10 -20 6 0 10 -7 10 -15 0 -8 4 -15 9 -15 5 0 12 -11 15 -25 4 -14 13 -25 21 -25 8 0 15 -9 15 -19 0 -35 12 -51 36 -51 13 0 24 3 24 8 0 15 -99 171 -166 262 -113 153 -261 301 -398 398 l-46 33 0 -30z"/>
      <path id="pXHF4c4Nu" d="M2860 3870 c0 -17 7 -20 43 -20 56 0 87 9 87 26 0 11 -16 14 -65 14 -58 0 -65 -2 -65 -20z"/>
      <path id="pDLZhgQ7T" d="M3050 3876 c0 -17 31 -26 88 -26 35 0 42 3 42 20 0 18 -7 20 -65 20 -49 0 -65 -3 -65 -14z"/>
      <path id="pM7W9T8di" d="M2675 3860 c-119 -24 -255 -61 -255 -70 0 -4 -18 -10 -40 -14 -22 -3 -40 -11 -40 -16 0 -6 -9 -10 -20 -10 -24 0 -70 -21 -70 -32 0 -4 -9 -8 -20 -8 -29 0 -70 -21 -70 -37 0 -8 -12 -13 -30 -13 -32 0 -100 -29 -100 -42 0 -4 -9 -8 -20 -8 -24 0 -70 -21 -70 -32 0 -4 -11 -8 -24 -8 -14 0 -31 -7 -40 -15 -8 -8 -24 -15 -35 -15 -12 0 -21 -4 -21 -10 0 -5 -8 -10 -18 -10 -10 0 -52 -11 -93 -26 -103 -35 -300 -83 -376 -90 -52 -6 -63 -10 -63 -25 0 -23 11 -24 126 -4 232 40 394 95 739 252 310 140 427 178 678 218 23 4 37 11 37 20 0 20 -60 18 -175 -5z"/>
      <path id="p1GmE2Ufg2" d="M3190 3865 c0 -9 14 -16 38 -20 236 -37 371 -78 557 -170 72 -35 171 -91 220 -123 261 -173 533 -460 688 -724 29 -49 55 -88 59 -88 5 0 8 13 8 30 0 31 -19 80 -31 80 -4 0 -10 11 -13 25 -4 14 -11 25 -16 25 -6 0 -10 7 -10 15 0 8 -4 15 -10 15 -5 0 -10 7 -10 15 0 8 -4 15 -10 15 -5 0 -10 7 -10 15 0 9 -7 18 -15 21 -8 4 -15 12 -15 20 0 8 -4 14 -10 14 -5 0 -10 7 -10 16 0 9 -9 18 -19 21 -11 3 -21 15 -23 27 -2 13 -11 22 -25 24 -15 2 -23 11 -25 30 -2 22 -9 28 -35 30 -30 3 -33 7 -33 35 0 43 -100 147 -142 147 -23 0 -28 5 -28 23 0 29 -18 47 -46 47 -16 0 -24 7 -26 23 -2 14 -11 23 -24 25 -12 2 -24 12 -27 23 -3 10 -12 19 -21 19 -9 0 -16 5 -16 10 0 6 -9 10 -20 10 -11 0 -20 7 -20 15 0 8 -7 15 -15 15 -8 0 -15 5 -15 10 0 6 -11 10 -25 10 -16 0 -25 6 -25 15 0 8 -7 15 -15 15 -8 0 -15 4 -15 8 0 13 -48 32 -80 32 -22 0 -30 5 -30 18 0 18 -56 52 -86 52 -9 0 -22 7 -30 15 -9 8 -26 15 -40 15 -13 0 -24 5 -24 10 0 6 -11 10 -25 10 -14 0 -25 4 -25 9 0 11 -164 57 -274 76 -114 19 -156 20 -156 0z"/>
      <path id="pfhb1nC97" d="M2784 3745 c-111 -17 -160 -29 -157 -39 1 -4 44 -27 95 -50 126 -57 243 -127 336 -203 75 -61 77 -62 80 -37 4 30 -13 54 -38 54 -10 0 -20 9 -23 20 -3 12 -14 20 -26 20 -12 0 -21 6 -21 15 0 8 -7 15 -15 15 -8 0 -15 5 -15 10 0 6 -7 10 -15 10 -8 0 -15 5 -15 10 0 6 -7 10 -15 10 -8 0 -15 4 -15 8 0 13 -48 32 -80 32 -22 0 -30 5 -30 18 0 20 -38 42 -70 42 -27 0 -25 17 3 23 12 3 61 9 110 13 76 6 87 9 87 25 0 23 -38 24 -176 4z"/>
      <path id="pZfNkfh8Z" d="M3110 3744 c0 -14 14 -23 58 -37 64 -20 102 -22 102 -6 0 13 -80 49 -126 56 -29 5 -34 3 -34 -13z"/>
      <path id="p159SI3ezh" d="M133 3685 c56 -51 177 -138 211 -151 12 -5 16 0 16 20 0 21 -5 26 -25 26 -16 0 -25 6 -25 15 0 8 -9 15 -20 15 -11 0 -20 7 -20 15 0 8 -7 15 -15 15 -8 0 -15 5 -15 10 0 6 5 10 10 10 6 0 10 6 10 14 0 10 -20 19 -57 27 -32 6 -67 18 -78 25 -11 8 -26 14 -35 14 -8 -1 10 -24 43 -55z"/>
      <path id="pD74tKLKW" d="M3300 3666 c0 -17 7 -27 22 -32 35 -11 47 -27 32 -42 -7 -7 -22 -12 -34 -12 -13 0 -20 -7 -20 -19 0 -15 -8 -21 -32 -23 -25 -2 -34 -8 -36 -25 -2 -13 -10 -23 -18 -23 -8 0 -14 -10 -14 -25 0 -14 -6 -25 -13 -25 -8 0 -18 -16 -24 -34 -9 -29 -8 -37 7 -51 17 -15 19 -13 34 33 33 99 119 169 222 179 30 3 54 8 54 11 0 11 -156 112 -173 112 -4 0 -7 -11 -7 -24z"/>
      <path id="ptYWHKlaX" d="M3544 3657 c16 -12 49 -39 74 -59 26 -21 49 -34 52 -29 3 5 21 1 40 -10 l35 -18 -29 -1 c-28 0 -25 -4 65 -97 86 -89 217 -258 265 -340 21 -37 54 -45 54 -13 0 11 -4 20 -10 20 -5 0 -10 7 -10 15 0 8 -7 15 -15 15 -9 0 -15 9 -15 25 0 14 -4 25 -10 25 -5 0 -10 7 -10 15 0 9 -7 18 -15 21 -8 4 -15 12 -15 20 0 8 -4 14 -10 14 -5 0 -10 7 -10 15 0 9 -6 18 -14 21 -8 3 -16 14 -19 25 -3 10 -12 19 -20 19 -9 0 -17 10 -19 23 -2 17 -11 23 -35 25 -30 3 -33 7 -33 35 0 22 -10 41 -35 67 l-35 35 40 -3 c22 -2 40 0 40 6 0 13 -120 75 -228 117 -105 40 -118 42 -78 12z"/>
      <path id="plMCSfnPO" d="M310 3651 c0 -16 12 -20 75 -30 42 -6 87 -11 100 -11 38 0 31 28 -7 34 -18 3 -60 10 -92 16 -77 13 -76 13 -76 -9z"/>
      <path id="pB9srzhqF" d="M858 3643 c-33 -8 -20 -33 17 -33 28 0 35 4 35 20 0 20 -14 23 -52 13z"/>
      <path id="pa7Pk82bC" d="M520 3620 c0 -18 7 -20 65 -20 49 0 65 3 65 14 0 17 -31 26 -87 26 -36 0 -43 -3 -43 -20z"/>
      <path id="p16dX6gEWM" d="M688 3633 c-10 -2 -18 -11 -18 -19 0 -11 15 -14 65 -14 58 0 65 2 65 20 0 17 -6 20 -47 19 -27 -1 -56 -3 -65 -6z"/>
      <path id="pHZTzgfSg" d="M2502 3631 c3 -8 391 -351 434 -384 l24 -19 0 29 c0 38 -16 53 -57 53 -30 0 -33 3 -33 28 0 35 -27 62 -63 62 -21 0 -27 5 -27 23 0 29 -18 47 -46 47 -15 0 -23 7 -26 25 -4 21 -2 23 13 15 10 -6 27 -10 38 -10 12 0 21 -7 21 -15 0 -9 9 -15 25 -15 16 0 25 -6 25 -15 0 -10 11 -15 35 -15 19 0 35 4 35 8 0 9 -162 106 -202 121 -25 9 -28 8 -28 -9 0 -15 -7 -20 -25 -20 -20 0 -25 5 -25 24 0 13 -6 28 -12 33 -18 14 -110 44 -106 34z"/>
      <path id="p16Mh7u05R" d="M2310 3544 c-370 -174 -650 -267 -877 -294 -159 -19 -163 -20 -163 -37 0 -14 11 -15 92 -9 145 11 440 73 458 96 3 4 21 10 40 14 49 9 170 57 170 68 0 4 8 8 19 8 25 0 121 41 121 51 0 5 9 9 19 9 30 0 51 11 51 26 0 9 11 14 29 14 16 0 51 9 77 20 42 18 49 19 64 5 9 -8 29 -15 43 -15 22 0 27 -5 27 -23 0 -29 29 -57 58 -57 14 0 22 -7 24 -22 2 -18 11 -24 36 -26 26 -3 32 -8 32 -26 0 -30 18 -46 52 -46 23 0 28 -4 28 -23 0 -13 5 -28 12 -35 7 -7 22 -12 35 -12 16 0 23 -6 23 -18 0 -25 31 -52 58 -52 15 0 22 -6 22 -18 0 -24 31 -52 58 -52 14 0 22 -7 24 -22 3 -20 10 -23 56 -26 42 -2 52 0 52 12 0 9 9 16 20 16 11 0 20 7 20 15 0 8 9 15 20 15 11 0 20 7 20 15 0 8 9 15 20 15 11 0 20 7 20 15 0 8 9 15 20 15 11 0 20 7 20 15 0 8 9 15 20 15 11 0 20 7 20 15 0 8 9 15 20 15 11 0 20 7 20 15 0 8 7 15 15 15 11 0 15 12 15 50 0 28 5 50 10 50 6 0 10 9 10 20 0 11 7 20 15 20 7 0 18 6 22 14 19 31 153 45 153 15 0 -5 11 -9 25 -9 19 0 25 -5 25 -22 1 -13 7 -34 15 -48 8 -14 14 -49 15 -77 0 -50 1 -53 26 -53 17 0 23 4 18 12 -4 7 -7 31 -5 54 5 77 -41 151 -114 185 -46 21 -75 23 -127 8 -66 -18 -128 -103 -128 -175 0 -13 -43 -52 -131 -117 -71 -54 -136 -100 -143 -103 -6 -2 -144 110 -306 251 -161 140 -298 255 -304 254 -6 0 -45 -16 -86 -35z"/>
      <path id="pqpNbyqsa" d="M430 3499 c0 -14 95 -55 198 -85 97 -28 210 -49 320 -60 69 -6 72 -6 72 15 0 18 -6 21 -43 21 -63 0 -218 28 -317 57 -47 14 -96 28 -110 31 -13 3 -31 11 -38 19 -16 15 -82 18 -82 2z"/>
      <path id="pnIWznB13" d="M3970 3431 c0 -24 4 -31 20 -31 11 0 20 -7 20 -15 0 -8 9 -15 20 -15 11 0 20 -7 20 -15 0 -10 10 -15 30 -15 25 0 30 -4 30 -24 0 -32 22 -48 62 -44 l33 3 -71 60 c-40 33 -93 75 -118 93 l-46 33 0 -30z"/>
      <path id="pAlQlB2fN" d="M2930 3401 c0 -26 4 -31 25 -31 18 0 25 -5 25 -20 0 -17 7 -20 38 -20 l37 1 -35 30 c-19 17 -47 39 -62 50 l-28 20 0 -30z"/>
      <path id="p1FMvwJ8NC" d="M1140 3370 c0 -16 7 -20 38 -20 52 0 82 10 82 26 0 10 -16 14 -60 14 -53 0 -60 -2 -60 -20z"/>
      <path id="pKys5OG5P" d="M2320 3365 c0 -22 2 -24 26 -15 22 9 31 6 64 -22 21 -18 130 -112 242 -208 255 -221 340 -290 353 -290 5 0 91 66 190 145 119 96 185 143 195 139 8 -4 38 -9 65 -11 38 -4 58 -13 83 -36 l32 -31 0 35 c0 55 -20 66 -138 74 -100 7 -103 7 -109 -14 -3 -12 -13 -21 -25 -21 -11 0 -22 -9 -25 -20 -3 -11 -14 -20 -25 -20 -11 0 -22 -8 -25 -19 -3 -11 -15 -21 -27 -23 -13 -2 -22 -11 -24 -25 -3 -17 -10 -23 -29 -23 -16 0 -27 -7 -30 -20 -3 -11 -14 -20 -25 -20 -11 0 -22 -9 -25 -20 -3 -11 -14 -20 -24 -20 -11 0 -19 -7 -19 -15 0 -8 -4 -15 -9 -15 -5 0 -11 7 -15 15 -3 8 -16 15 -30 15 -18 0 -25 6 -28 23 -2 13 -11 23 -23 25 -11 2 -25 13 -30 25 -6 12 -19 23 -30 25 -11 2 -25 13 -30 25 -6 13 -21 23 -37 25 -19 2 -28 9 -28 21 0 25 -20 41 -51 41 -23 0 -28 5 -31 28 -2 21 -9 28 -30 30 -19 2 -28 9 -28 21 0 25 -20 41 -52 41 -23 0 -28 4 -28 23 0 32 -18 47 -56 47 -30 0 -33 3 -36 33 -2 27 -8 33 -30 35 -16 2 -28 8 -28 13 0 5 -16 9 -35 9 -31 0 -35 -3 -35 -25z"/>
      <path id="p1BoPYBUvT" d="M2213 3338 c-13 -6 -23 -15 -23 -20 0 -4 -11 -8 -24 -8 -14 0 -31 -7 -40 -15 -8 -8 -20 -15 -28 -15 -16 0 -151 -52 -158 -61 -3 -3 -16 -8 -30 -11 -14 -3 -79 -20 -144 -37 -66 -17 -152 -34 -193 -38 -64 -5 -73 -8 -73 -26 0 -18 5 -19 68 -12 101 10 245 43 362 82 137 47 362 145 368 161 5 15 -53 15 -85 0z"/>
      <path id="pswf8uv4L" d="M3740 3301 c0 -22 20 -51 87 -125 74 -82 113 -113 113 -90 0 21 -174 244 -191 244 -5 0 -9 -13 -9 -29z"/>
      <path id="p10bRyla7Q" d="M764 3271 c10 -16 128 -74 211 -104 86 -31 235 -63 333 -73 69 -6 72 -6 72 15 0 17 -6 21 -33 21 -50 0 -214 30 -277 50 -55 18 -55 18 -17 19 25 1 37 6 37 16 0 15 -22 20 -135 30 -66 6 -136 18 -179 31 -12 4 -16 2 -12 -5z"/>
      <path id="p10oVgcPEM" d="M3030 3260 c0 -5 -7 -10 -15 -10 -10 0 -15 -10 -15 -30 l0 -31 44 31 c60 41 64 50 22 50 -20 0 -36 -4 -36 -10z"/>
      <path id="p11VwukaQh" d="M2257 2818 c-55 -330 -107 -695 -107 -755 0 -7 8 -13 18 -13 15 0 20 24 39 193 13 105 39 287 59 402 94 551 88 521 107 517 9 -2 17 -8 17 -13 0 -5 6 -9 14 -9 8 0 16 -7 20 -15 3 -8 14 -15 25 -15 10 0 21 -9 24 -20 4 -15 14 -20 36 -20 26 0 31 -4 31 -23 0 -13 5 -28 12 -35 7 -7 22 -12 35 -12 15 0 23 -6 23 -18 0 -26 20 -42 51 -42 23 0 28 -5 31 -27 2 -22 9 -29 30 -31 19 -2 28 -10 30 -25 2 -17 11 -23 36 -25 17 -2 32 1 32 5 0 13 -354 313 -413 351 -28 17 -58 32 -67 32 -12 0 -28 -74 -83 -402z"/>
      <path id="pWyiwJ9g4" d="M3670 3169 c0 -44 51 -99 93 -99 24 0 27 -4 27 -33 0 -44 91 -137 133 -137 l28 0 -20 28 c-12 15 -75 83 -141 152 l-120 125 0 -36z"/>
      <path id="pAV8rzzvu" d="M2121 3146 c-85 -37 -101 -56 -47 -56 20 0 36 5 36 10 0 6 11 10 25 10 16 0 25 6 25 15 0 8 5 15 11 15 6 0 8 -11 5 -27 -38 -185 -126 -737 -126 -790 0 -14 6 -23 15 -23 16 0 16 2 45 205 11 78 40 255 65 395 25 140 45 261 45 268 0 17 -16 14 -99 -22z"/>
      <path id="prGRcN0cD" d="M4690 3143 c0 -14 12 -59 28 -99 22 -61 31 -74 49 -74 l23 0 -26 73 c-32 89 -52 127 -64 127 -6 0 -10 -12 -10 -27z"/>
      <path id="pfKI56ITn" d="M4320 3114 l0 -37 -47 7 c-137 19 -163 19 -163 3 0 -10 12 -18 33 -21 17 -3 88 -15 156 -26 68 -11 126 -18 129 -16 4 5 -97 126 -104 126 -2 0 -4 -16 -4 -36z"/>
      <path id="pYDMapKpN" d="M1963 3088 c-45 -15 -43 -38 2 -38 31 0 35 3 35 25 0 14 -1 25 -2 24 -2 -1 -18 -6 -35 -11z"/>
      <path id="pHGx7aG6m" d="M1682 2973 c-94 -220 -173 -505 -197 -715 -6 -53 -5 -58 13 -58 16 0 20 13 31 95 7 52 28 157 48 232 19 76 40 159 46 186 6 26 14 47 19 47 4 0 10 17 14 38 4 20 10 39 13 42 13 10 61 135 61 158 0 38 -27 24 -48 -25z"/>
      <path id="pg6nZO06b" d="M1279 2964 c-111 -257 -167 -451 -204 -699 -20 -132 -19 -145 4 -145 15 0 19 10 24 68 8 101 52 305 93 433 20 63 41 133 47 157 6 23 15 42 19 42 5 0 8 9 8 21 0 11 7 27 15 35 8 9 15 25 15 36 0 11 11 31 25 44 25 23 33 44 16 44 -5 0 -16 3 -25 6 -12 5 -21 -7 -37 -42z"/>
      <path id="phsewmcVp" d="M1380 2980 c0 -18 7 -20 70 -20 39 0 70 -2 70 -5 0 -3 -16 -51 -35 -106 -70 -200 -125 -468 -141 -686 -6 -81 -5 -93 9 -93 18 0 20 9 37 170 24 225 84 472 164 673 l34 87 -104 0 c-97 0 -104 -1 -104 -20z"/>
      <path id="pYHMPiYBk" d="M3225 2875 c-82 -69 -165 -130 -182 -137 -18 -7 -33 -18 -33 -25 0 -17 64 -17 82 0 7 7 21 16 31 20 9 3 17 15 17 26 0 14 8 21 28 23 19 2 28 9 30 26 3 16 10 22 29 22 16 0 27 7 30 19 3 11 15 21 27 23 13 2 22 11 24 26 3 16 10 22 29 22 16 0 27 7 30 20 3 11 14 20 24 20 12 0 19 7 19 20 0 39 -36 19 -185 -105z"/>
      <path id="p91q9Wi4r" d="M3450 2977 c0 -32 32 -59 64 -55 l27 3 -31 38 c-36 42 -60 48 -60 14z"/>
      <path id="p1EUHRsh85" d="M3649 2953 c10 -16 45 -53 75 -83 l56 -54 0 35 c0 28 -9 43 -48 82 -34 33 -56 47 -76 47 l-27 0 20 -27z"/>
      <path id="p16MaNlnvd" d="M4025 2971 c-2 -4 23 -34 56 -67 l61 -59 -4 43 c-4 49 -9 48 107 27 101 -18 125 -19 125 -1 0 9 -18 18 -47 24 -70 15 -214 34 -220 29 -2 -3 -20 -1 -39 3 -19 4 -36 5 -39 1z"/>
      <path id="phqMvUBDz" d="M4770 2915 c0 -28 4 -35 20 -35 21 0 24 10 14 48 -10 36 -34 27 -34 -13z"/>
      <path id="psVxb2jsA" d="M4400 2900 c0 -16 7 -20 35 -20 40 0 49 24 13 34 -38 10 -48 7 -48 -14z"/>
      <path id="pjpbagGgo" d="M1068 2855 c-55 -46 -70 -65 -88 -112 -29 -77 -65 -234 -84 -364 -21 -140 -21 -149 4 -149 17 0 20 7 20 38 0 61 38 257 72 377 23 80 39 115 57 131 14 13 28 18 29 13 10 -28 40 17 66 99 11 33 -2 27 -76 -33z"/>
      <path id="p6RQaylaw" d="M3570 2859 c0 -47 54 -102 96 -97 l28 3 -61 65 -62 65 -1 -36z"/>
      <path id="p1Fm2sg7Bm" d="M3970 2847 c0 -25 10 -42 43 -75 23 -23 48 -42 55 -42 7 0 12 -8 12 -18 0 -29 101 -122 133 -122 24 0 27 -4 27 -33 0 -42 53 -97 93 -97 25 0 37 14 20 22 -5 2 -91 92 -192 201 -100 108 -185 197 -187 197 -2 0 -4 -15 -4 -33z"/>
      <path id="pfViQm0J4" d="M4540 2837 c0 -20 6 -42 14 -49 7 -8 17 -24 20 -36 5 -15 15 -22 32 -22 13 0 24 3 24 6 0 12 -60 112 -75 124 -13 11 -15 7 -15 -23z"/>
      <path id="pV3JcblEx" d="M4804 2776 c3 -30 9 -61 12 -70 5 -12 0 -16 -20 -16 l-26 0 16 -37 c9 -21 32 -81 50 -133 19 -52 36 -99 39 -105 8 -15 -5 183 -16 250 -23 138 -30 165 -46 165 -13 0 -15 -9 -9 -54z"/>
      <path id="p135pOsYmI" d="M4188 2793 c11 -16 34 -41 51 -57 l31 -30 0 35 c0 43 -34 79 -74 79 l-27 0 19 -27z"/>
      <path id="pCZuGoCS4" d="M2716 2705 c-14 -36 -26 -74 -26 -85 0 -11 -4 -20 -8 -20 -20 0 -101 -306 -127 -477 -19 -132 -19 -173 0 -173 15 0 16 4 36 150 23 173 103 447 183 633 16 37 16 37 -8 37 -20 0 -28 -10 -50 -65z"/>
      <path id="pch7Ckwai" d="M2861 2688 c-16 -35 -38 -89 -50 -120 l-21 -58 25 0 c21 0 26 6 31 40 4 22 10 40 15 40 5 0 9 11 9 25 0 14 4 25 8 25 13 0 32 48 32 80 0 48 -19 35 -49 -32z"/>
      <path id="pKsu7JLM1" d="M3869 2723 c10 -16 40 -48 65 -73 l46 -44 0 35 c0 45 -61 109 -104 109 l-27 0 20 -27z"/>
      <path id="pnREloScP" d="M4630 2675 c0 -31 3 -35 26 -35 14 0 24 3 22 8 -35 73 -48 80 -48 27z"/>
      <path id="px9Dg2zjs" d="M1030 2665 c0 -19 -4 -35 -10 -35 -5 0 -10 -16 -10 -35 0 -57 25 -43 43 25 21 76 21 80 -3 80 -16 0 -20 -7 -20 -35z"/>
      <path id="po5ewFYEK" d="M4298 2673 c11 -16 32 -39 46 -52 l26 -24 0 35 c0 41 -25 68 -64 68 l-27 0 19 -27z"/>
      <path id="pmLliyhkh" d="M3760 2659 c0 -47 54 -102 96 -97 l28 3 -61 65 -62 65 -1 -36z"/>
      <path id="pYYyGqXFb" d="M4390 2596 c0 -10 19 -19 54 -26 29 -6 74 -24 100 -40 l46 -30 0 30 c0 20 -5 30 -15 30 -8 0 -15 4 -15 10 0 12 -94 40 -137 40 -22 0 -33 -5 -33 -14z"/>
      <path id="pgUJdzR7a" d="M4680 2565 c0 -19 5 -35 10 -35 6 0 10 -11 10 -25 0 -20 5 -25 25 -25 l25 0 -21 52 c-25 63 -28 68 -40 68 -5 0 -9 -16 -9 -35z"/>
      <path id="plm24IJwD" d="M3890 2517 c0 -40 12 -51 52 -45 22 3 22 4 -14 43 l-37 40 -1 -38z"/>
      <path id="pY5cZhndi" d="M4068 2513 c11 -16 34 -41 51 -57 l31 -30 0 35 c0 43 -34 79 -74 79 l-27 0 19 -27z"/>
      <path id="pAJf9VHWE" d="M967 2413 c-40 -234 -46 -323 -22 -323 15 0 18 12 35 165 7 55 18 131 26 168 18 86 18 87 -4 87 -16 0 -22 -15 -35 -97z"/>
      <path id="p5vQ07WMo" d="M3460 2480 c0 -16 7 -20 33 -20 47 0 77 10 77 26 0 10 -15 14 -55 14 -48 0 -55 -2 -55 -20z"/>
      <path id="p4CJnWkYD" d="M2765 2430 c-10 -33 -16 -62 -13 -65 3 -3 47 3 99 14 52 11 162 29 244 40 216 31 215 30 215 46 0 10 -11 15 -32 15 -34 0 -322 -41 -417 -60 -29 -5 -54 -10 -55 -10 -1 0 0 18 2 40 6 65 -21 52 -43 -20z"/>
      <path id="phigj84nz" d="M3320 2470 c0 -15 7 -20 28 -20 42 0 72 11 72 26 0 10 -14 14 -50 14 -43 0 -50 -3 -50 -20z"/>
      <path id="pI9CkHAe4" d="M4631 2441 c28 -45 36 -50 90 -64 62 -16 65 -14 53 31 -6 20 -34 32 -34 14 0 -5 -13 -7 -30 -4 -21 3 -30 10 -30 23 0 11 -4 19 -10 19 -5 0 -10 7 -10 15 0 10 -10 15 -30 15 l-29 0 30 -49z"/>
      <path id="p146m8BXKy" d="M4400 2462 c0 -12 13 -23 35 -31 66 -24 115 -98 102 -153 -10 -39 -69 -106 -99 -113 -19 -5 -28 -13 -28 -27 0 -47 113 11 147 75 27 51 23 136 -9 184 -40 61 -148 108 -148 65z"/>
      <path id="p18slELJxv" d="M3728 2373 c-10 -2 -18 -11 -18 -19 0 -11 15 -14 60 -14 44 0 60 4 60 14 0 21 -55 32 -102 19z"/>
      <path id="p5iyrTcpK" d="M3448 2363 c-10 -2 -18 -11 -18 -19 0 -11 15 -14 65 -14 58 0 65 2 65 20 0 17 -6 20 -47 19 -27 -1 -56 -3 -65 -6z"/>
      <path id="psekSNYV1" d="M3980 2350 c0 -16 7 -20 31 -20 47 0 69 -16 69 -51 0 -41 20 -119 31 -119 5 0 9 -9 9 -20 0 -10 14 -35 31 -55 24 -27 39 -35 66 -35 l35 0 -54 58 c-56 61 -74 102 -85 192 -5 43 -9 50 -36 59 -16 6 -45 11 -63 11 -27 0 -34 -4 -34 -20z"/>
      <path id="phNm93N0a" d="M3310 2353 c-102 -10 -341 -47 -457 -70 l-133 -26 -10 -36 c-11 -41 -40 -207 -40 -227 0 -8 8 -14 18 -14 15 0 20 14 31 88 7 48 18 103 24 122 12 33 14 35 97 52 135 27 397 67 493 74 76 6 87 9 87 25 0 20 -18 22 -110 12z"/>
      <path id="p14F2cEHjQ" d="M4216 2315 c-8 -33 8 -95 35 -129 22 -28 87 -66 114 -66 8 0 15 9 15 20 0 16 -7 20 -30 20 -18 0 -30 5 -30 13 0 8 -9 22 -21 33 -30 27 -49 68 -49 104 0 37 -25 41 -34 5z"/>
      <path id="p7wg5SGCv" d="M2040 2250 c0 -45 23 -57 34 -17 11 41 7 57 -14 57 -17 0 -20 -7 -20 -40z"/>
      <path id="pJuZREbmR" d="M4670 2263 c0 -87 -101 -202 -202 -230 -64 -18 -79 -43 -25 -43 47 0 77 10 77 26 0 9 11 14 30 14 20 0 30 5 30 15 0 8 8 15 18 15 23 0 42 19 42 42 0 10 6 18 14 18 15 0 46 68 46 100 0 24 9 25 55 6 32 -14 35 -19 35 -55 0 -35 3 -41 21 -41 20 0 21 4 15 46 -3 26 -6 53 -6 60 0 11 -112 54 -141 54 -5 0 -9 -12 -9 -27z"/>
      <path id="p1EGuxVC0Z" d="M2030 2160 c0 -45 23 -57 34 -17 11 41 7 57 -14 57 -17 0 -20 -7 -20 -40z"/>
      <path id="pXLDLGTX5" d="M1476 2168 c-12 -48 -7 -78 14 -78 17 0 20 7 20 50 0 36 -4 50 -14 50 -7 0 -16 -10 -20 -22z"/>
      <path id="pTk3mvlmy" d="M2020 2065 c0 -49 23 -64 34 -22 12 44 7 67 -14 67 -17 0 -20 -7 -20 -45z"/>
      <path id="p3TrENi4a" d="M1056 2058 c-8 -30 -8 -226 0 -255 4 -13 13 -23 20 -23 11 0 14 29 14 150 0 121 -3 150 -14 150 -7 0 -16 -10 -20 -22z"/>
      <path id="pUVEBFw6C" d="M4270 2025 c0 -25 22 -35 78 -35 52 0 39 25 -23 42 -55 15 -55 15 -55 -7z"/>
      <path id="p5xNg4ugj" d="M1466 2018 c-3 -13 -6 -61 -6 -108 0 -98 7 -130 26 -130 11 0 14 26 14 130 0 104 -3 130 -14 130 -7 0 -16 -10 -20 -22z"/>
      <path id="pSdar0F2U" d="M1330 1935 c0 -88 1 -95 20 -95 19 0 20 7 20 95 0 88 -1 95 -20 95 -19 0 -20 -7 -20 -95z"/>
      <path id="pFVNDCGgB" d="M2146 2008 c-12 -48 -7 -78 14 -78 17 0 20 7 20 50 0 36 -4 50 -14 50 -7 0 -16 -10 -20 -22z"/>
      <path id="pRDZ3YHWZ" d="M880 1998 c0 -39 11 -67 29 -71 14 -4 14 -5 -1 -6 -10 0 -18 -6 -18 -12 0 -66 72 -375 91 -394 9 -7 10 -2 6 21 -3 17 -9 55 -12 85 -3 30 -13 87 -23 128 -13 58 -14 75 -4 79 8 2 12 32 12 98 l0 94 -40 0 c-35 0 -40 -3 -40 -22z"/>
      <path id="pSEWtKoTG" d="M2010 1955 c0 -49 23 -64 34 -22 12 44 7 67 -14 67 -17 0 -20 -7 -20 -45z"/>
      <path id="pOB7ebss2" d="M4786 1913 c-9 -113 -13 -121 -55 -132 -57 -16 -262 -51 -293 -51 -21 0 -28 -5 -28 -20 0 -24 -1 -24 125 -5 126 19 247 45 261 56 6 5 17 49 23 97 15 121 15 132 -8 132 -15 0 -19 -11 -25 -77z"/>
      <path id="pySSTOir3" d="M2666 1938 c-3 -13 -6 -40 -6 -61 0 -46 2 -46 169 -87 147 -35 374 -74 561 -95 176 -20 180 -20 180 5 0 17 -7 20 -40 20 -115 0 -476 58 -702 112 l-128 31 0 48 c0 53 -22 70 -34 27z"/>
      <path id="p1AEwlXdWo" d="M2530 1805 c0 -118 1 -125 20 -125 19 0 20 7 20 125 0 118 -1 125 -20 125 -19 0 -20 -7 -20 -125z"/>
      <path id="pWleNNMtg" d="M2136 1878 c-3 -13 -6 -38 -6 -55 0 -26 4 -33 20 -33 18 0 20 7 20 55 0 40 -4 55 -14 55 -7 0 -16 -10 -20 -22z"/>
      <path id="pUdLdjQeN" d="M2000 1820 c0 -36 4 -50 14 -50 15 0 26 30 26 73 0 20 -5 27 -20 27 -17 0 -20 -7 -20 -50z"/>
      <path id="pb0cCveKy" d="M1064 1673 c11 -104 34 -248 57 -348 20 -86 24 -92 77 -143 98 -94 282 -222 319 -222 8 0 6 17 -8 58 -34 97 -87 321 -104 437 -25 178 -25 175 -42 175 -14 0 -15 -10 -9 -76 12 -133 60 -370 102 -506 4 -12 0 -18 -10 -18 -9 0 -16 7 -16 15 0 8 -7 15 -15 15 -8 0 -15 5 -15 10 0 6 -9 10 -20 10 -11 0 -20 7 -20 15 0 8 -8 15 -19 15 -10 0 -21 9 -24 20 -4 15 -14 20 -36 20 -26 0 -31 4 -31 23 0 13 -14 36 -31 53 -17 16 -35 36 -39 45 -22 39 -80 358 -80 434 0 29 -4 35 -21 35 -20 0 -21 -3 -15 -67z"/>
      <path id="ptTb7KO3M" d="M1340 1690 c0 -43 3 -50 20 -50 15 0 20 7 20 28 0 42 -11 72 -26 72 -10 0 -14 -14 -14 -50z"/>
      <path id="py3f1lnqJ" d="M2664 1708 c3 -13 6 -26 6 -30 0 -12 30 -9 30 2 0 6 9 10 20 10 27 0 25 26 -2 34 -46 12 -61 8 -54 -16z"/>
      <path id="p13bhmtQ4Z" d="M2126 1698 c-3 -13 -6 -44 -6 -70 0 -41 3 -48 20 -48 18 0 20 7 20 70 0 53 -3 70 -14 70 -7 0 -16 -10 -20 -22z"/>
      <path id="p18S05542r" d="M4300 1700 c0 -15 7 -20 28 -20 42 0 72 11 72 26 0 10 -14 14 -50 14 -43 0 -50 -3 -50 -20z"/>
      <path id="p7vdVTKzb" d="M1470 1688 c0 -39 12 -68 26 -68 10 0 14 13 14 45 0 38 -3 45 -20 45 -14 0 -20 -7 -20 -22z"/>
      <path id="pQUJP47GY" d="M3610 1696 c0 -17 31 -26 93 -26 40 0 47 3 47 20 0 18 -7 20 -70 20 -53 0 -70 -3 -70 -14z"/>
      <path id="piaUkNekr" d="M4150 1690 c0 -16 7 -20 38 -20 52 0 82 10 82 26 0 10 -16 14 -60 14 -53 0 -60 -2 -60 -20z"/>
      <path id="pGv4FST9D" d="M1990 1615 c0 -57 3 -75 14 -75 17 0 26 31 26 98 0 45 -3 52 -20 52 -18 0 -20 -7 -20 -75z"/>
      <path id="p1HoWCIqg2" d="M2830 1670 c0 -16 7 -20 35 -20 40 0 49 24 13 34 -38 10 -48 7 -48 -14z"/>
      <path id="p1GKHuEgEO" d="M2920 1653 c0 -18 16 -23 163 -46 241 -39 297 -43 297 -24 0 10 -12 18 -32 21 -18 3 -109 17 -203 31 -93 14 -182 28 -197 32 -23 4 -28 2 -28 -14z"/>
      <path id="pngcMoS4n" d="M4736 1634 c-12 -31 -7 -74 9 -74 8 0 15 3 15 8 0 4 4 24 9 45 8 32 7 37 -9 37 -10 0 -21 -7 -24 -16z"/>
      <path id="pC0h7CdTr" d="M2544 1568 c9 -95 31 -217 56 -298 l20 -64 -25 -26 c-14 -14 -25 -31 -25 -38 0 -7 -9 -12 -20 -12 -10 0 -23 -6 -27 -13 -4 -6 -21 -19 -37 -27 -16 -8 -31 -23 -34 -32 -2 -10 -12 -18 -22 -18 -34 0 -50 -12 -50 -36 0 -13 3 -24 7 -24 37 0 279 185 277 211 -1 8 -14 55 -28 104 -23 77 -35 139 -62 313 -3 21 -11 32 -21 32 -14 0 -15 -10 -9 -72z"/>
      <path id="pTddVghpA" d="M2674 1573 c12 -87 17 -103 33 -103 13 0 15 9 9 53 -3 28 -6 62 -6 75 0 16 -6 22 -21 22 -20 0 -21 -4 -15 -47z"/>
      <path id="pJlrcBoYI" d="M1480 1598 c0 -18 28 -191 41 -255 7 -34 15 -53 25 -53 19 0 18 23 -6 154 -11 60 -20 122 -20 138 0 21 -5 28 -20 28 -11 0 -20 -6 -20 -12z"/>
      <path id="pJWXDN0S5" d="M4488 1603 c-33 -8 -20 -33 17 -33 28 0 35 4 35 20 0 20 -14 23 -52 13z"/>
      <path id="pwSdwfF2g" d="M3390 1580 c0 -17 7 -20 45 -20 49 0 64 23 23 34 -45 12 -68 7 -68 -14z"/>
      <path id="pR1EwJnLL" d="M4408 1593 c-33 -8 -20 -33 17 -33 28 0 35 4 35 20 0 20 -14 23 -52 13z"/>
      <path id="p1DpCBWOf7" d="M3500 1570 c0 -17 7 -20 50 -20 36 0 50 4 50 14 0 15 -30 26 -72 26 -21 0 -28 -5 -28 -20z"/>
      <path id="pE5OQNPVi" d="M4298 1583 c-36 -9 -20 -33 22 -33 33 0 40 3 40 20 0 20 -20 24 -62 13z"/>
      <path id="pWmJnAU23" d="M3670 1560 c0 -18 7 -20 70 -20 53 0 70 3 70 14 0 17 -31 26 -92 26 -41 0 -48 -3 -48 -20z"/>
      <path id="pFM3VgpPE" d="M4118 1573 c-10 -2 -18 -11 -18 -19 0 -11 15 -14 60 -14 53 0 60 2 60 20 0 17 -6 20 -42 19 -24 -1 -51 -3 -60 -6z"/>
      <path id="pCsCww5Gm" d="M2710 1378 c0 -30 13 -58 26 -58 9 0 14 12 14 35 0 28 -4 35 -20 35 -11 0 -20 -6 -20 -12z"/>
      <path id="pxQrOqr2w" d="M4640 1335 c0 -23 -5 -35 -14 -35 -7 0 -26 -29 -42 -65 -16 -35 -36 -67 -44 -69 -36 -12 -281 -56 -342 -62 -57 -6 -68 -10 -68 -25 0 -11 7 -19 15 -19 30 0 222 31 328 52 l109 22 48 101 c65 137 64 135 35 135 -22 0 -25 -4 -25 -35z"/>
      <path id="p19shY7GwV" d="M2120 1273 c0 -91 7 -123 26 -123 11 0 14 22 14 100 0 93 -1 100 -20 100 -18 0 -20 -7 -20 -77z"/>
      <path id="pvJJbZ7dF" d="M1990 1245 c0 -68 2 -75 20 -75 17 0 20 7 20 53 0 66 -9 97 -26 97 -11 0 -14 -18 -14 -75z"/>
      <path id="pIVKZ72NC" d="M2750 1253 c1 -31 66 -59 254 -108 111 -29 352 -75 394 -75 6 0 12 8 12 19 0 15 -11 20 -62 25 -90 10 -281 52 -397 86 -55 17 -105 30 -111 30 -6 0 -18 7 -26 15 -16 15 -64 21 -64 8z"/>
      <path id="pRTZE5KKj" d="M1560 1188 c0 -30 13 -58 26 -58 9 0 14 12 14 35 0 28 -4 35 -20 35 -11 0 -20 -6 -20 -12z"/>
      <path id="pdlmWcZOj" d="M2730 1102 c0 -15 17 -24 74 -40 41 -12 84 -22 95 -22 12 0 21 -4 21 -8 0 -9 144 -44 265 -66 57 -10 71 -16 73 -32 2 -12 -6 -23 -20 -29 -18 -8 -24 -19 -26 -50 l-2 -40 49 54 c26 29 56 66 65 82 l17 28 -38 6 c-139 22 -307 60 -419 95 -72 22 -137 40 -143 40 -6 0 -11 -8 -11 -18z"/>
      <path id="pdCigFSy4" d="M1590 1088 c0 -30 13 -58 26 -58 9 0 14 12 14 35 0 28 -4 35 -20 35 -11 0 -20 -6 -20 -12z"/>
      <path id="pGk8y7dJU" d="M2000 1045 c0 -48 2 -55 20 -55 16 0 20 7 20 33 0 47 -10 77 -26 77 -10 0 -14 -15 -14 -55z"/>
      <path id="pnVrs36Pb" d="M2130 1068 c0 -48 10 -78 26 -78 10 0 14 15 14 55 0 48 -2 55 -20 55 -16 0 -20 -7 -20 -32z"/>
      <path id="p2RRjC0Tn" d="M3420 1086 c0 -14 29 -26 68 -26 15 0 22 6 22 20 0 17 -7 20 -45 20 -32 0 -45 -4 -45 -14z"/>
      <path id="pwBXO9qBx" d="M2651 1045 c-197 -168 -427 -260 -678 -272 -111 -5 -123 -8 -123 -24 0 -17 8 -19 63 -19 128 0 387 46 395 71 2 5 15 9 28 9 13 0 24 5 24 10 0 6 9 10 20 10 29 0 110 42 110 57 0 7 11 13 25 13 14 0 25 5 25 10 0 6 7 10 15 10 8 0 15 5 15 10 0 6 7 10 15 10 8 0 15 7 15 15 0 8 9 15 20 15 13 0 20 7 20 20 0 14 7 20 24 20 31 0 48 22 44 55 l-3 26 -54 -46z"/>
      <path id="p17WTxK6Ma" d="M3540 1076 c0 -16 30 -26 78 -26 25 0 32 4 32 20 0 18 -7 20 -55 20 -40 0 -55 -4 -55 -14z"/>
      <path id="p18v55C6EN" d="M4010 1070 c0 -16 7 -20 33 -20 47 0 77 10 77 26 0 10 -15 14 -55 14 -48 0 -55 -2 -55 -20z"/>
      <path id="p117EsA5A9" d="M1191 1033 c32 -54 121 -171 168 -224 l40 -44 1 36 c0 38 -14 59 -42 59 -10 0 -18 7 -18 15 0 9 9 15 25 15 14 0 25 -6 25 -13 0 -15 81 -57 110 -57 11 0 20 -4 20 -8 0 -11 69 -32 104 -32 14 0 26 -4 26 -9 0 -9 107 -31 153 -31 17 0 27 5 27 15 0 8 -2 15 -4 15 -2 0 -40 7 -83 15 -186 35 -359 119 -514 247 -26 21 -50 38 -54 38 -4 0 4 -17 16 -37z"/>
      <path id="p13wXXpLAO" d="M4468 1013 c-10 -2 -18 -11 -18 -19 0 -8 -7 -14 -15 -14 -8 0 -15 -6 -15 -14 0 -8 -7 -16 -15 -20 -8 -3 -15 -12 -15 -20 0 -7 -7 -16 -15 -20 -8 -3 -15 -13 -15 -23 0 -10 -10 -23 -22 -28 -18 -8 -24 -19 -26 -50 l-2 -40 45 50 c44 48 145 187 145 199 0 6 -5 6 -32 -1z"/>
      <path id="p1H5YW8L3Y" d="M2240 960 c-56 -23 -60 -24 -60 -5 0 8 -9 15 -20 15 -16 0 -20 -7 -20 -34 0 -19 4 -37 9 -40 10 -7 132 29 174 50 66 35 -4 46 -83 14z"/>
      <path id="pYGhYWnGY" d="M4230 973 c-81 -12 -90 -15 -90 -28 0 -17 18 -18 98 -9 42 6 52 10 52 25 0 19 -7 21 -60 12z"/>
      <path id="p1cnRzeTO" d="M3397 891 c-69 -93 -204 -230 -298 -300 -87 -65 -224 -143 -318 -181 -42 -17 -86 -35 -98 -40 -13 -5 -23 -15 -23 -21 0 -15 93 -5 98 10 2 6 15 11 28 11 15 0 24 6 24 15 0 10 10 15 30 15 37 0 100 29 100 47 0 7 11 13 24 13 14 0 31 6 38 14 8 7 24 17 36 20 12 4 22 14 22 22 0 8 9 14 20 14 11 0 20 5 20 10 0 6 7 10 15 10 9 0 18 6 21 14 3 8 14 16 25 19 13 3 19 14 19 31 0 22 5 26 28 26 29 0 72 35 72 58 0 7 6 12 13 12 22 0 47 34 47 63 0 22 5 27 25 27 20 0 25 5 25 25 0 18 5 25 20 25 16 0 20 7 20 35 0 28 4 35 19 35 30 0 51 11 51 26 0 8 -4 14 -9 14 -5 0 -15 2 -23 5 -8 3 -36 -26 -71 -74z"/>
      <path id="powxAuLYG" d="M1637 940 c8 -30 25 -39 99 -55 92 -20 104 -19 104 5 0 14 -7 20 -23 20 -37 0 -131 27 -135 39 -2 6 -14 11 -27 11 -18 0 -22 -4 -18 -20z"/>
      <path id="pVSU9x8rM" d="M3530 940 c0 -18 7 -20 65 -20 49 0 65 3 65 14 0 17 -31 26 -87 26 -36 0 -43 -3 -43 -20z"/>
      <path id="pWnI01xJN" d="M2010 910 c0 -33 3 -40 20 -40 21 0 25 16 14 58 -11 39 -34 27 -34 -18z"/>
      <path id="p13NeiaiAy" d="M3947 943 c-4 -3 -7 -17 -7 -30 0 -14 -6 -23 -15 -23 -8 0 -15 -7 -15 -15 0 -8 -4 -15 -10 -15 -5 0 -10 -7 -10 -15 0 -8 -4 -15 -10 -15 -5 0 -10 -7 -10 -15 0 -8 -4 -15 -10 -15 -5 0 -10 -8 -10 -18 0 -9 -10 -22 -22 -27 -16 -7 -24 -20 -26 -42 -3 -26 -8 -33 -25 -33 -30 0 -127 -98 -127 -128 0 -18 -6 -22 -31 -22 -22 0 -32 -5 -36 -20 -3 -11 -14 -20 -24 -20 -11 0 -22 -7 -25 -15 -4 -8 -12 -15 -20 -15 -8 0 -14 -7 -14 -15 0 -8 -9 -15 -20 -15 -11 0 -20 -4 -20 -10 0 -5 -7 -10 -15 -10 -8 0 -15 -4 -15 -10 0 -5 -7 -10 -15 -10 -8 0 -15 -4 -15 -10 0 -5 -7 -10 -15 -10 -8 0 -15 -7 -15 -15 0 -8 -9 -15 -19 -15 -35 0 -51 -12 -51 -36 0 -13 4 -24 8 -24 14 0 173 103 259 166 122 91 273 250 353 371 39 58 70 112 70 120 0 13 -31 18 -43 6z"/>
      <path id="p10q3m1jU8" d="M1850 885 c0 -18 58 -30 105 -21 21 4 35 13 35 21 0 12 -15 15 -70 15 -55 0 -70 -3 -70 -15z"/>
      <path id="pc4CdTxyp" d="M4065 860 c-20 -38 -19 -40 10 -40 22 0 25 4 25 35 0 43 -14 45 -35 5z"/>
      <path id="pEAlv6Wmh" d="M3093 767 c-16 -18 -37 -36 -46 -40 -9 -3 -17 -13 -17 -22 0 -8 -8 -15 -17 -15 -23 0 -133 -72 -133 -87 0 -7 -9 -13 -20 -13 -11 0 -51 -15 -88 -34 -37 -18 -96 -44 -132 -57 -36 -12 -67 -26 -70 -29 -3 -4 -62 -17 -132 -31 -106 -20 -128 -27 -128 -41 0 -23 10 -22 130 2 256 52 531 189 700 347 l55 52 -36 1 c-29 0 -43 -7 -66 -33z"/>
      <path id="pgavpMeIv" d="M3942 683 c-86 -108 -232 -251 -333 -326 -69 -52 -223 -150 -252 -160 -7 -2 -9 -7 -6 -11 7 -7 192 52 272 87 60 27 74 47 32 47 -14 0 -25 5 -25 10 0 6 9 10 20 10 11 0 20 6 20 14 0 8 10 16 23 18 16 2 23 11 25 31 3 22 8 27 30 27 38 0 142 104 142 142 0 22 5 27 28 30 21 2 28 9 30 31 2 19 9 27 23 27 12 0 19 7 19 20 0 11 7 20 15 20 10 0 15 11 15 35 0 19 -2 35 -4 35 -2 0 -35 -39 -74 -87z"/>
      <path id="p1GuPlAPdE" d="M1426 735 c27 -41 193 -182 304 -258 131 -89 250 -126 250 -77 0 16 -7 20 -32 20 -31 0 -139 46 -146 63 -2 4 -17 7 -33 7 -22 0 -29 5 -29 20 0 11 -6 20 -14 20 -8 0 -16 7 -20 15 -3 8 -11 15 -18 15 -7 0 -19 9 -26 20 -7 11 -18 20 -25 20 -7 0 -18 9 -25 20 -8 14 -23 20 -47 20 -32 0 -35 3 -35 28 0 37 -56 92 -93 92 -27 0 -27 -1 -11 -25z"/>
      <path id="p1AHEZo67O" d="M4206 721 c-28 -29 -37 -45 -34 -65 l3 -27 42 36 c23 20 52 49 63 66 l21 29 -28 0 c-20 0 -40 -12 -67 -39z"/>
      <path id="pgizMcdOk" d="M4082 608 c-7 -7 -12 -18 -12 -25 0 -7 -9 -13 -20 -13 -11 0 -23 -7 -26 -15 -4 -8 -13 -15 -20 -15 -8 0 -17 -7 -20 -15 -4 -8 -12 -15 -20 -15 -8 0 -14 -4 -14 -10 0 -5 -7 -10 -15 -10 -8 0 -15 -4 -15 -10 0 -5 -7 -10 -15 -10 -8 0 -15 -4 -15 -10 0 -5 -7 -10 -15 -10 -8 0 -15 -7 -15 -15 0 -8 -9 -15 -19 -15 -35 0 -51 -12 -51 -36 0 -13 4 -24 8 -24 27 0 303 191 347 240 18 20 18 20 -16 20 -19 0 -40 -5 -47 -12z"/>
      <path id="pQIDmzcIc" d="M1990 396 c0 -20 33 -26 155 -26 122 0 155 6 155 26 0 11 -30 14 -155 14 -125 0 -155 -3 -155 -14z"/>
      <path id="p1D2CONA7f" d="M2310 283 c-8 -3 -18 -11 -22 -17 -5 -8 -13 -7 -28 2 -23 14 -120 16 -120 3 0 -25 344 -118 503 -136 52 -7 57 -6 57 12 0 16 -13 20 -94 31 -52 7 -134 24 -183 37 -48 13 -99 25 -113 28 -18 3 -15 5 13 6 30 1 37 5 37 21 0 20 -18 25 -50 13z"/>
      <path id="pdzzSyi9S" d="M3173 263 c-18 -9 -33 -20 -33 -25 0 -4 -11 -8 -25 -8 -14 0 -25 -4 -25 -10 0 -5 -8 -10 -17 -10 -9 0 -54 -12 -100 -27 -63 -21 -83 -31 -83 -45 0 -25 13 -23 132 18 128 45 248 99 248 113 0 16 -60 12 -97 -6z"/>
      <path id="p18IpHYf0R" d="M2720 146 c0 -16 30 -26 83 -26 30 0 37 4 37 20 0 18 -7 20 -60 20 -44 0 -60 -4 -60 -14z"/>
    </g>
  </g>
  <g id="l6lDEMAGJkIuj3w5VRLJWLM" fill="rgb(73,192,203)" style="transform: none;">
    <g style="transform: none;">
      <path id="p1EH3SEHj1" d="M2725 4279 c-108 -11 -264 -44 -361 -75 -128 -42 -227 -85 -501 -222 -390 -194 -614 -276 -881 -321 -301 -51 -566 -33 -826 55 -38 13 -71 22 -73 20 -2 -2 22 -26 54 -53 250 -217 566 -326 943 -327 353 0 571 56 1041 268 289 130 388 165 568 203 111 23 150 27 321 27 206 1 287 -8 449 -50 438 -114 887 -450 1176 -879 78 -116 169 -296 205 -405 33 -99 41 -104 34 -25 -19 236 -56 404 -134 597 -152 380 -470 749 -810 940 -262 147 -485 221 -749 248 -118 11 -338 11 -456 -1z"/>
      <path id="pR4HWcidT" d="M3525 3673 c6 -5 35 -28 66 -51 138 -104 307 -290 423 -466 52 -78 60 -86 89 -86 35 0 280 -37 311 -46 33 -11 -16 49 -154 187 -151 152 -305 268 -460 348 -148 76 -304 141 -275 114z"/>
      <path id="pW2IJpwT0" d="M2510 3626 c0 -1 64 -59 143 -127 78 -68 188 -166 244 -217 l102 -93 53 38 c29 20 55 38 57 40 8 6 -54 65 -134 128 -93 73 -228 152 -329 193 -64 26 -136 47 -136 38z"/>
      <path id="pkPvaVcEV" d="M2140 3151 c-93 -40 -229 -85 -341 -111 l-96 -23 -52 -131 c-123 -316 -169 -548 -178 -907 -9 -379 40 -699 153 -1001 22 -57 30 -68 57 -77 65 -20 154 -31 260 -31 108 0 109 0 104 23 -16 62 -29 454 -24 667 11 415 53 789 148 1330 53 302 51 290 42 290 -4 -1 -37 -13 -73 -29z"/>
      <path id="p185QHjjkA" d="M3238 2882 c-79 -65 -154 -125 -168 -135 -32 -23 -77 -22 -125 3 -21 11 -42 17 -46 12 -24 -25 -158 -387 -147 -397 2 -3 20 0 39 5 54 15 322 58 469 76 75 9 261 19 419 23 l283 6 -158 169 c-88 93 -197 210 -244 261 -84 92 -86 93 -132 94 -46 1 -51 -2 -190 -117z"/>
      <path id="psUxYdrDr" d="M4082 2912 c29 -32 109 -120 178 -195 83 -91 132 -137 146 -137 80 0 202 -78 237 -153 14 -28 24 -35 67 -45 70 -16 69 -17 59 28 -21 93 -92 250 -181 397 -54 91 -45 86 -203 118 -105 21 -270 45 -318 45 l-39 0 54 -58z"/>
      <path id="p15Kb6TS8k" d="M1100 2876 c-86 -64 -106 -94 -138 -201 -57 -192 -76 -329 -76 -545 -1 -139 4 -227 17 -308 17 -110 61 -280 76 -295 4 -4 1 32 -6 80 -8 51 -14 176 -15 298 -1 320 35 546 136 848 29 86 53 157 52 157 -1 0 -21 -16 -46 -34z"/>
      <path id="p12JoEPlxW" d="M2670 1673 c0 -140 57 -401 95 -439 13 -13 66 -36 121 -53 473 -148 1072 -172 1604 -63 l85 18 32 59 c78 144 181 431 162 450 -4 3 -67 -5 -140 -19 -239 -44 -343 -51 -704 -50 -446 1 -745 33 -1103 119 -80 19 -146 35 -148 35 -2 0 -4 -26 -4 -57z"/>
      <path id="pMoQ9fSYx" d="M4450 1008 c-25 -5 -110 -19 -188 -31 l-144 -23 -33 -61 c-138 -253 -368 -487 -647 -654 -45 -27 -75 -49 -68 -49 32 0 237 77 345 129 210 103 379 226 546 397 87 91 247 290 238 298 -2 1 -24 -1 -49 -6z"/>
      <path id="p9T59ysp5" d="M3392 881 c-263 -352 -651 -554 -1172 -608 l-75 -8 76 -27 c175 -63 363 -100 579 -113 104 -6 106 -6 222 34 296 103 532 252 740 469 53 56 119 134 146 174 51 76 86 138 80 143 -2 1 -124 5 -271 7 l-268 5 -57 -76z"/>
    </g>
  </g>
  <g id="l4lhurOzonJP9EiX93RKo2v" fill="rgb(101,114,139)" style="transform: none;">
    <g style="transform: none;">
      <path id="pIfPZO5aT" d="M2918 3753 c-10 -2 -18 -10 -18 -18 0 -10 33 -14 142 -17 100 -2 143 -7 146 -16 5 -17 72 -16 72 2 0 27 -122 56 -228 55 -53 -1 -105 -3 -114 -6z"/>
      <path id="pzkNVwal1" d="M2818 3743 c-33 -8 -20 -33 17 -33 28 0 35 4 35 20 0 20 -14 23 -52 13z"/>
      <path id="pQdYIhz9i" d="M2680 3723 l-64 -15 63 -29 c35 -16 65 -29 67 -29 2 0 4 11 4 25 0 18 5 25 20 25 13 0 20 7 20 20 0 24 -18 25 -110 3z"/>
      <path id="p12HEey1ah" d="M3310 3660 c0 -23 5 -31 25 -36 14 -3 25 -8 25 -11 0 -11 -30 -33 -45 -33 -21 0 -65 -29 -65 -44 0 -6 -10 -16 -22 -21 -17 -7 -24 -20 -26 -47 -4 -47 9 -48 39 -3 36 53 123 105 177 105 15 0 33 4 40 9 16 10 11 14 -80 70 l-68 41 0 -30z"/>
      <path id="pKMACXYer" d="M2820 3620 c0 -5 21 -21 48 -34 68 -35 180 -116 251 -182 34 -31 63 -55 65 -53 2 2 8 19 14 37 10 29 9 32 -8 32 -10 0 -22 5 -25 10 -3 6 -17 10 -30 10 -17 0 -25 6 -27 23 -2 14 -11 23 -24 25 -12 2 -24 12 -27 23 -3 10 -12 19 -21 19 -9 0 -16 5 -16 10 0 6 -7 10 -15 10 -8 0 -15 5 -15 10 0 6 -7 10 -15 10 -8 0 -15 5 -15 10 0 6 -11 10 -25 10 -15 0 -25 6 -25 14 0 8 -7 17 -16 20 -25 10 -74 7 -74 -4z"/>
      <path id="pSUhPXOTN" d="M2295 3533 c-375 -168 -545 -229 -747 -268 -70 -14 -130 -25 -133 -25 -3 0 -5 -7 -5 -15 0 -19 23 -19 141 1 112 19 333 81 337 94 2 6 15 10 28 10 13 0 24 5 24 10 0 6 11 10 25 10 14 0 25 5 25 10 0 6 11 10 25 10 14 0 25 5 25 10 0 6 11 10 24 10 14 0 31 7 40 15 8 8 24 15 35 15 11 0 26 7 35 15 8 8 24 15 35 15 11 0 26 6 33 13 7 7 32 18 56 25 24 8 42 19 42 27 0 11 12 15 45 15 37 0 45 -3 45 -18 0 -27 20 -42 57 -42 29 0 33 -3 33 -28 0 -32 16 -52 42 -52 10 0 18 -6 18 -13 0 -20 33 -47 58 -47 15 0 22 -6 22 -18 0 -25 31 -52 58 -52 15 0 22 -6 22 -18 0 -26 20 -42 52 -42 23 0 28 -4 28 -23 0 -31 18 -47 52 -47 23 0 28 -4 28 -23 0 -28 17 -47 42 -47 10 0 18 -7 18 -15 0 -11 11 -15 40 -15 22 0 40 5 40 10 0 6 7 10 15 10 9 0 18 7 21 15 4 8 13 15 20 15 8 0 17 7 20 15 4 8 13 15 20 15 8 0 17 7 20 15 4 8 13 15 20 15 8 0 17 7 20 15 4 8 13 15 20 15 8 0 17 7 20 15 4 8 12 15 20 15 7 0 17 6 21 13 4 8 16 16 26 20 11 4 17 17 17 38 0 49 39 124 72 138 19 9 28 20 28 37 0 22 -2 23 -27 13 -59 -22 -103 -83 -103 -143 0 -34 -6 -40 -140 -141 -78 -59 -147 -105 -155 -103 -12 3 -281 233 -514 440 -42 37 -78 67 -81 67 -3 -1 -50 -21 -105 -46z"/>
      <path id="pvckIUjlR" d="M3480 3451 c0 -16 6 -21 28 -21 19 0 30 -7 37 -22 6 -13 20 -27 31 -32 23 -10 34 -56 34 -141 0 -52 42 -98 85 -93 l26 3 -38 45 c-33 38 -38 51 -39 95 -1 89 -58 166 -133 181 -27 6 -31 4 -31 -15z"/>
      <path id="prYp37GBE" d="M2313 3388 c-13 -6 -23 -17 -23 -25 0 -8 -11 -13 -30 -13 -32 0 -80 -19 -80 -32 0 -4 -11 -8 -24 -8 -14 0 -31 -7 -40 -15 -8 -8 -24 -15 -35 -15 -12 0 -21 -4 -21 -10 0 -5 -11 -10 -25 -10 -14 0 -25 -4 -25 -10 0 -5 -8 -10 -18 -10 -10 0 -52 -12 -93 -26 -149 -51 -276 -75 -431 -81 -113 -4 -148 -9 -148 -19 0 -20 63 -27 184 -20 213 13 396 64 681 188 88 38 167 72 175 74 9 3 80 -52 182 -140 215 -186 428 -365 450 -377 14 -8 53 19 198 136 172 139 182 146 215 139 30 -5 35 -4 35 14 0 21 -24 32 -72 32 -18 0 -28 -5 -28 -15 0 -9 -9 -15 -21 -15 -12 0 -23 -8 -26 -20 -3 -11 -14 -20 -25 -20 -11 0 -22 -9 -25 -20 -3 -11 -14 -20 -25 -20 -11 0 -22 -9 -25 -20 -3 -11 -14 -20 -24 -20 -10 0 -24 -9 -31 -20 -7 -11 -18 -20 -25 -20 -7 0 -18 -9 -25 -20 -7 -11 -18 -20 -25 -20 -6 0 -18 -8 -25 -19 -21 -30 -52 -34 -63 -8 -6 12 -20 23 -31 25 -12 2 -24 12 -27 23 -3 12 -14 19 -30 19 -19 0 -26 6 -29 23 -2 16 -11 23 -30 25 -19 2 -28 9 -28 21 0 24 -20 41 -47 41 -16 0 -23 6 -23 18 0 22 -30 52 -51 52 -8 0 -19 10 -24 23 -6 13 -21 23 -37 25 -19 2 -28 9 -28 21 0 24 -31 51 -58 51 -15 0 -22 6 -22 18 0 25 -31 52 -58 52 -15 0 -22 6 -22 18 0 10 -5 23 -12 30 -15 15 -75 15 -105 0z"/>
      <path id="poZCHlHkM" d="M3740 3304 c0 -23 18 -49 89 -124 49 -52 92 -92 96 -88 10 9 -93 152 -145 203 l-40 39 0 -30z"/>
      <path id="piOFArG3g" d="M820 3241 c120 -66 280 -116 438 -136 47 -6 52 -5 52 13 0 16 -9 20 -56 26 -31 4 -94 16 -139 27 -70 18 -82 24 -78 39 4 15 -2 20 -29 24 -18 2 -64 9 -103 15 -38 6 -86 13 -105 16 -33 6 -31 4 20 -24z"/>
      <path id="pKUZRsvg5" d="M1338 3233 c-36 -9 -20 -33 22 -33 33 0 40 3 40 20 0 20 -20 24 -62 13z"/>
      <path id="pnOAHgb10" d="M1080 3210 c0 -19 7 -20 105 -20 98 0 105 1 105 20 0 19 -7 20 -105 20 -98 0 -105 -1 -105 -20z"/>
      <path id="pUlFCz6rB" d="M2326 3208 c-2 -7 -16 -85 -30 -173 -14 -88 -42 -251 -61 -362 -31 -182 -85 -595 -85 -651 0 -15 6 -22 19 -22 16 0 19 11 25 83 13 159 47 395 101 712 69 398 61 364 85 358 11 -3 20 -9 20 -14 0 -5 8 -9 19 -9 10 0 21 -9 24 -20 3 -12 14 -20 26 -20 12 0 21 -6 21 -13 0 -20 33 -47 58 -47 15 0 22 -6 22 -18 0 -25 19 -42 47 -42 15 0 23 -6 23 -18 0 -24 19 -42 46 -42 16 0 24 -7 26 -22 2 -16 11 -24 30 -26 19 -2 28 -10 30 -25 3 -25 43 -31 43 -7 0 25 -363 333 -436 371 -45 22 -48 23 -53 7z"/>
      <path id="pwvWKoEdL" d="M3750 3079 c0 -44 27 -72 66 -67 l27 3 -46 50 -46 50 -1 -36z"/>
      <path id="pKP1nMqWp" d="M3539 3073 c11 -16 47 -55 80 -88 l61 -59 0 35 c0 29 -9 44 -53 87 -38 38 -60 52 -80 52 l-28 0 20 -27z"/>
      <path id="p16HSm8L2R" d="M1290 2980 c-12 -22 -100 -239 -100 -246 0 -2 11 -4 25 -4 21 0 26 6 31 40 4 22 10 40 15 40 5 0 9 9 9 21 0 11 7 27 15 35 8 9 15 24 15 35 0 38 31 59 87 59 38 0 53 4 53 14 0 17 -31 26 -92 26 -37 0 -50 -4 -58 -20z"/>
      <path id="pj2CLvmTX" d="M1508 2993 c-22 -5 -24 -33 -3 -33 11 0 13 -8 8 -32 -3 -18 -9 -35 -13 -38 -12 -8 -77 -221 -100 -327 -25 -113 -60 -351 -60 -405 0 -27 4 -38 15 -38 15 0 17 9 35 160 24 195 84 437 155 620 19 51 35 94 35 96 0 5 -49 3 -72 -3z"/>
      <path id="pmLmDPf2E" d="M3910 2909 c0 -47 44 -92 86 -87 l28 3 -57 60 -56 60 -1 -36z"/>
      <path id="p1DSEnBm3M" d="M3749 2853 c11 -16 49 -57 85 -93 l66 -64 0 35 c0 29 -9 44 -58 92 -42 42 -65 57 -85 57 l-28 0 20 -27z"/>
      <path id="pgDxIwuT4" d="M2720 2723 c-89 -212 -180 -569 -180 -703 0 -42 27 -40 34 3 3 17 13 75 21 127 29 179 116 462 181 592 29 58 29 58 0 58 -21 0 -29 -11 -56 -77z"/>
      <path id="p1Fj4KSIle" d="M4050 2759 c0 -43 18 -62 56 -57 l26 3 -40 45 -41 45 -1 -36z"/>
      <path id="pMgHLMPFT" d="M1142 2573 c-36 -134 -68 -312 -78 -425 -6 -73 -5 -78 13 -78 18 0 21 9 26 78 8 103 32 235 64 357 34 130 40 185 20 185 -10 0 -24 -35 -45 -117z"/>
      <path id="pkpRfkGCd" d="M3930 2665 c0 -2 65 -73 145 -157 113 -120 145 -159 145 -180 0 -21 5 -28 20 -28 17 0 20 7 20 43 0 38 -5 48 -53 95 -37 37 -60 52 -80 52 -24 0 -27 4 -27 33 0 27 -11 43 -58 90 -42 41 -65 57 -85 57 -15 0 -27 -2 -27 -5z"/>
      <path id="p10utMgphp" d="M4200 2599 c0 -44 27 -72 66 -67 l27 3 -46 50 -46 50 -1 -36z"/>
      <path id="pIyUyXC4i" d="M4340 2461 c0 -15 10 -19 57 -24 32 -3 59 -11 61 -17 2 -5 15 -10 28 -10 16 0 24 -6 24 -17 0 -35 24 -83 42 -83 35 0 15 72 -34 117 -33 31 -90 53 -138 53 -32 0 -40 -4 -40 -19z"/>
      <path id="ph30LQe8D" d="M3518 2363 c-10 -2 -18 -11 -18 -19 0 -11 17 -14 75 -14 68 0 75 2 75 20 0 18 -6 20 -57 19 -32 -1 -66 -3 -75 -6z"/>
      <path id="pVFFzc1F2" d="M3890 2350 c0 -18 7 -20 75 -20 57 0 75 3 75 14 0 17 -31 26 -97 26 -46 0 -53 -3 -53 -20z"/>
      <path id="pPQb5nrBY" d="M3378 2353 c-10 -2 -18 -11 -18 -19 0 -10 13 -14 45 -14 38 0 45 3 45 20 0 15 -6 20 -27 19 -16 -1 -36 -3 -45 -6z"/>
      <path id="pk7TzmYUj" d="M4062 2333 c2 -20 9 -29 26 -31 28 -4 31 33 3 48 -29 15 -33 13 -29 -17z"/>
      <path id="p11BHLbY0X" d="M3268 2343 c-10 -2 -18 -11 -18 -19 0 -10 13 -14 45 -14 38 0 45 3 45 20 0 15 -6 20 -27 19 -16 -1 -36 -3 -45 -6z"/>
      <path id="pZErpokmf" d="M3110 2325 c-232 -36 -381 -69 -391 -86 -11 -21 -49 -238 -49 -280 0 -22 5 -29 19 -29 15 0 19 10 24 63 5 57 35 218 42 225 6 6 296 61 388 73 82 11 97 16 97 31 0 21 -9 21 -130 3z"/>
      <path id="pdRwF96NI" d="M4083 2238 c7 -74 25 -108 55 -108 19 0 23 3 16 18 -4 9 -17 45 -28 80 -27 80 -51 86 -43 10z"/>
      <path id="p1BOBjEs0j" d="M4220 2270 c0 -26 23 -72 44 -89 14 -12 16 -10 16 15 0 45 -22 94 -42 94 -11 0 -18 -7 -18 -20z"/>
      <path id="pu8HrelCj" d="M4522 2257 c-7 -18 -12 -43 -12 -54 0 -26 -43 -36 -147 -34 -81 1 -94 -11 -38 -35 66 -27 137 -15 188 34 53 50 76 122 39 122 -11 0 -22 -12 -30 -33z"/>
      <path id="p5UMe68pd" d="M4676 2283 c-3 -4 -6 -18 -6 -32 -1 -72 -77 -167 -167 -208 -46 -21 -65 -24 -121 -21 -37 3 -75 8 -84 13 -15 6 -18 2 -18 -18 0 -24 5 -26 56 -33 62 -7 187 9 192 26 2 5 11 10 21 10 26 0 61 29 61 51 0 13 7 19 21 19 12 0 23 8 26 20 3 11 9 20 14 20 5 0 15 24 24 54 l16 54 34 -10 c42 -14 45 -23 45 -175 0 -98 3 -123 14 -123 19 0 26 32 26 116 0 116 -11 194 -29 203 -29 16 -119 40 -125 34z"/>
      <path id="pcwycjYhy" d="M1330 2035 c0 -49 3 -65 14 -65 17 0 26 31 26 88 0 35 -3 42 -20 42 -18 0 -20 -7 -20 -65z"/>
      <path id="pUyVn5yaD" d="M4192 2068 c3 -30 6 -33 41 -36 48 -4 47 9 -4 42 l-40 27 3 -33z"/>
      <path id="puUI7Ixv2" d="M2146 1968 c-3 -13 -6 -38 -6 -55 0 -26 4 -33 20 -33 18 0 20 7 20 55 0 40 -4 55 -14 55 -7 0 -16 -10 -20 -22z"/>
      <path id="peqHVpjgP" d="M2530 1925 c0 -40 4 -55 14 -55 16 0 26 30 26 78 0 25 -4 32 -20 32 -18 0 -20 -7 -20 -55z"/>
      <path id="p1H1PQNsHZ" d="M4780 1893 c0 -16 -3 -44 -6 -65 l-6 -36 -137 -26 c-75 -14 -164 -29 -198 -33 -54 -5 -63 -9 -63 -26 0 -18 5 -19 68 -12 76 8 268 41 323 56 40 10 43 16 54 112 7 54 6 57 -14 57 -16 0 -21 -6 -21 -27z"/>
      <path id="p6mB4keuq" d="M2665 1879 c-4 -17 -3 -35 1 -39 25 -23 399 -100 637 -130 195 -25 197 -25 197 -1 0 16 -11 19 -82 25 -162 13 -446 64 -643 114 -58 15 -71 22 -73 40 -5 33 -29 27 -37 -9z"/>
      <path id="pVbaoTVlM" d="M1330 1805 c0 -88 1 -95 20 -95 18 0 20 7 20 73 0 85 -7 117 -26 117 -11 0 -14 -21 -14 -95z"/>
      <path id="pgM22YcFk" d="M2136 1828 c-3 -13 -6 -44 -6 -70 0 -41 3 -48 20 -48 18 0 20 7 20 70 0 53 -3 70 -14 70 -7 0 -16 -10 -20 -22z"/>
      <path id="p3ahiTkdI" d="M1060 1758 c0 -48 10 -78 26 -78 10 0 14 15 14 55 0 48 -2 55 -20 55 -16 0 -20 -7 -20 -32z"/>
      <path id="pkkbMxArM" d="M2530 1691 c0 -122 59 -451 81 -451 5 0 9 -13 9 -30 0 -23 4 -30 20 -30 25 0 25 5 -5 104 -31 102 -53 215 -60 314 -9 118 -14 142 -30 142 -11 0 -15 -13 -15 -49z"/>
      <path id="psNVHihw6" d="M3510 1706 c0 -16 30 -26 83 -26 30 0 37 4 37 20 0 18 -7 20 -60 20 -44 0 -60 -4 -60 -14z"/>
      <path id="pNTCWwA2F" d="M4250 1700 c0 -16 7 -20 33 -20 47 0 77 10 77 26 0 10 -15 14 -55 14 -48 0 -55 -2 -55 -20z"/>
      <path id="pXSAMo16v" d="M3690 1696 c0 -18 31 -26 108 -26 55 0 62 2 62 20 0 18 -7 20 -85 20 -66 0 -85 -3 -85 -14z"/>
      <path id="p180BciREX" d="M4030 1690 c0 -18 7 -20 68 -20 80 0 112 8 112 26 0 11 -20 14 -90 14 -83 0 -90 -1 -90 -20z"/>
      <path id="poxrHgWGI" d="M1344 1616 c11 -149 59 -406 102 -548 4 -12 0 -18 -10 -18 -9 0 -16 5 -16 10 0 6 -6 10 -14 10 -8 0 -16 7 -20 15 -3 8 -12 15 -20 15 -7 0 -16 7 -20 15 -3 8 -15 15 -26 15 -11 0 -20 6 -20 14 0 23 -27 38 -62 34 l-33 -3 75 -62 c76 -63 227 -159 236 -150 3 2 -11 57 -31 122 -41 136 -80 320 -95 455 -18 152 -19 160 -37 160 -14 0 -15 -11 -9 -84z"/>
      <path id="pKlXt2zr1" d="M1070 1655 c0 -30 30 -212 50 -304 22 -101 30 -120 56 -142 15 -12 16 -10 11 26 -3 22 -17 87 -31 145 -15 58 -32 147 -38 198 -10 77 -15 92 -30 92 -10 0 -18 -7 -18 -15z"/>
      <path id="pnsmkxVIp" d="M2126 1618 c-3 -13 -6 -81 -6 -153 0 -142 5 -175 26 -175 11 0 14 33 14 175 0 142 -3 175 -14 175 -7 0 -16 -10 -20 -22z"/>
      <path id="pCCwE7zQz" d="M2130 1123 c0 -53 10 -83 26 -83 10 0 14 16 14 60 0 53 -2 60 -20 60 -16 0 -20 -7 -20 -37z"/>
      <path id="p3d5KADfV" d="M2552 1148 c-7 -7 -12 -18 -12 -25 0 -7 -9 -13 -20 -13 -13 0 -20 -7 -20 -20 0 -14 -7 -20 -24 -20 -42 0 -86 -32 -86 -62 l0 -27 38 21 c50 30 174 121 191 141 12 15 10 17 -21 17 -19 0 -39 -5 -46 -12z"/>
      <path id="pAX7ZBY6g" d="M2675 1064 c-158 -146 -379 -254 -581 -284 -43 -6 -94 -13 -111 -16 -20 -3 -33 -11 -33 -19 0 -10 11 -15 33 -15 50 0 216 27 277 46 92 27 220 85 220 100 0 8 10 14 21 14 25 0 89 37 89 51 0 5 7 9 15 9 7 0 18 6 22 13 4 6 17 17 28 23 11 6 21 21 23 33 2 14 11 21 24 21 12 0 29 7 39 16 17 15 22 15 65 0 26 -9 60 -16 76 -16 15 0 28 -4 28 -9 0 -10 172 -53 288 -71 69 -11 72 -13 53 -27 -12 -8 -21 -23 -21 -34 0 -10 -6 -19 -13 -19 -24 0 -87 -74 -87 -103 0 -24 -4 -27 -36 -27 -27 0 -37 -5 -41 -19 -3 -11 -15 -21 -27 -23 -15 -2 -22 -11 -24 -30 -2 -16 1 -28 7 -28 14 0 126 93 197 166 57 58 130 152 122 158 -1 2 -57 13 -123 25 -127 23 -198 40 -362 90 -56 17 -104 31 -105 31 -2 -1 -30 -26 -63 -56z"/>
      <path id="puRj9E14H" d="M1200 1025 c38 -64 132 -184 198 -255 l61 -65 1 36 c0 26 -7 42 -28 62 -15 15 -36 27 -45 27 -11 0 -17 8 -17 25 0 16 6 25 15 25 8 0 15 -6 15 -13 0 -15 61 -47 90 -47 11 0 20 -4 20 -10 0 -5 11 -10 25 -10 14 0 25 -4 25 -10 0 -5 15 -10 34 -10 19 0 36 -4 38 -10 4 -12 165 -40 229 -40 36 0 49 4 49 15 0 8 -13 16 -32 19 -18 2 -67 9 -108 15 -162 22 -331 94 -485 207 -121 88 -113 85 -85 39z"/>
      <path id="paZYHEYXd" d="M2140 986 c0 -49 12 -86 29 -86 9 0 51 12 94 27 83 28 102 53 42 53 -19 0 -35 -3 -35 -8 0 -4 -20 -12 -45 -18 l-45 -10 0 33 c0 26 -4 33 -20 33 -14 0 -20 -7 -20 -24z"/>
      <path id="pP8M9xhpy" d="M1505 660 c43 -45 220 -181 292 -224 39 -23 84 -40 120 -46 86 -15 103 -13 103 9 0 16 -11 20 -75 26 -41 4 -75 11 -75 16 0 5 -11 9 -25 9 -16 0 -25 6 -25 15 0 8 -5 15 -10 15 -6 0 -20 9 -32 20 -12 11 -28 20 -35 20 -7 0 -13 5 -13 10 0 6 -9 10 -20 10 -11 0 -20 7 -20 15 0 9 -9 15 -25 15 -18 0 -25 5 -25 20 0 15 -7 20 -25 20 -18 0 -25 5 -25 18 0 29 -42 62 -80 62 l-34 0 29 -30z"/>
      <path id="pVknwbz3x" d="M2888 623 c-1 -5 -40 -26 -85 -48 -46 -21 -83 -43 -83 -47 0 -4 -11 -8 -25 -8 -14 0 -25 -3 -25 -8 0 -4 -24 -13 -52 -20 -29 -7 -54 -17 -56 -22 -2 -6 -13 -10 -25 -10 -12 0 -65 -9 -117 -20 -52 -11 -110 -20 -127 -20 -26 0 -33 -4 -33 -20 0 -16 7 -20 33 -20 57 0 261 46 353 80 133 49 314 142 314 163 0 4 -15 7 -34 7 -19 0 -36 -3 -38 -7z"/>
    </g>
  </g>
  <g id="l3X94cCvU4zaXlahgKdPANi" fill="rgb(25,44,84)" style="transform: none;">
    <g style="transform: none;">
      <path id="puRDFPPLH" d="M2795 3740 c-27 -4 -76 -13 -108 -20 l-59 -12 144 -72 c165 -82 210 -111 331 -213 48 -40 87 -67 87 -59 0 52 109 186 151 186 10 0 21 4 24 10 3 5 29 12 56 16 l51 7 -99 64 c-54 35 -109 67 -123 70 -14 3 -31 11 -39 17 -17 13 -341 18 -416 6z"/>
      <path id="p1Aga3MSSh" d="M2315 3539 c-38 -17 -83 -37 -100 -44 -119 -55 -167 -75 -178 -75 -7 0 -17 -4 -22 -9 -20 -18 -228 -92 -338 -120 -180 -47 -329 -65 -517 -64 -91 1 -208 9 -260 17 -52 8 -97 13 -99 10 -8 -7 153 -75 238 -100 151 -44 267 -57 446 -51 109 4 188 12 250 26 83 19 249 70 303 92 145 60 218 92 285 126 l48 25 72 -64 c263 -234 544 -468 560 -468 7 0 93 65 192 144 158 126 183 143 203 135 13 -5 43 -9 66 -9 l43 0 359 -377 359 -376 -3 -42 c-4 -49 18 -109 55 -147 52 -55 162 -58 228 -6 34 27 65 92 65 138 0 76 -60 154 -127 165 -15 2 -44 7 -64 10 -33 5 -74 45 -388 380 l-351 374 0 51 c0 63 -18 106 -63 148 -29 28 -44 35 -95 39 -53 5 -66 2 -105 -21 -49 -28 -87 -90 -87 -142 0 -26 -15 -41 -145 -138 -132 -98 -147 -107 -163 -94 -43 37 -349 302 -455 395 -64 57 -123 103 -130 103 -6 0 -43 -14 -82 -31z"/>
      <path id="p15dsj7GUm" d="M3751 3295 c0 -24 17 -48 84 -120 46 -49 87 -87 90 -84 6 7 -79 128 -134 189 l-40 45 0 -30z"/>
      <path id="pwuveOPzJ" d="M2272 2862 c-103 -595 -131 -859 -139 -1312 -5 -282 7 -633 22 -648 4 -4 127 29 140 38 6 4 21 10 35 13 24 6 49 21 175 104 28 18 74 54 104 81 l54 48 -26 80 c-80 249 -98 585 -48 874 38 218 127 499 197 627 19 34 34 64 34 66 0 14 -378 326 -428 354 l-58 33 -62 -358z"/>
      <path id="pd1iBzKhr" d="M1285 2960 c-9 -19 -24 -51 -32 -70 -8 -19 -19 -43 -24 -52 -5 -10 -9 -23 -9 -30 0 -7 -7 -26 -16 -43 -30 -58 -99 -343 -126 -520 -17 -117 -17 -518 1 -645 18 -131 60 -329 76 -361 14 -26 96 -102 180 -166 56 -42 175 -116 180 -111 2 2 -12 53 -31 113 -38 121 -74 286 -101 470 -24 167 -24 552 0 720 41 282 105 520 193 720 3 6 -46 10 -135 10 l-139 0 -17 -35z"/>
      <path id="p3b9VFSHK" d="M3550 2364 c-227 -12 -564 -56 -756 -99 l-71 -17 -11 -51 c-24 -109 -34 -189 -35 -273 l-2 -87 50 -14 c433 -113 970 -167 1435 -143 237 12 306 19 502 56 l136 26 6 31 c10 50 19 381 12 420 -6 32 -10 36 -67 52 -33 9 -62 15 -64 13 -1 -2 -10 -28 -19 -59 -46 -163 -238 -249 -388 -175 -99 48 -156 128 -165 227 -9 90 -4 88 -264 93 -123 2 -258 2 -299 0z"/>
      <path id="pjTtrPH40" d="M2700 1078 c-121 -106 -187 -150 -316 -212 -137 -66 -316 -106 -470 -106 -79 0 -244 26 -258 40 -6 6 -20 10 -33 10 -13 0 -31 4 -41 9 -9 5 -28 13 -42 18 -43 17 -114 53 -145 73 -16 11 -39 24 -50 29 -11 5 -45 28 -75 51 -30 24 -61 48 -69 54 -23 18 0 -20 67 -110 136 -184 297 -339 477 -459 110 -73 110 -73 208 -85 187 -24 529 6 642 55 17 7 41 16 55 20 62 16 237 106 338 172 94 62 225 183 295 272 54 68 57 64 -53 81 -106 16 -289 60 -296 71 -3 5 -15 9 -28 9 -12 0 -54 11 -92 24 l-69 23 -45 -39z"/>
    </g>
  </g>
</svg>
